SplineFontDB: 3.0
FontName: Renner-it-BookItalic
FullName: Renner* Book Italic
FamilyName: Renner*
Weight: Book
Copyright: This typeface is licensed under the SIL open font license.
UComments: "2016-6-10: Created with FontForge (http://fontforge.org)"
Version: 003.000
ItalicAngle: -10
UnderlinePosition: -100
UnderlineWidth: 50
Ascent: 800
Descent: 200
InvalidEm: 0
LayerCount: 2
Layer: 0 0 "Back" 1
Layer: 1 0 "Fore" 0
PreferredKerning: 4
XUID: [1021 31 -699969567 16188444]
FSType: 0
OS2Version: 0
OS2_WeightWidthSlopeOnly: 0
OS2_UseTypoMetrics: 0
CreationTime: 1465610489
ModificationTime: 1528980962
PfmFamily: 33
TTFWeight: 400
TTFWidth: 5
LineGap: 100
VLineGap: 0
OS2TypoAscent: 825
OS2TypoAOffset: 0
OS2TypoDescent: -225
OS2TypoDOffset: 0
OS2TypoLinegap: 100
OS2WinAscent: 900
OS2WinAOffset: 0
OS2WinDescent: 300
OS2WinDOffset: 0
HheadAscent: 1030
HheadAOffset: 0
HheadDescent: -350
HheadDOffset: 0
OS2CapHeight: 700
OS2XHeight: 460
OS2Vendor: 'PfEd'
Lookup: 1 0 0 "alt a" { "alt a"  } ['ss01' ('DFLT' <'dflt' > 'latn' <'dflt' > ) ]
Lookup: 1 0 0 "Tabular Numbers lookup" { "Tabular Numbers lookup"  } ['tnum' ('DFLT' <'dflt' > 'grek' <'dflt' > 'latn' <'dflt' > ) ]
Lookup: 258 0 0 "Lets get our kern on" { "kernin like nobodys business" [150,0,4] } ['kern' ('DFLT' <'dflt' > 'latn' <'dflt' > ) ]
MarkAttachClasses: 1
DEI: 91125
KernClass2: 16 14 "kernin like nobodys business"
 15 slash seven V W
 175 quotedbl quotesingle asterisk grave dieresis ordfeminine macron degree acute ordmasculine circumflex breve dotaccent ring tilde quoteleft quoteright quotedblleft quotedblright
 17 nine question F P
 107 A L backslash Agrave Aacute Acircumflex Atilde Adieresis Aring Amacron Abreve Aogonek Lacute uni013B Lslash
 26 three eight B C germandbls
 5 K X Z
 125 at D G O Ograve Oacute Ocircumflex Otilde Odieresis Oslash Dcaron Dcroat Gcircumflex Gbreve Gdotaccent uni0122 Omacron Obreve

StartChar: H
Encoding: 72 72 0
GlifName: H_
Width: 715
VWidth: 0
Flags: HMW
LayerCount: 2
Fore
SplineSet
187 340 m 5
 201 420 l 5
 681 420 l 5
 667 340 l 5
 187 340 l 5
673 700 m 5
 758 700 l 5
 635 0 l 5
 550 0 l 5
 673 700 l 5
203 700 m 1
 288 700 l 1
 165 0 l 1
 80 0 l 1
 203 700 l 1
EndSplineSet
EndChar

StartChar: O
Encoding: 79 79 1
GlifName: O_
Width: 790
VWidth: 0
Flags: HMW
LayerCount: 2
Fore
SplineSet
192 350 m 4
 164 192 255 75 408 75 c 4
 561 75 694 192 722 350 c 4
 750 508 658 625 505 625 c 4
 352 625 220 508 192 350 c 4
102 350 m 4
 138 554 316 710 520 710 c 4
 724 710 848 554 812 350 c 4
 776 146 597 -10 393 -10 c 4
 189 -10 66 146 102 350 c 4
EndSplineSet
EndChar

StartChar: I
Encoding: 73 73 2
GlifName: I_
Width: 245
VWidth: 0
Flags: HMW
LayerCount: 2
Fore
SplineSet
203 700 m 5
 288 700 l 5
 165 0 l 5
 80 0 l 5
 203 700 l 5
EndSplineSet
EndChar

StartChar: C
Encoding: 67 67 3
GlifName: C_
Width: 685
VWidth: 0
Flags: HMW
LayerCount: 2
Fore
SplineSet
192 350 m 0
 163 187 265 75 403 75 c 4
 502 75 587 117 647 179 c 1
 627 67 l 1
 559 15 490 -10 388 -10 c 0
 194 -10 65 141 102 350 c 0
 139 559 321 710 515 710 c 0
 617 710 677 685 727 633 c 1
 707 521 l 1
 669 583 599 625 500 625 c 4
 362 625 221 513 192 350 c 0
EndSplineSet
EndChar

StartChar: E
Encoding: 69 69 4
GlifName: E_
Width: 550
VWidth: 0
Flags: HMW
LayerCount: 2
Fore
SplineSet
127 0 m 1
 141 80 l 1
 494 80 l 1
 480 0 l 1
 127 0 l 1
236 620 m 5
 250 700 l 1
 603 700 l 1
 589 620 l 5
 236 620 l 5
187 340 m 1
 201 420 l 1
 534 420 l 1
 520 340 l 1
 187 340 l 1
203 700 m 1
 288 700 l 1
 165 0 l 1
 80 0 l 1
 203 700 l 1
EndSplineSet
EndChar

StartChar: F
Encoding: 70 70 6
GlifName: F_
Width: 500
VWidth: 0
Flags: HMW
LayerCount: 2
Fore
SplineSet
236 620 m 1
 250 700 l 1
 563 700 l 5
 549 620 l 1
 236 620 l 1
187 340 m 1
 201 420 l 1
 504 420 l 1
 490 340 l 1
 187 340 l 1
203 700 m 1
 288 700 l 1
 165 0 l 1
 80 0 l 1
 203 700 l 1
EndSplineSet
EndChar

StartChar: G
Encoding: 71 71 7
GlifName: G_
Width: 775
VWidth: 0
Flags: HMW
LayerCount: 2
Fore
SplineSet
453 275 m 5
 468 355 l 5
 793 355 l 1
 723 275 l 1
 453 275 l 5
793 355 m 1
 759 161 607 -10 393 -10 c 0
 189 -10 65 141 102 350 c 0
 139 559 316 710 520 710 c 0
 649 710 742 658 785 561 c 1
 715 506 l 1
 684 580 612 625 505 625 c 0
 357 625 221 513 192 350 c 0
 163 187 260 75 408 75 c 0
 576 75 682 207 706 345 c 1
 793 355 l 1
EndSplineSet
EndChar

StartChar: T
Encoding: 84 84 8
GlifName: T_
Width: 465
VWidth: 0
Flags: HMW
LayerCount: 2
Fore
SplineSet
119 620 m 1
 133 700 l 1
 578 700 l 1
 564 620 l 1
 384 620 l 1
 275 0 l 1
 190 0 l 1
 299 620 l 1
 119 620 l 1
EndSplineSet
EndChar

StartChar: L
Encoding: 76 76 9
GlifName: L_
Width: 450
VWidth: 0
Flags: HMW
LayerCount: 2
Fore
SplineSet
127 0 m 5
 141 80 l 5
 454 80 l 5
 440 0 l 5
 127 0 l 5
203 700 m 5
 288 700 l 5
 165 0 l 5
 80 0 l 5
 203 700 l 5
EndSplineSet
EndChar

StartChar: D
Encoding: 68 68 10
GlifName: D_
Width: 680
VWidth: 0
Flags: HMW
LayerCount: 2
Fore
SplineSet
235 615 m 5
 250 700 l 5
 413 700 l 6
 617 700 739 559 702 350 c 5
 617 350 l 5
 646 513 556 615 398 615 c 6
 235 615 l 5
290 0 m 6
 127 0 l 5
 142 85 l 5
 305 85 l 6
 463 85 588 187 617 350 c 5
 702 350 l 5
 665 141 494 0 290 0 c 6
203 700 m 5
 288 700 l 5
 165 0 l 5
 80 0 l 5
 203 700 l 5
EndSplineSet
EndChar

StartChar: Q
Encoding: 81 81 11
GlifName: Q_
Width: 790
VWidth: 0
Flags: HMW
LayerCount: 2
Fore
SplineSet
192 350 m 0
 164 192 255 75 408 75 c 0
 561 75 694 192 722 350 c 0
 750 508 658 625 505 625 c 0
 352 625 220 508 192 350 c 0
102 350 m 0
 138 554 316 710 520 710 c 0
 724 710 848 554 812 350 c 0
 776 146 597 -10 393 -10 c 0
 189 -10 66 146 102 350 c 0
432 300 m 1
 542 300 l 5
 789 0 l 5
 679 0 l 1
 432 300 l 1
EndSplineSet
EndChar

StartChar: A
Encoding: 65 65 12
GlifName: A_
Width: 660
VWidth: 0
Flags: HMW
LayerCount: 2
Fore
SplineSet
184 210 m 1
 228 290 l 1
 538 290 l 1
 554 210 l 1
 184 210 l 1
426 542 m 1
 259 264 l 1
 247 246 l 1
 100 0 l 1
 5 0 l 1
 460 735 l 1
 655 0 l 1
 560 0 l 1
 500 240 l 1
 496 260 l 1
 426 542 l 1
EndSplineSet
EndChar

StartChar: R
Encoding: 82 82 13
GlifName: R_
Width: 560
VWidth: 0
Flags: HMW
LayerCount: 2
Fore
SplineSet
266 345 m 5
 361 345 l 5
 550 0 l 5
 445 0 l 5
 266 345 l 5
203 700 m 5
 288 700 l 5
 165 0 l 5
 80 0 l 5
 203 700 l 5
237 625 m 5
 250 700 l 5
 393 700 l 6
 528 700 617 619 594 490 c 4
 571 361 454 280 319 280 c 6
 176 280 l 5
 190 355 l 5
 333 355 l 6
 423 355 494 404 509 490 c 4
 524 576 470 625 380 625 c 6
 237 625 l 5
EndSplineSet
EndChar

StartChar: V
Encoding: 86 86 14
GlifName: V_
Width: 660
VWidth: 0
Flags: HMW
LayerCount: 2
Fore
SplineSet
358 158 m 1
 683 700 l 1
 778 700 l 1
 324 -35 l 1
 128 700 l 1
 223 700 l 1
 358 158 l 1
EndSplineSet
EndChar

StartChar: M
Encoding: 77 77 15
GlifName: M_
Width: 810
VWidth: 0
Flags: HMW
LayerCount: 2
Fore
SplineSet
719 505 m 1
 815 735 l 1
 770 0 l 1
 685 0 l 1
 719 505 l 1
255 735 m 1
 269 505 l 1
 125 0 l 1
 40 0 l 1
 255 735 l 1
815 735 m 1
 785 565 l 1
 416 65 l 1
 225 565 l 1
 255 735 l 1
 445 228 l 1
 815 735 l 1
EndSplineSet
EndChar

StartChar: W
Encoding: 87 87 16
GlifName: W_
Width: 990
VWidth: 0
Flags: HMW
LayerCount: 2
Fore
SplineSet
336 90 m 1
 279 -35 l 1
 133 700 l 1
 228 700 l 1
 336 90 l 1
699 -35 m 1
 686 90 l 1
 1008 700 l 1
 1103 700 l 1
 699 -35 l 1
279 -35 m 1
 264 80 l 1
 625 735 l 1
 754 80 l 1
 699 -35 l 1
 585 509 l 1
 279 -35 l 1
EndSplineSet
EndChar

StartChar: N
Encoding: 78 78 17
GlifName: N_
Width: 775
VWidth: 0
Flags: HMW
LayerCount: 2
Fore
SplineSet
192 605 m 1
 210 735 l 1
 707 95 l 5
 689 -35 l 5
 192 605 l 1
733 700 m 5
 818 700 l 5
 689 -35 l 5
 623 75 l 5
 733 700 l 5
210 735 m 1
 275 625 l 1
 165 0 l 1
 80 0 l 1
 210 735 l 1
EndSplineSet
EndChar

StartChar: a
Encoding: 97 97 18
GlifName: a
Width: 570
VWidth: 0
Flags: HMW
LayerCount: 2
Fore
SplineSet
506 460 m 5
 581 460 l 5
 500 0 l 5
 425 0 l 5
 506 460 l 5
76 230 m 4
 102 379 221 470 346 470 c 4
 461 470 523 379 497 230 c 4
 471 81 376 -10 261 -10 c 4
 136 -10 50 81 76 230 c 4
157 230 m 4
 138 124 199 65 284 65 c 4
 354 65 442 124 461 230 c 4
 480 336 413 395 343 395 c 4
 258 395 176 336 157 230 c 4
EndSplineSet
Substitution2: "alt a" a.alt
EndChar

StartChar: X
Encoding: 88 88 19
GlifName: X_
Width: 555
VWidth: 0
Flags: HMW
LayerCount: 2
Fore
SplineSet
553 700 m 5
 653 700 l 1
 388 367 l 1
 545 0 l 1
 445 0 l 5
 332 293 l 1
 110 0 l 1
 10 0 l 1
 303 367 l 1
 158 700 l 1
 258 700 l 1
 359 441 l 1
 553 700 l 5
EndSplineSet
EndChar

StartChar: K
Encoding: 75 75 20
GlifName: K_
Width: 565
VWidth: 0
Flags: HMW
LayerCount: 2
Fore
SplineSet
203 700 m 1
 288 700 l 1
 165 0 l 1
 80 0 l 1
 203 700 l 1
563 700 m 1
 668 700 l 1
 308 372 l 1
 560 0 l 1
 455 0 l 1
 204 370 l 5
 563 700 l 1
EndSplineSet
EndChar

StartChar: Y
Encoding: 89 89 21
GlifName: Y_
Width: 561
VWidth: 0
Flags: HMW
LayerCount: 2
Fore
SplineSet
301 360 m 1
 386 360 l 1
 323 0 l 1
 238 0 l 1
 301 360 l 1
584 700 m 1
 679 700 l 1
 320 229 l 5
 128 700 l 1
 223 700 l 1
 346 376 l 1
 584 700 l 1
EndSplineSet
EndChar

StartChar: B
Encoding: 66 66 22
GlifName: B_
Width: 558
VWidth: 0
Flags: HMW
LayerCount: 2
Fore
SplineSet
196 390 m 5
 339 390 l 6
 474 390 567 334 544 205 c 4
 519 66 405 0 270 0 c 6
 127 0 l 5
 140 75 l 5
 283 75 l 6
 373 75 445 124 460 210 c 4
 475 296 420 343 330 343 c 6
 187 343 l 5
 196 390 l 5
192 370 m 5
 201 417 l 5
 334 417 l 6
 404 417 463 454 475 520 c 4
 487 586 440 625 370 625 c 6
 237 625 l 5
 250 700 l 5
 383 700 l 6
 508 700 582 644 561 525 c 4
 544 426 450 370 325 370 c 6
 192 370 l 5
203 700 m 5
 288 700 l 5
 165 0 l 5
 80 0 l 5
 203 700 l 5
EndSplineSet
EndChar

StartChar: Z
Encoding: 90 90 23
GlifName: Z_
Width: 545
VWidth: 0
Flags: HMW
LayerCount: 2
Fore
SplineSet
144 620 m 5
 158 700 l 5
 648 700 l 5
 171 80 l 5
 519 80 l 5
 505 0 l 5
 15 0 l 5
 492 620 l 5
 144 620 l 5
EndSplineSet
EndChar

StartChar: o
Encoding: 111 111 24
GlifName: o
Width: 546
VWidth: 0
Flags: HMW
LayerCount: 2
Fore
SplineSet
76 230 m 4
 101 369 221 470 356 470 c 4
 491 470 577 369 552 230 c 4
 527 91 406 -10 271 -10 c 4
 136 -10 51 91 76 230 c 4
157 230 m 4
 140 134 194 65 284 65 c 4
 374 65 454 134 471 230 c 4
 488 326 433 395 343 395 c 4
 253 395 174 326 157 230 c 4
EndSplineSet
EndChar

StartChar: J
Encoding: 74 74 25
GlifName: J_
Width: 240
VWidth: 0
Flags: HMW
LayerCount: 2
Fore
SplineSet
-85 -104 m 5
 -75 -127 -49 -140 -13 -140 c 4
 17 -140 59 -116 71 -50 c 6
 203 700 l 5
 283 700 l 5
 149 -60 l 6
 130 -169 62 -220 -32 -220 c 4
 -85 -220 -130 -190 -141 -170 c 5
 -85 -104 l 5
EndSplineSet
EndChar

StartChar: t
Encoding: 116 116 26
GlifName: t
Width: 240
VWidth: 0
Flags: HMW
LayerCount: 2
Fore
SplineSet
86 460 m 5
 316 460 l 5
 303 385 l 5
 73 385 l 5
 86 460 l 5
189 620 m 5
 269 620 l 5
 160 0 l 5
 80 0 l 5
 189 620 l 5
EndSplineSet
EndChar

StartChar: d
Encoding: 100 100 27
GlifName: d
Width: 570
VWidth: 0
Flags: HMW
LayerCount: 2
Fore
SplineSet
558 780 m 1
 638 780 l 1
 500 0 l 1
 420 0 l 1
 558 780 l 1
76 230 m 0
 102 379 221 470 346 470 c 0
 461 470 523 379 497 230 c 0
 471 81 376 -10 261 -10 c 0
 136 -10 50 81 76 230 c 0
157 230 m 0
 138 124 199 65 284 65 c 0
 354 65 442 124 461 230 c 0
 480 336 413 395 343 395 c 0
 258 395 176 336 157 230 c 0
EndSplineSet
EndChar

StartChar: l
Encoding: 108 108 28
GlifName: l
Width: 230
VWidth: 0
Flags: HMW
LayerCount: 2
Fore
SplineSet
213 780 m 5
 293 780 l 5
 155 0 l 5
 75 0 l 5
 213 780 l 5
EndSplineSet
EndChar

StartChar: i
Encoding: 105 105 29
GlifName: i
Width: 260
VWidth: 0
Flags: HMW
LayerCount: 2
Fore
SplineSet
190 650 m 0
 195 680 224 705 254 705 c 0
 284 705 305 680 300 650 c 0
 295 620 265 595 235 595 c 0
 205 595 185 620 190 650 c 0
171 460 m 5
 251 460 l 5
 170 0 l 5
 90 0 l 5
 171 460 l 5
EndSplineSet
EndChar

StartChar: r
Encoding: 114 114 30
GlifName: r
Width: 343
VWidth: 0
Flags: HMW
LayerCount: 2
Fore
SplineSet
236 460 m 1
 155 0 l 1
 75 0 l 1
 156 460 l 1
 236 460 l 1
360 372 m 1
 341 388 328 395 302 395 c 0
 242 395 216 346 204 280 c 1
 168 280 l 1
 187 389 270 470 335 470 c 0
 368 470 395 463 415 438 c 1
 360 372 l 1
EndSplineSet
EndChar

StartChar: c
Encoding: 99 99 31
GlifName: c
Width: 478
VWidth: 0
Flags: HMW
LayerCount: 2
Fore
SplineSet
152 230 m 0
 135 134 189 65 279 65 c 0
 353 65 425 104 454 149 c 1
 437 49 l 1
 398 11 329 -10 266 -10 c 0
 131 -10 46 91 71 230 c 0
 96 369 216 470 351 470 c 0
 414 470 475 448 500 411 c 1
 483 311 l 1
 470 356 412 395 338 395 c 0
 248 395 169 326 152 230 c 0
EndSplineSet
EndChar

StartChar: b
Encoding: 98 98 32
GlifName: b
Width: 570
VWidth: 0
Flags: HMW
LayerCount: 2
Fore
SplineSet
288 780 m 1
 150 0 l 5
 70 0 l 1
 208 780 l 1
 288 780 l 1
576 230 m 0
 550 81 430 -10 305 -10 c 0
 190 -10 129 81 155 230 c 0
 181 379 275 470 390 470 c 0
 515 470 602 379 576 230 c 0
495 230 m 0
 514 336 452 395 367 395 c 0
 297 395 210 336 191 230 c 0
 172 124 238 65 308 65 c 0
 393 65 476 124 495 230 c 0
EndSplineSet
EndChar

StartChar: p
Encoding: 112 112 33
GlifName: p
Width: 570
VWidth: 0
Flags: HMW
LayerCount: 2
Fore
SplineSet
111 -220 m 5
 31 -220 l 5
 151 460 l 5
 231 460 l 5
 111 -220 l 5
576 230 m 4
 550 81 430 -10 305 -10 c 4
 190 -10 129 81 155 230 c 4
 181 379 275 470 390 470 c 4
 515 470 602 379 576 230 c 4
495 230 m 4
 514 336 452 395 367 395 c 4
 297 395 210 336 191 230 c 4
 172 124 238 65 308 65 c 4
 393 65 476 124 495 230 c 4
EndSplineSet
EndChar

StartChar: q
Encoding: 113 113 34
GlifName: q
Width: 570
VWidth: 0
Flags: HMW
LayerCount: 2
Fore
SplineSet
381 -220 m 5
 501 460 l 5
 581 460 l 5
 461 -220 l 5
 381 -220 l 5
76 230 m 4
 102 379 221 470 346 470 c 4
 461 470 523 379 497 230 c 4
 471 81 376 -10 261 -10 c 4
 136 -10 50 81 76 230 c 4
157 230 m 4
 138 124 199 65 284 65 c 4
 354 65 442 124 461 230 c 4
 480 336 413 395 343 395 c 4
 258 395 176 336 157 230 c 4
EndSplineSet
EndChar

StartChar: h
Encoding: 104 104 35
GlifName: h
Width: 525
VWidth: 0
Flags: HMW
LayerCount: 2
Fore
SplineSet
293 780 m 1
 155 0 l 1
 75 0 l 1
 213 780 l 1
 293 780 l 1
419 280 m 2
 432 356 407 395 342 395 c 0
 272 395 216 346 204 280 c 1
 178 280 l 5
 197 389 280 470 375 470 c 0
 470 470 522 409 501 290 c 2
 450 0 l 1
 370 0 l 1
 419 280 l 2
EndSplineSet
EndChar

StartChar: n
Encoding: 110 110 36
GlifName: n
Width: 525
VWidth: 0
Flags: HMW
LayerCount: 2
Fore
SplineSet
236 460 m 1
 155 0 l 1
 75 0 l 1
 156 460 l 1
 236 460 l 1
419 280 m 2
 432 356 407 395 342 395 c 0
 272 395 216 346 204 280 c 1
 178 280 l 5
 197 389 280 470 375 470 c 0
 470 470 522 409 501 290 c 2
 450 0 l 1
 370 0 l 1
 419 280 l 2
EndSplineSet
EndChar

StartChar: m
Encoding: 109 109 37
GlifName: m
Width: 780
VWidth: 0
Flags: HMW
LayerCount: 2
Fore
SplineSet
399 280 m 2
 412 356 397 395 332 395 c 0
 262 395 216 346 204 280 c 1
 178 280 l 1
 197 389 270 470 365 470 c 0
 460 470 502 409 481 290 c 2
 430 0 l 1
 350 0 l 1
 399 280 l 2
236 460 m 1
 155 0 l 1
 75 0 l 1
 156 460 l 1
 236 460 l 1
756 290 m 2
 705 0 l 1
 625 0 l 1
 674 280 l 2
 687 356 672 395 607 395 c 0
 537 395 491 346 479 280 c 1
 438 280 l 5
 457 389 545 470 640 470 c 0
 735 470 777 409 756 290 c 2
EndSplineSet
EndChar

StartChar: k
Encoding: 107 107 38
GlifName: k
Width: 440
VWidth: 0
Flags: HMW
LayerCount: 2
Fore
SplineSet
208 780 m 1
 288 780 l 1
 150 0 l 1
 70 0 l 1
 208 780 l 1
401 460 m 1
 501 460 l 1
 268 270 l 1
 440 0 l 1
 340 0 l 1
 168 270 l 1
 401 460 l 1
EndSplineSet
EndChar

StartChar: u
Encoding: 117 117 39
GlifName: u
Width: 525
VWidth: 0
Flags: HMW
LayerCount: 2
Fore
SplineSet
370 0 m 1
 451 460 l 1
 531 460 l 1
 450 0 l 1
 370 0 l 1
187 180 m 2
 174 104 199 65 264 65 c 0
 334 65 390 114 402 180 c 1
 428 180 l 5
 409 71 326 -10 231 -10 c 0
 136 -10 84 51 105 170 c 2
 156 460 l 1
 236 460 l 1
 187 180 l 2
EndSplineSet
EndChar

StartChar: e
Encoding: 101 101 40
GlifName: e
Width: 515
VWidth: 0
Flags: HMW
LayerCount: 2
Fore
SplineSet
133 210 m 5
 145 278 l 5
 508 278 l 5
 516 210 l 5
 133 210 l 5
439 250 m 6
 454 336 424 400 334 400 c 4
 254 400 179 346 164 260 c 5
 157 230 l 5
 138 124 184 65 274 65 c 4
 341 65 393 98 433 148 c 5
 491 107 l 5
 433 37 370 -10 251 -10 c 4
 126 -10 51 91 76 230 c 4
 79 247 82 263 88 279 c 4
 127 392 227 470 346 470 c 4
 476 470 547 379 521 234 c 4
 520 226 518 218 516 210 c 5
 436 230 l 5
 439 250 l 6
EndSplineSet
EndChar

StartChar: g
Encoding: 103 103 41
GlifName: g
Width: 570
VWidth: 0
Flags: HMW
LayerCount: 2
Fore
SplineSet
39 -30 m 5
 120 -30 l 5
 108 -96 155 -155 245 -155 c 4
 315 -155 402 -106 422 10 c 6
 501 460 l 5
 581 460 l 5
 502 10 l 6
 474 -149 346 -230 231 -230 c 4
 96 -230 18 -149 39 -30 c 5
76 230 m 4
 102 379 221 470 346 470 c 4
 461 470 523 379 497 230 c 4
 471 81 376 -10 261 -10 c 4
 136 -10 50 81 76 230 c 4
157 230 m 4
 138 124 199 65 284 65 c 4
 354 65 442 124 461 230 c 4
 480 336 413 395 343 395 c 4
 258 395 176 336 157 230 c 4
EndSplineSet
EndChar

StartChar: f
Encoding: 102 102 42
GlifName: f
Width: 286
VWidth: 0
Flags: HMW
LayerCount: 2
Fore
SplineSet
121 460 m 1
 351 460 l 1
 338 385 l 1
 108 385 l 1
 121 460 l 1
383 684 m 5
 373 707 354 710 338 710 c 4
 308 710 286 686 274 620 c 6
 165 0 l 5
 85 0 l 5
 196 630 l 6
 215 739 273 790 357 790 c 4
 400 790 427 770 438 750 c 5
 383 684 l 5
EndSplineSet
EndChar

StartChar: s
Encoding: 115 115 43
GlifName: s
Width: 403
VWidth: 0
Flags: HMW
LayerCount: 2
Fore
SplineSet
119 161 m 1
 121 105 164 65 221 65 c 0
 271 65 305 83 312 123 c 0
 321 173 273 194 224 215 c 0
 165 240 102 272 116 349 c 0
 129 425 212 470 286 470 c 0
 359 470 427 431 436 380 c 5
 365 339 l 5
 348 370 310 394 273 394 c 0
 233 394 201 380 195 344 c 4
 189 308 246 287 293 266 c 0
 353 239 408 197 396 130 c 0
 379 31 302 -10 203 -10 c 0
 118 -10 48 48 47 123 c 1
 119 161 l 1
EndSplineSet
EndChar

StartChar: y
Encoding: 121 121 44
GlifName: y
Width: 440
VWidth: 0
Flags: HMW
LayerCount: 2
Fore
SplineSet
521 460 m 1
 101 -220 l 1
 11 -220 l 1
 187 65 l 5
 81 460 l 5
 176 460 l 5
 259 100 l 5
 226 104 l 5
 431 460 l 1
 521 460 l 1
EndSplineSet
EndChar

StartChar: w
Encoding: 119 119 45
GlifName: w
Width: 680
VWidth: 0
Flags: HMW
LayerCount: 2
Fore
SplineSet
666 460 m 1
 756 460 l 1
 469 -35 l 1
 462 95 l 5
 666 460 l 1
371 375 m 1
 422 495 l 1
 512 95 l 1
 469 -35 l 1
 371 375 l 1
422 495 m 1
 431 375 l 1
 199 -35 l 1
 202 95 l 1
 422 495 l 1
86 460 m 1
 176 460 l 1
 252 95 l 1
 199 -35 l 1
 86 460 l 1
EndSplineSet
EndChar

StartChar: v
Encoding: 118 118 46
GlifName: v
Width: 440
VWidth: 0
Flags: HMW
LayerCount: 2
Fore
SplineSet
81 460 m 1
 171 460 l 1
 244 135 l 1
 431 460 l 1
 521 460 l 1
 214 -35 l 1
 81 460 l 1
EndSplineSet
EndChar

StartChar: x
Encoding: 120 120 47
GlifName: x
Width: 420
VWidth: 0
Flags: HMW
LayerCount: 2
Fore
SplineSet
401 460 m 1
 491 460 l 1
 295 237 l 1
 420 0 l 1
 330 0 l 1
 241 174 l 1
 90 0 l 1
 0 0 l 1
 209 237 l 1
 91 460 l 1
 181 460 l 1
 263 300 l 5
 401 460 l 1
EndSplineSet
EndChar

StartChar: z
Encoding: 122 122 48
GlifName: z
Width: 460
VWidth: 0
Flags: HMW
LayerCount: 2
Fore
SplineSet
368 385 m 5
 113 385 l 5
 126 460 l 5
 526 460 l 5
 173 75 l 5
 438 75 l 5
 425 0 l 5
 15 0 l 5
 368 385 l 5
EndSplineSet
EndChar

StartChar: j
Encoding: 106 106 49
GlifName: j
Width: 250
VWidth: 0
Flags: HMW
LayerCount: 2
Fore
SplineSet
180 650 m 4
 185 680 214 705 244 705 c 4
 274 705 295 680 290 650 c 4
 285 620 255 595 225 595 c 4
 195 595 175 620 180 650 c 4
-37 -114 m 5
 -27 -137 -9 -140 7 -140 c 4
 37 -140 59 -116 71 -50 c 6
 161 460 l 5
 241 460 l 5
 149 -60 l 6
 130 -169 72 -220 -12 -220 c 4
 -55 -220 -82 -200 -93 -180 c 5
 -37 -114 l 5
EndSplineSet
EndChar

StartChar: P
Encoding: 80 80 50
GlifName: P_
Width: 548
VWidth: 0
Flags: HMW
LayerCount: 2
Fore
SplineSet
203 700 m 1
 288 700 l 1
 165 0 l 1
 80 0 l 1
 203 700 l 1
236 620 m 1
 250 700 l 1
 393 700 l 2
 528 700 617 619 594 490 c 0
 571 361 454 280 319 280 c 2
 176 280 l 1
 190 360 l 1
 333 360 l 2
 423 360 494 404 509 490 c 0
 524 576 469 620 379 620 c 2
 236 620 l 1
EndSplineSet
EndChar

StartChar: U
Encoding: 85 85 51
GlifName: U_
Width: 626
VWidth: 0
Flags: HMW
LayerCount: 2
Fore
SplineSet
198 700 m 1
 283 700 l 1
 201 230 l 2
 184 134 225 70 325 70 c 0
 425 70 490 134 507 230 c 2
 589 700 l 1
 674 700 l 1
 592 230 l 2
 567 91 456 -10 311 -10 c 0
 166 -10 91 91 116 230 c 2
 198 700 l 1
EndSplineSet
EndChar

StartChar: S
Encoding: 83 83 52
GlifName: S_
Width: 548
VWidth: 0
Flags: HMW
LayerCount: 2
Fore
SplineSet
152 226 m 1
 177 130 220 70 307 70 c 0
 387 70 435 113 447 183 c 0
 463 273 386 309 311 338 c 0
 245 363 148 416 169 535 c 4
 188 641 289 710 403 710 c 0
 516 710 578 631 593 560 c 1
 516 514 l 1
 496 572 467 629 390 629 c 0
 320 629 268 590 257 529 c 4
 245 461 317 428 396 396 c 0
 464 369 559 317 537 190 c 0
 516 71 427 -10 288 -10 c 0
 173 -10 96 68 72 183 c 1
 152 226 l 1
EndSplineSet
EndChar

StartChar: at
Encoding: 64 64 53
GlifName: at
Width: 770
VWidth: 0
Flags: HMW
LayerCount: 2
Fore
SplineSet
322 320 m 0
 312 264 334 230 389 230 c 0
 439 230 511 264 530 370 c 0
 540 426 509 460 459 460 c 0
 404 460 337 406 322 320 c 0
246 317 m 0
 271 456 386 530 471 530 c 0
 556 530 580 449 566 370 c 0
 541 231 451 160 356 160 c 0
 283 160 229 218 246 317 c 0
91 320 m 0
 130 539 316 710 540 710 c 0
 754 710 832 549 804 390 c 0
 773 214 657 150 582 150 c 0
 521 150 492 204 514 270 c 1
 507 270 l 9
 587 520 l 1
 662 520 l 1
 580 289 l 2
 578 282 574 270 573 262 c 0
 569 238 571 216 604 216 c 0
 634 216 712 264 734 390 c 0
 757 523 697 645 529 645 c 0
 341 645 193 503 161 320 c 0
 132 157 217 55 375 55 c 0
 445 55 512 65 585 107 c 1
 610 50 l 5
 544 14 477 -10 363 -10 c 0
 149 -10 56 121 91 320 c 0
EndSplineSet
EndChar

StartChar: period
Encoding: 46 46 54
GlifName: period
Width: 300
VWidth: 0
Flags: HMW
LayerCount: 2
Fore
SplineSet
102 40 m 4
 107 70 137 95 167 95 c 4
 197 95 217 70 212 40 c 4
 207 10 177 -15 147 -15 c 4
 117 -15 97 10 102 40 c 4
EndSplineSet
EndChar

StartChar: comma
Encoding: 44 44 55
GlifName: comma
Width: 308
VWidth: 0
Flags: HMW
LayerCount: 2
Fore
SplineSet
167 110 m 5
 242 80 l 5
 88 -170 l 5
 34 -149 l 5
 167 110 l 5
EndSplineSet
EndChar

StartChar: colon
Encoding: 58 58 56
GlifName: colon
Width: 300
VWidth: 0
Flags: HMW
LayerCount: 2
Fore
SplineSet
102 40 m 4
 107 70 137 95 167 95 c 4
 197 95 217 70 212 40 c 4
 207 10 177 -15 147 -15 c 4
 117 -15 97 10 102 40 c 4
169 420 m 4
 174 450 204 475 234 475 c 4
 264 475 284 450 279 420 c 4
 274 390 244 365 214 365 c 4
 184 365 164 390 169 420 c 4
EndSplineSet
EndChar

StartChar: semicolon
Encoding: 59 59 57
GlifName: semicolon
Width: 330
VWidth: 0
Flags: HMW
LayerCount: 2
Fore
SplineSet
199 420 m 4
 204 450 234 475 264 475 c 4
 294 475 314 450 309 420 c 4
 304 390 274 365 244 365 c 4
 214 365 194 390 199 420 c 4
167 110 m 5
 242 80 l 5
 88 -170 l 5
 34 -149 l 5
 167 110 l 5
EndSplineSet
EndChar

StartChar: quotedbl
Encoding: 34 34 58
GlifName: quotedbl
Width: 465
VWidth: 0
Flags: HMW
LayerCount: 2
Fore
SplineSet
253 700 m 1
 348 700 l 1
 206 400 l 1
 151 400 l 1
 253 700 l 1
433 700 m 1
 528 700 l 1
 386 400 l 1
 331 400 l 1
 433 700 l 1
EndSplineSet
EndChar

StartChar: exclam
Encoding: 33 33 59
GlifName: exclam
Width: 300
VWidth: 0
Flags: HMW
LayerCount: 2
Fore
SplineSet
223 700 m 1
 323 700 l 1
 215 200 l 1
 155 200 l 1
 223 700 l 1
102 40 m 0
 107 70 137 95 167 95 c 0
 197 95 217 70 212 40 c 0
 207 10 177 -15 147 -15 c 0
 117 -15 97 10 102 40 c 0
EndSplineSet
EndChar

StartChar: quotesingle
Encoding: 39 39 60
GlifName: quotesingle
Width: 285
VWidth: 0
Flags: HMW
LayerCount: 2
Fore
SplineSet
253 700 m 5
 348 700 l 5
 206 400 l 5
 151 400 l 5
 253 700 l 5
EndSplineSet
EndChar

StartChar: numbersign
Encoding: 35 35 61
GlifName: numbersign
Width: 605
VWidth: 0
Flags: HMW
LayerCount: 2
Fore
SplineSet
153 440 m 5
 164 505 l 5
 659 505 l 5
 648 440 l 5
 508 440 l 0
 494 440 l 0
 302 440 l 0
 288 440 l 0
 153 440 l 5
70 200 m 1
 82 265 l 1
 213 265 l 0
 229 265 l 0
 429 265 l 0
 449 265 l 0
 577 265 l 1
 565 200 l 1
 70 200 l 1
578 700 m 1
 653 700 l 1
 360 0 l 1
 285 0 l 1
 380 228 l 0
 388 246 l 0
 478 462 l 0
 485 478 l 0
 578 700 l 1
368 700 m 1
 443 700 l 1
 352 482 l 0
 345 466 l 0
 252 244 l 0
 245 226 l 0
 150 0 l 1
 75 0 l 1
 368 700 l 1
EndSplineSet
EndChar

StartChar: hyphen
Encoding: 45 45 62
GlifName: hyphen
Width: 210
VWidth: 0
Flags: HMW
LayerCount: 2
Fore
SplineSet
40 200 m 5
 53 275 l 5
 253 275 l 5
 240 200 l 5
 40 200 l 5
EndSplineSet
EndChar

StartChar: dollar
Encoding: 36 36 63
GlifName: dollar
Width: 580
VWidth: 0
Flags: HMW
LayerCount: 2
Fore
SplineSet
403 818 m 5
 477 818 l 5
 451 668 l 5
 377 668 l 5
 403 818 l 5
267 48 m 5
 341 48 l 5
 313 -112 l 5
 239 -112 l 5
 267 48 l 5
531 514 m 5
 511 572 482 629 405 629 c 4
 325 629 284 595 273 534 c 4
 260 458 332 428 411 396 c 4
 479 369 574 317 552 190 c 4
 531 71 442 -10 303 -10 c 4
 188 -10 111 68 87 183 c 5
 167 226 l 5
 192 130 235 70 322 70 c 4
 402 70 450 113 462 183 c 4
 478 273 401 309 326 338 c 4
 260 363 163 413 185 540 c 4
 202 636 304 710 418 710 c 4
 531 710 593 631 608 560 c 5
 531 514 l 5
EndSplineSet
EndChar

StartChar: bar
Encoding: 124 124 64
GlifName: bar
Width: 274
VWidth: 0
Flags: HMW
LayerCount: 2
Fore
SplineSet
238 785 m 5
 312 785 l 5
 136 -215 l 5
 62 -215 l 5
 238 785 l 5
EndSplineSet
EndChar

StartChar: zero
Encoding: 48 48 65
GlifName: zero
Width: 600
VWidth: 0
Flags: HMW
LayerCount: 2
Fore
SplineSet
187 350 m 4
 158 187 204 70 312 70 c 4
 420 70 508 187 537 350 c 4
 566 513 519 630 411 630 c 4
 303 630 216 513 187 350 c 4
102 350 m 4
 139 559 271 710 425 710 c 4
 579 710 659 559 622 350 c 4
 585 141 452 -10 298 -10 c 4
 144 -10 65 141 102 350 c 4
EndSplineSet
Substitution2: "Tabular Numbers lookup" uniFF10
EndChar

StartChar: one
Encoding: 49 49 66
GlifName: one
Width: 450
VWidth: 0
Flags: HMW
LayerCount: 2
Fore
SplineSet
179 562 m 1
 195 650 l 1
 445 710 l 1
 320 0 l 1
 235 0 l 1
 342 608 l 1
 179 562 l 1
EndSplineSet
Substitution2: "Tabular Numbers lookup" uniFF11
EndChar

StartChar: two
Encoding: 50 50 67
GlifName: two
Width: 569
VWidth: 0
Flags: HMW
LayerCount: 2
Fore
SplineSet
20 0 m 1
 413 353 l 2
 468 402 503 450 513 506 c 0
 524 567 493 631 408 631 c 0
 318 631 245 566 226 460 c 1
 141 460 l 1
 167 609 277 711 422 711 c 0
 576 711 616 593 599 499 c 4
 586 427 537 363 472 307 c 2
 209 80 l 1
 528 80 l 1
 514 0 l 1
 20 0 l 1
EndSplineSet
Substitution2: "Tabular Numbers lookup" uniFF12
EndChar

StartChar: four
Encoding: 52 52 68
GlifName: four
Width: 583
VWidth: 0
Flags: HMW
LayerCount: 2
Fore
SplineSet
45 140 m 5
 128 215 l 5
 431 215 l 4
 448 215 l 4
 591 215 l 5
 578 140 l 5
 45 140 l 5
135 140 m 5
 45 140 l 5
 531 700 l 29
 566 700 l 5
 443 0 l 5
 358 0 l 5
 389 176 l 4
 391 187 l 4
 448 511 l 5
 135 140 l 5
EndSplineSet
Substitution2: "Tabular Numbers lookup" uniFF14
EndChar

StartChar: slash
Encoding: 47 47 69
GlifName: slash
Width: 515
VWidth: 0
Flags: HMW
LayerCount: 2
Fore
SplineSet
543 700 m 1
 623 700 l 1
 69 -150 l 5
 -11 -150 l 1
 543 700 l 1
EndSplineSet
EndChar

StartChar: backslash
Encoding: 92 92 70
GlifName: backslash
Width: 515
VWidth: 0
Flags: HMW
LayerCount: 2
Fore
SplineSet
138 700 m 5
 223 700 l 5
 500 0 l 1
 415 0 l 1
 138 700 l 5
EndSplineSet
EndChar

StartChar: eight
Encoding: 56 56 71
GlifName: eight
Width: 546
VWidth: 0
Flags: HMW
LayerCount: 2
Fore
SplineSet
174 531 m 4
 191 630 288 710 398 710 c 4
 508 710 577 630 560 531 c 4
 541 422 451 355 336 355 c 4
 221 355 155 422 174 531 c 4
253 521 m 4
 241 455 285 410 345 410 c 4
 405 410 465 455 477 521 c 4
 489 587 450 635 385 635 c 4
 320 635 265 587 253 521 c 4
89 190 m 4
 112 319 227 390 342 390 c 4
 457 390 548 319 525 190 c 4
 506 81 396 -10 271 -10 c 4
 146 -10 70 81 89 190 c 4
171 200 m 4
 156 114 214 65 284 65 c 4
 354 65 430 114 445 200 c 4
 458 276 402 335 332 335 c 4
 262 335 184 276 171 200 c 4
EndSplineSet
Substitution2: "Tabular Numbers lookup" uniFF18
EndChar

StartChar: nine
Encoding: 57 57 72
GlifName: nine
Width: 576
VWidth: 0
Flags: HMW
LayerCount: 2
Fore
SplineSet
528 470 m 4
 545 566 490 633 400 633 c 4
 310 633 231 566 214 470 c 4
 197 374 252 305 342 305 c 4
 432 305 511 374 528 470 c 4
246 0 m 5
 139 0 l 5
 409 289 l 5
 414 284 l 5
 381 251 345 243 300 243 c 4
 186 243 110 341 133 470 c 4
 158 614 278 710 413 710 c 4
 548 710 634 614 609 470 c 4
 599 413 573 362 539 325 c 6
 246 0 l 5
EndSplineSet
Substitution2: "Tabular Numbers lookup" uniFF19
EndChar

StartChar: three
Encoding: 51 51 73
GlifName: three
Width: 546
VWidth: 0
Flags: HMW
LayerCount: 2
Fore
SplineSet
314 345 m 1
 324 400 l 1
 414 400 474 455 486 521 c 0
 498 587 470 633 400 633 c 0
 335 633 275 587 264 526 c 1
 183 526 l 1
 202 635 297 710 412 710 c 0
 532 710 590 623 573 524 c 0
 556 425 449 345 314 345 c 1
281 -10 m 4
 146 -10 74 76 93 185 c 1
 179 185 l 1
 167 119 215 70 295 70 c 4
 375 70 435 119 448 195 c 0
 463 281 400 325 310 325 c 1
 320 380 l 1
 455 380 559 324 534 185 c 0
 513 66 406 -10 281 -10 c 4
EndSplineSet
Substitution2: "Tabular Numbers lookup" uniFF13
EndChar

StartChar: five
Encoding: 53 53 74
GlifName: five
Width: 564
VWidth: 0
Flags: HMW
LayerCount: 2
Fore
SplineSet
565 230 m 0
 537 71 412 -10 277 -10 c 0
 148 -10 86 57 54 137 c 1
 135 186 l 1
 155 126 214 70 291 70 c 0
 391 70 460 134 477 230 c 0
 494 326 438 390 348 390 c 0
 281 390 238 377 158 327 c 1
 219 393 l 1
 274 443 338 466 397 466 c 0
 517 466 590 369 565 230 c 0
368 625 m 1
 279 417 l 1
 158 327 l 1
 315 700 l 1
 645 700 l 1
 632 625 l 1
 368 625 l 1
EndSplineSet
Substitution2: "Tabular Numbers lookup" uniFF15
EndChar

StartChar: six
Encoding: 54 54 75
GlifName: six
Width: 576
VWidth: 0
Flags: HMW
LayerCount: 2
Fore
SplineSet
172 230 m 4
 155 134 210 67 300 67 c 4
 390 67 469 134 486 230 c 4
 503 326 448 395 358 395 c 4
 268 395 189 326 172 230 c 4
453 700 m 5
 560 700 l 5
 290 411 l 5
 285 416 l 5
 318 449 355 457 400 457 c 4
 514 457 590 359 567 230 c 4
 542 86 421 -10 286 -10 c 4
 151 -10 66 86 91 230 c 4
 101 287 126 338 160 375 c 6
 453 700 l 5
EndSplineSet
Substitution2: "Tabular Numbers lookup" uniFF16
EndChar

StartChar: seven
Encoding: 55 55 76
GlifName: seven
Width: 525
VWidth: 0
Flags: HMW
LayerCount: 2
Fore
SplineSet
139 620 m 1
 153 700 l 5
 643 700 l 5
 185 0 l 1
 96 0 l 1
 502 620 l 1
 139 620 l 1
EndSplineSet
Substitution2: "Tabular Numbers lookup" uniFF17
EndChar

StartChar: plus
Encoding: 43 43 77
GlifName: plus
Width: 615
VWidth: 0
Flags: HMW
LayerCount: 2
Fore
SplineSet
103 215 m 1
 117 295 l 1
 602 295 l 1
 588 215 l 1
 103 215 l 1
353 500 m 5
 438 500 l 5
 352 10 l 5
 267 10 l 5
 353 500 l 5
EndSplineSet
EndChar

StartChar: equal
Encoding: 61 61 78
GlifName: equal
Width: 615
VWidth: 0
Flags: HMW
LayerCount: 2
Fore
SplineSet
90 140 m 5
 103 215 l 5
 588 215 l 5
 575 140 l 5
 90 140 l 5
116 290 m 5
 129 365 l 5
 614 365 l 5
 601 290 l 5
 116 290 l 5
EndSplineSet
EndChar

StartChar: percent
Encoding: 37 37 79
GlifName: percent
Width: 751
VWidth: 0
Flags: HMW
LayerCount: 2
Fore
SplineSet
132 550 m 4
 148 639 223 710 318 710 c 4
 413 710 464 639 448 550 c 4
 432 461 357 390 262 390 c 4
 167 390 116 461 132 550 c 4
203 550 m 4
 194 499 218 455 273 455 c 4
 328 455 368 499 377 550 c 4
 386 601 362 645 307 645 c 4
 252 645 212 601 203 550 c 4
426 150 m 4
 442 239 518 310 613 310 c 4
 708 310 758 239 742 150 c 4
 726 61 651 -10 556 -10 c 4
 461 -10 410 61 426 150 c 4
497 150 m 4
 488 99 513 55 568 55 c 4
 623 55 662 99 671 150 c 4
 680 201 656 245 601 245 c 4
 546 245 506 201 497 150 c 4
686 700 m 5
 761 700 l 5
 188 0 l 5
 113 0 l 5
 686 700 l 5
EndSplineSet
EndChar

StartChar: ampersand
Encoding: 38 38 80
GlifName: ampersand
Width: 675
VWidth: 0
Flags: HMW
LayerCount: 2
Fore
SplineSet
72 183 m 1
 158 188 l 1
 145 112 201 64 281 64 c 0
 408 64 540 186 658 316 c 1
 713 277 l 1
 582 137 442 -10 263 -10 c 0
 148 -10 51 64 72 183 c 1
215 556 m 1
 232 650 313 711 413 711 c 0
 518 711 569 638 554 554 c 1
 473 554 l 1
 482 605 456 640 401 640 c 0
 346 640 308 607 299 556 c 1
 215 556 l 1
291 384 m 2
 265 422 201 479 215 556 c 1
 299 556 l 1
 291 510 328 471 360 425 c 2
 655 0 l 1
 559 0 l 1
 291 384 l 2
554 554 m 1
 542 487 477 425 374 370 c 0
 293 327 176 288 158 188 c 1
 72 183 l 1
 98 330 253 379 328 417 c 0
 410 459 465 508 473 554 c 1
 554 554 l 1
EndSplineSet
EndChar

StartChar: question
Encoding: 63 63 81
GlifName: question
Width: 557
VWidth: 0
Flags: HMW
LayerCount: 2
Fore
SplineSet
202 40 m 0
 207 70 237 95 267 95 c 0
 297 95 317 70 312 40 c 0
 307 10 277 -15 247 -15 c 0
 217 -15 197 10 202 40 c 0
259 345 m 1
 349 345 l 1
 308 170 l 1
 248 170 l 1
 259 345 l 1
504 500 m 0
 519 586 471 635 381 635 c 0
 314 635 262 602 222 552 c 1
 165 593 l 1
 223 663 285 710 404 710 c 0
 529 710 606 619 585 500 c 0
 564 381 440 290 325 290 c 1
 285 345 l 1
 405 345 491 424 504 500 c 0
EndSplineSet
EndChar

StartChar: parenleft
Encoding: 40 40 82
GlifName: parenleft
Width: 310
VWidth: 0
Flags: HMW
LayerCount: 2
Fore
SplineSet
343 780 m 5
 418 780 l 5
 322 630 261 460 231 290 c 4
 201 120 201 -50 245 -200 c 5
 170 -200 l 5
 116 -50 111 120 141 290 c 4
 171 460 237 630 343 780 c 5
EndSplineSet
EndChar

StartChar: parenright
Encoding: 41 41 83
GlifName: parenright
Width: 310
VWidth: 0
Flags: HMW
LayerCount: 2
Fore
SplineSet
70 -200 m 5
 -5 -200 l 5
 91 -50 151 120 181 290 c 4
 211 460 212 630 168 780 c 5
 243 780 l 5
 297 630 301 460 271 290 c 4
 241 120 176 -50 70 -200 c 5
EndSplineSet
EndChar

StartChar: asterisk
Encoding: 42 42 84
GlifName: asterisk
Width: 592
VWidth: 0
Flags: HMW
LayerCount: 2
Fore
SplineSet
577 599 m 1
 586 532 l 1
 389 481 l 1
 381 529 l 1
 577 599 l 1
504 368 m 1
 440 327 l 1
 362 490 l 1
 408 520 l 1
 504 368 l 1
268 327 m 1
 218 368 l 1
 368 520 l 1
 402 490 l 1
 268 327 l 1
194 532 m 1
 227 599 l 1
 397 529 l 1
 373 481 l 1
 194 532 l 1
384 700 m 1
 454 700 l 1
 410 505 l 1
 360 505 l 1
 384 700 l 1
EndSplineSet
EndChar

StartChar: less
Encoding: 60 60 85
GlifName: less
Width: 640
VWidth: 0
Flags: HMW
LayerCount: 2
Fore
SplineSet
243 262 m 1
 592 95 l 1
 578 15 l 1
 106 235 l 1
 114 280 l 5
 663 500 l 5
 649 420 l 1
 243 262 l 1
EndSplineSet
EndChar

StartChar: greater
Encoding: 62 62 86
GlifName: greater
Width: 640
VWidth: 0
Flags: HMW
LayerCount: 2
Fore
SplineSet
488 253 m 1
 139 420 l 1
 153 500 l 1
 624 280 l 1
 616 235 l 5
 68 15 l 5
 82 95 l 1
 488 253 l 1
EndSplineSet
EndChar

StartChar: bracketleft
Encoding: 91 91 87
GlifName: bracketleft
Width: 300
VWidth: 0
Flags: HMW
LayerCount: 2
Fore
SplineSet
303 705 m 5
 153 -145 l 5
 254 -145 l 5
 241 -220 l 5
 61 -220 l 5
 238 780 l 5
 418 780 l 5
 404 705 l 5
 303 705 l 5
EndSplineSet
EndChar

StartChar: bracketright
Encoding: 93 93 88
GlifName: bracketright
Width: 300
Flags: HMW
LayerCount: 2
Fore
SplineSet
95 -145 m 5
 245 705 l 5
 144 705 l 5
 158 780 l 5
 338 780 l 5
 161 -220 l 5
 -19 -220 l 5
 -6 -145 l 5
 95 -145 l 5
EndSplineSet
EndChar

StartChar: asciicircum
Encoding: 94 94 89
GlifName: asciicircum
Width: 510
VWidth: 0
Flags: HMW
LayerCount: 2
Fore
SplineSet
364 621 m 1
 226 460 l 1
 146 460 l 1
 360 710 l 1
 400 710 l 1
 526 460 l 1
 446 460 l 1
 364 621 l 1
EndSplineSet
EndChar

StartChar: underscore
Encoding: 95 95 90
GlifName: underscore
Width: 500
Flags: HMW
LayerCount: 2
Fore
SplineSet
-23 -133 m 5
 -14 -78 l 5
 486 -78 l 5
 477 -133 l 5
 -23 -133 l 5
EndSplineSet
EndChar

StartChar: grave
Encoding: 96 96 91
GlifName: grave
Width: 375
VWidth: 0
Flags: HMW
LayerCount: 2
Fore
SplineSet
191 660 m 5
 273 700 l 5
 395 540 l 5
 345 510 l 5
 191 660 l 5
EndSplineSet
EndChar

StartChar: braceleft
Encoding: 123 123 92
GlifName: braceleft
Width: 311
VWidth: 0
Flags: HMW
LayerCount: 2
Fore
SplineSet
294 660 m 2
 264 490 l 2
 248 401 223 280 114 280 c 1
 118 300 l 1
 227 300 210 179 194 90 c 2
 164 -80 l 2
 159 -106 173 -130 203 -130 c 2
 238 -130 l 1
 226 -200 l 1
 166 -200 l 2
 122 -200 70 -159 87 -60 c 2
 124 150 l 2
 137 226 124 250 96 260 c 1
 106 320 l 1
 138 330 161 354 174 430 c 2
 211 640 l 2
 228 739 295 780 339 780 c 2
 399 780 l 1
 386 710 l 1
 351 710 l 2
 321 710 299 686 294 660 c 2
EndSplineSet
EndChar

StartChar: braceright
Encoding: 125 125 93
GlifName: braceright
Width: 311
VWidth: 0
Flags: HMW
LayerCount: 2
Fore
SplineSet
128 -80 m 2
 158 90 l 2
 174 179 199 300 308 300 c 1
 304 280 l 1
 195 280 212 401 228 490 c 2
 258 660 l 2
 263 686 249 710 219 710 c 2
 184 710 l 1
 197 780 l 1
 257 780 l 2
 301 780 352 739 335 640 c 2
 298 430 l 2
 285 354 298 330 326 320 c 1
 316 260 l 1
 284 250 261 226 248 150 c 2
 211 -60 l 2
 194 -159 128 -200 84 -200 c 2
 24 -200 l 1
 36 -130 l 1
 71 -130 l 2
 101 -130 123 -106 128 -80 c 2
EndSplineSet
EndChar

StartChar: asciitilde
Encoding: 126 126 94
GlifName: asciitilde
Width: 575
VWidth: 0
Flags: HMW
LayerCount: 2
Fore
SplineSet
173 176 m 1
 100 181 l 1
 99 188 99 196 101 205 c 0
 105 226 115 251 137 275 c 0
 169 310 210 327 252 327 c 0
 291 327 330 311 366 279 c 0
 392 256 416 247 434 247 c 0
 463 247 478 264 484 296 c 0
 485 304 486 313 484 323 c 1
 562 318 l 1
 563 310 563 300 561 290 c 0
 557 270 548 242 527 219 c 0
 495 185 460 172 424 172 c 0
 390 172 355 188 318 220 c 0
 292 243 263 253 238 253 c 0
 202 253 179 233 173 198 c 0
 172 191 171 184 173 176 c 1
EndSplineSet
EndChar

StartChar: exclamdown
Encoding: 161 161 95
GlifName: exclamdown
Width: 300
VWidth: 0
Flags: HMW
LayerCount: 2
Fore
SplineSet
157 -245 m 1
 57 -245 l 1
 165 255 l 1
 225 255 l 1
 157 -245 l 1
278 415 m 0
 273 385 243 360 213 360 c 0
 183 360 163 385 168 415 c 0
 173 445 203 470 233 470 c 0
 263 470 283 445 278 415 c 0
EndSplineSet
EndChar

StartChar: cent
Encoding: 162 162 96
GlifName: cent
Width: 580
VWidth: 0
Flags: HMW
LayerCount: 2
Fore
SplineSet
287 38 m 5
 351 38 l 5
 324 -112 l 5
 260 -112 l 5
 287 38 l 5
203 230 m 4
 186 134 240 65 330 65 c 4
 404 65 476 104 505 149 c 5
 488 49 l 5
 449 11 380 -10 317 -10 c 4
 182 -10 97 91 122 230 c 4
 147 369 267 470 402 470 c 4
 465 470 526 448 551 411 c 5
 534 311 l 5
 521 356 463 395 389 395 c 4
 299 395 220 326 203 230 c 4
382 578 m 5
 446 578 l 5
 419 428 l 5
 355 428 l 5
 382 578 l 5
EndSplineSet
EndChar

StartChar: sterling
Encoding: 163 163 97
GlifName: sterling
Width: 580
VWidth: 0
Flags: HMW
LayerCount: 2
Fore
SplineSet
132 370 m 1
 492 370 l 1
 479 295 l 1
 119 295 l 1
 132 370 l 1
534 479 m 1
 543 552 517 626 431 626 c 0
 371 626 308 596 295 520 c 0
 275 404 365 376 345 264 c 0
 326 158 239 70 161 50 c 1
 168 80 l 5
 531 80 l 1
 517 0 l 1
 64 0 l 1
 180 102 245 161 261 249 c 0
 278 343 183 382 207 518 c 0
 228 637 327 710 446 710 c 0
 579 710 620 588 611 508 c 1
 534 479 l 1
EndSplineSet
EndChar

StartChar: currency
Encoding: 164 164 98
GlifName: currency
Width: 580
VWidth: 0
Flags: HMW
LayerCount: 2
Fore
SplineSet
126 503 m 1
 185 553 l 1
 261 459 l 1
 203 410 l 1
 126 503 l 1
95 47 m 1
 54 97 l 1
 165 190 l 1
 205 141 l 1
 95 47 l 1
521 410 m 1
 480 459 l 1
 591 553 l 1
 631 503 l 1
 521 410 l 1
424 141 m 1
 483 190 l 1
 559 97 l 1
 501 47 l 1
 424 141 l 1
105 300 m 0
 130 439 250 540 385 540 c 0
 520 540 606 439 581 300 c 0
 556 161 436 60 301 60 c 0
 166 60 80 161 105 300 c 0
186 300 m 0
 169 204 224 135 314 135 c 0
 404 135 483 204 500 300 c 0
 517 396 462 465 372 465 c 0
 282 465 203 396 186 300 c 0
EndSplineSet
EndChar

StartChar: yen
Encoding: 165 165 99
GlifName: yen
Width: 580
VWidth: 0
Flags: HMW
LayerCount: 2
Fore
SplineSet
311 360 m 5
 397 360 l 5
 334 0 l 5
 248 0 l 5
 311 360 l 5
595 700 m 5
 689 700 l 5
 330 229 l 5
 139 700 l 5
 233 700 l 5
 356 376 l 5
 595 700 l 5
70 140 m 5
 83 215 l 5
 568 215 l 5
 555 140 l 5
 70 140 l 5
96 290 m 5
 109 365 l 5
 594 365 l 5
 581 290 l 5
 96 290 l 5
EndSplineSet
EndChar

StartChar: brokenbar
Encoding: 166 166 100
GlifName: brokenbar
Width: 274
VWidth: 0
Flags: HMW
LayerCount: 2
Fore
SplineSet
223 695 m 1
 297 695 l 1
 254 455 l 1
 180 455 l 1
 223 695 l 1
217 245 m 5
 175 5 l 1
 101 5 l 1
 143 245 l 5
 217 245 l 5
EndSplineSet
EndChar

StartChar: section
Encoding: 167 167 101
GlifName: section
Width: 408
VWidth: 0
Flags: HMW
LayerCount: 2
Fore
SplineSet
412 579 m 1
 399 617 358 634 321 634 c 0
 281 634 248 620 243 589 c 0
 237 553 293 527 340 506 c 0
 400 479 455 437 443 370 c 0
 426 271 351 240 252 240 c 1
 258 275 l 1
 308 275 352 323 359 363 c 0
 368 413 320 434 271 455 c 0
 212 480 149 512 163 589 c 0
 176 665 259 710 333 710 c 0
 406 710 474 671 483 620 c 1
 412 579 l 1
124 161 m 1
 126 105 169 65 226 65 c 0
 276 65 310 83 317 123 c 0
 326 173 278 194 229 215 c 0
 170 240 108 282 122 359 c 0
 135 435 199 480 313 480 c 1
 308 454 l 1
 244 434 211 410 204 369 c 0
 192 303 251 287 298 266 c 0
 358 239 413 197 401 130 c 0
 384 31 307 -10 208 -10 c 0
 123 -10 53 48 52 123 c 1
 124 161 l 1
EndSplineSet
EndChar

StartChar: dieresis
Encoding: 168 168 102
GlifName: dieresis
Width: 470
VWidth: 0
Flags: HMW
LayerCount: 2
Fore
SplineSet
396 660 m 4
 401 690 431 715 461 715 c 4
 491 715 511 690 506 660 c 4
 501 630 472 605 442 605 c 4
 412 605 391 630 396 660 c 4
196 660 m 4
 201 690 231 715 261 715 c 4
 291 715 311 690 306 660 c 4
 301 630 272 605 242 605 c 4
 212 605 191 630 196 660 c 4
EndSplineSet
EndChar

StartChar: copyright
Encoding: 169 169 103
GlifName: copyright
Width: 800
VWidth: 0
Flags: HMW
LayerCount: 2
Fore
SplineSet
301 350 m 0
 284 252 339 185 428 185 c 0
 487 185 538 210 574 247 c 1
 562 180 l 1
 522 149 480 134 419 134 c 0
 303 134 225 225 247 350 c 0
 269 475 379 566 495 566 c 0
 556 566 592 551 622 520 c 1
 610 453 l 1
 588 490 545 515 486 515 c 0
 397 515 318 448 301 350 c 0
157 350 m 0
 126 172 234 40 407 40 c 0
 580 40 736 172 767 350 c 0
 798 528 689 660 516 660 c 0
 343 660 188 528 157 350 c 0
102 350 m 0
 139 559 321 710 525 710 c 0
 729 710 859 559 822 350 c 0
 785 141 602 -10 398 -10 c 0
 194 -10 65 141 102 350 c 0
EndSplineSet
EndChar

StartChar: registered
Encoding: 174 174 104
GlifName: registered
Width: 800
VWidth: 0
Flags: HMW
LayerCount: 2
Fore
SplineSet
412 357 m 1
 469 357 l 1
 582 150 l 1
 519 150 l 1
 412 357 l 1
375 570 m 1
 426 570 l 1
 351 150 l 1
 300 150 l 1
 375 570 l 1
395 525 m 1
 403 570 l 1
 489 570 l 2
 570 570 623 521 609 444 c 0
 595 367 525 318 444 318 c 2
 358 318 l 1
 366 363 l 1
 452 363 l 2
 506 363 549 392 558 444 c 0
 567 496 535 525 481 525 c 2
 395 525 l 1
157 350 m 0
 126 172 234 40 407 40 c 0
 580 40 736 172 767 350 c 0
 798 528 689 660 516 660 c 0
 343 660 188 528 157 350 c 0
102 350 m 0
 139 559 321 710 525 710 c 0
 729 710 859 559 822 350 c 0
 785 141 602 -10 398 -10 c 0
 194 -10 65 141 102 350 c 0
EndSplineSet
EndChar

StartChar: ordfeminine
Encoding: 170 170 105
GlifName: ordfeminine
Width: 238
VWidth: 0
Flags: HMW
LayerCount: 2
Fore
SplineSet
155 532 m 4
 151 510 160 491 197 491 c 0
 232 491 267 507 275 550 c 1
 279 525 l 1
 271 481 228 455 180 455 c 0
 138 455 105 483 114 532 c 4
 122 580 176 613 226 613 c 0
 270 613 291 591 297 583 c 1
 293 559 l 1
 274 575 252 583 223 583 c 0
 187 583 160 560 155 532 c 4
175 646 m 1
 161 677 l 1
 180 689 212 705 254 705 c 0
 306 705 338 679 330 635 c 2
 299 460 l 1
 259 460 l 1
 290 635 l 2
 294 658 273 670 248 670 c 0
 215 670 187 654 175 646 c 1
EndSplineSet
EndChar

StartChar: ordmasculine
Encoding: 186 186 106
GlifName: ordmasculine
Width: 278
VWidth: 0
Flags: HMW
LayerCount: 2
Fore
SplineSet
122 580 m 0
 134 650 194 700 262 700 c 0
 330 700 372 650 360 580 c 0
 348 510 288 460 220 460 c 0
 152 460 110 510 122 580 c 0
162 580 m 0
 154 532 182 498 227 498 c 0
 272 498 312 532 320 580 c 0
 328 628 301 662 256 662 c 0
 211 662 170 628 162 580 c 0
EndSplineSet
EndChar

StartChar: guillemotleft
Encoding: 171 171 107
GlifName: guillemotleft
Width: 510
VWidth: 0
Flags: HMW
LayerCount: 2
Fore
SplineSet
151 235 m 5
 85 255 l 5
 316 490 l 5
 358 445 l 5
 151 235 l 5
85 255 m 5
 160 285 l 5
 291 65 l 5
 234 20 l 5
 85 255 l 5
311 235 m 5
 245 255 l 5
 476 490 l 5
 518 445 l 5
 311 235 l 5
245 255 m 5
 320 285 l 5
 451 65 l 5
 394 20 l 5
 245 255 l 5
EndSplineSet
EndChar

StartChar: guillemotright
Encoding: 187 187 108
GlifName: guillemotright
Width: 510
VWidth: 0
Flags: HMW
LayerCount: 2
Fore
SplineSet
448 275 m 5
 515 255 l 5
 284 20 l 5
 241 65 l 5
 448 275 l 5
515 255 m 5
 440 225 l 5
 308 445 l 5
 366 490 l 5
 515 255 l 5
288 275 m 5
 355 255 l 5
 124 20 l 5
 81 65 l 5
 288 275 l 5
355 255 m 5
 280 225 l 5
 148 445 l 5
 206 490 l 5
 355 255 l 5
EndSplineSet
EndChar

StartChar: uni00AD
Encoding: 173 173 109
GlifName: uni00A_D_
Width: 210
VWidth: 0
Flags: HMW
LayerCount: 2
Fore
SplineSet
40 200 m 5
 53 275 l 5
 253 275 l 5
 240 200 l 5
 40 200 l 5
EndSplineSet
EndChar

StartChar: logicalnot
Encoding: 172 172 110
GlifName: logicalnot
Width: 620
VWidth: 0
Flags: HMW
LayerCount: 2
Fore
SplineSet
118 300 m 5
 131 375 l 5
 621 375 l 5
 608 300 l 5
 118 300 l 5
546 375 m 5
 621 375 l 1
 586 175 l 1
 511 175 l 5
 546 375 l 5
EndSplineSet
EndChar

StartChar: macron
Encoding: 175 175 111
GlifName: macron
Width: 510
VWidth: 0
Flags: HMW
LayerCount: 2
Fore
SplineSet
186 600 m 5
 199 675 l 5
 549 675 l 5
 536 600 l 5
 186 600 l 5
EndSplineSet
EndChar

StartChar: degree
Encoding: 176 176 112
GlifName: degree
Width: 278
VWidth: 0
Flags: HMW
LayerCount: 2
Fore
SplineSet
126 600 m 0
 138 670 198 720 266 720 c 0
 334 720 376 670 364 600 c 0
 352 530 292 480 224 480 c 0
 156 480 114 530 126 600 c 0
166 600 m 0
 158 552 185 518 230 518 c 0
 275 518 316 552 324 600 c 0
 332 648 304 682 259 682 c 0
 214 682 174 648 166 600 c 0
EndSplineSet
EndChar

StartChar: plusminus
Encoding: 177 177 113
GlifName: plusminus
Width: 615
VWidth: 0
Flags: HMW
LayerCount: 2
Fore
SplineSet
65 0 m 1
 79 80 l 1
 564 80 l 1
 550 0 l 1
 65 0 l 1
126 345 m 5
 140 425 l 5
 625 425 l 5
 611 345 l 5
 126 345 l 5
374 620 m 5
 459 620 l 5
 376 150 l 5
 291 150 l 5
 374 620 l 5
EndSplineSet
EndChar

StartChar: uni00B2
Encoding: 178 178 114
GlifName: uni00B_2
Width: 346
VWidth: 0
Flags: HMW
LayerCount: 2
Fore
SplineSet
75 282 m 1
 310 494 l 2
 343 523 364 552 370 586 c 0
 377 623 359 661 308 661 c 0
 254 661 209 622 198 558 c 1
 147 558 l 1
 163 647 229 709 316 709 c 0
 408 709 432 638 422 582 c 4
 414 539 384 500 345 466 c 2
 188 330 l 1
 379 330 l 1
 371 282 l 1
 75 282 l 1
EndSplineSet
EndChar

StartChar: uni00B3
Encoding: 179 179 115
GlifName: uni00B_3
Width: 312
VWidth: 0
Flags: HMW
LayerCount: 2
Fore
SplineSet
227 487 m 1
 233 520 l 1
 287 520 324 553 331 593 c 0
 338 633 320 660 278 660 c 0
 239 660 204 633 197 596 c 1
 148 596 l 1
 159 661 217 706 286 706 c 0
 358 706 393 653 383 594 c 0
 373 535 308 487 227 487 c 1
207 274 m 4
 126 274 83 326 94 391 c 1
 146 391 l 1
 139 351 168 322 216 322 c 4
 264 322 300 351 308 397 c 0
 317 449 279 475 225 475 c 1
 231 508 l 1
 312 508 374 474 359 391 c 0
 346 320 282 274 207 274 c 4
EndSplineSet
EndChar

StartChar: acute
Encoding: 180 180 116
GlifName: acute
Width: 375
VWidth: 0
Flags: HMW
LayerCount: 2
Fore
SplineSet
416 660 m 5
 210 510 l 5
 170 540 l 5
 348 700 l 5
 416 660 l 5
EndSplineSet
EndChar

StartChar: mu
Encoding: 181 181 117
GlifName: mu
Width: 525
VWidth: 0
Flags: HMW
LayerCount: 2
Fore
SplineSet
370 0 m 5
 451 460 l 5
 531 460 l 5
 450 0 l 5
 370 0 l 5
187 180 m 6
 174 104 199 65 264 65 c 4
 334 65 390 114 402 180 c 5
 438 180 l 5
 419 71 326 -10 231 -10 c 4
 136 -10 84 51 105 170 c 6
 156 460 l 5
 236 460 l 5
 187 180 l 6
156 460 m 5
 236 460 l 5
 99 -320 l 5
 19 -320 l 5
 156 460 l 5
EndSplineSet
EndChar

StartChar: paragraph
Encoding: 182 182 118
GlifName: paragraph
Width: 578
VWidth: 0
Flags: HMW
LayerCount: 2
Fore
SplineSet
400 635 m 1
 411 700 l 1
 611 700 l 1
 600 635 l 1
 400 635 l 1
571 700 m 1
 641 700 l 1
 479 -220 l 5
 409 -220 l 5
 571 700 l 1
411 700 m 1
 481 700 l 1
 319 -220 l 5
 249 -220 l 5
 411 700 l 1
336 270 m 1
 211 270 121 346 146 485 c 0
 171 624 286 700 411 700 c 1
 336 270 l 1
EndSplineSet
EndChar

StartChar: periodcentered
Encoding: 183 183 119
GlifName: periodcentered
Width: 300
VWidth: 0
Flags: HMW
LayerCount: 2
Fore
SplineSet
137 240 m 4
 142 270 172 295 202 295 c 4
 232 295 252 270 247 240 c 4
 242 210 213 185 183 185 c 4
 153 185 132 210 137 240 c 4
EndSplineSet
EndChar

StartChar: uni00B9
Encoding: 185 185 120
GlifName: uni00B_9
Width: 470
VWidth: 0
Flags: HMW
LayerCount: 2
Fore
SplineSet
260 611 m 1
 269 664 l 1
 419 700 l 1
 344 274 l 1
 293 274 l 1
 358 639 l 1
 260 611 l 1
EndSplineSet
EndChar

StartChar: cedilla
Encoding: 184 184 121
GlifName: cedilla
Width: 350
Flags: HMW
LayerCount: 2
Fore
SplineSet
207 60 m 5
 268 60 l 5
 182 -54 l 1
 92 -108 l 1
 207 60 l 5
253 -126 m 1
 196 -126 l 1
 200 -102 186 -90 152 -90 c 0
 142 -90 118 -92 92 -108 c 1
 139 -68 l 1
 168 -52 180 -52 193 -52 c 0
 226 -52 262 -77 253 -126 c 1
253 -126 m 1
 242 -187 184 -220 129 -220 c 0
 92 -220 70 -210 47 -182 c 1
 87 -142 l 1
 103 -158 113 -166 139 -166 c 0
 173 -166 192 -150 196 -126 c 1
 253 -126 l 1
EndSplineSet
EndChar

StartChar: questiondown
Encoding: 191 191 122
GlifName: questiondown
Width: 557
VWidth: 0
Flags: HMW
LayerCount: 2
Fore
SplineSet
478 660 m 0
 473 630 444 605 414 605 c 0
 384 605 363 630 368 660 c 0
 373 690 403 715 433 715 c 0
 463 715 483 690 478 660 c 0
422 355 m 1
 332 355 l 1
 372 530 l 1
 432 530 l 1
 422 355 l 1
176 200 m 0
 161 114 209 65 299 65 c 0
 366 65 418 98 458 148 c 1
 516 107 l 1
 458 37 395 -10 276 -10 c 0
 151 -10 74 81 95 200 c 0
 116 319 240 410 355 410 c 1
 396 355 l 1
 276 355 189 276 176 200 c 0
EndSplineSet
EndChar

StartChar: multiply
Encoding: 215 215 123
GlifName: multiply
Width: 596
VWidth: 0
Flags: HMW
LayerCount: 2
Fore
SplineSet
125 22 m 1
 79 78 l 1
 292 255 l 1
 141 432 l 1
 207 488 l 1
 352 306 l 1
 561 488 l 1
 607 432 l 1
 394 255 l 1
 545 78 l 1
 479 22 l 1
 334 204 l 1
 125 22 l 1
EndSplineSet
EndChar

StartChar: Oslash
Encoding: 216 216 124
GlifName: O_slash
Width: 790
VWidth: 0
Flags: HMW
LayerCount: 2
Fore
SplineSet
192 350 m 4
 164 192 255 75 408 75 c 4
 561 75 694 192 722 350 c 4
 750 508 658 625 505 625 c 4
 352 625 220 508 192 350 c 4
102 350 m 4
 138 554 316 710 520 710 c 4
 724 710 848 554 812 350 c 4
 776 146 597 -10 393 -10 c 4
 189 -10 66 146 102 350 c 4
820 750 m 5
 872 710 l 5
 89 -50 l 5
 38 -10 l 5
 820 750 l 5
EndSplineSet
EndChar

StartChar: Thorn
Encoding: 222 222 125
GlifName: T_horn
Width: 550
VWidth: 0
Flags: HMW
LayerCount: 2
Fore
SplineSet
295 140 m 5
 309 220 l 5
 399 220 470 264 485 350 c 4
 500 436 445 480 355 480 c 5
 369 560 l 5
 504 560 593 479 570 350 c 4
 547 221 430 140 295 140 c 5
152 140 m 5
 166 220 l 5
 309 220 l 5
 295 140 l 5
 152 140 l 5
212 480 m 5
 226 560 l 5
 369 560 l 5
 355 480 l 5
 212 480 l 5
203 700 m 1
 288 700 l 1
 165 0 l 1
 80 0 l 1
 203 700 l 1
EndSplineSet
EndChar

StartChar: divide
Encoding: 247 247 126
GlifName: divide
Width: 623
Flags: HMW
LayerCount: 2
Fore
SplineSet
334 450 m 4
 339 480 369 505 399 505 c 4
 429 505 449 480 444 450 c 4
 439 420 410 395 380 395 c 4
 350 395 329 420 334 450 c 4
267 70 m 0
 272 100 302 125 332 125 c 0
 362 125 382 100 377 70 c 0
 372 40 343 15 313 15 c 0
 283 15 262 40 267 70 c 0
100 225 m 1
 114 305 l 1
 614 305 l 1
 600 225 l 1
 100 225 l 1
EndSplineSet
EndChar

StartChar: oslash
Encoding: 248 248 127
GlifName: oslash
Width: 546
VWidth: 0
Flags: HMW
LayerCount: 2
Fore
SplineSet
76 230 m 0
 101 369 221 470 356 470 c 0
 491 470 577 369 552 230 c 0
 527 91 406 -10 271 -10 c 0
 136 -10 51 91 76 230 c 0
157 230 m 0
 140 134 194 65 284 65 c 0
 374 65 454 134 471 230 c 0
 488 326 433 395 343 395 c 0
 253 395 174 326 157 230 c 0
528 500 m 5
 570 480 l 5
 87 -44 l 1
 46 -24 l 1
 528 500 l 5
EndSplineSet
EndChar

StartChar: circumflex
Encoding: 710 710 128
GlifName: circumflex
Width: 480
VWidth: 0
Flags: HMW
LayerCount: 2
Fore
SplineSet
354 645 m 5
 227 550 l 5
 184 590 l 5
 369 730 l 5
 504 590 l 5
 447 550 l 5
 354 645 l 5
EndSplineSet
EndChar

StartChar: ogonek
Encoding: 731 731 129
GlifName: ogonek
Width: 260
VWidth: 0
Flags: HMW
LayerCount: 2
Fore
SplineSet
171 -130 m 1
 195 -180 l 1
 176 -200 143 -220 100 -220 c 0
 16 -220 -15 -179 -5 -120 c 1
 78 -100 l 5
 72 -136 88 -150 118 -150 c 4
 144 -150 155 -143 171 -130 c 1
78 -100 m 1
 -5 -120 l 1
 5 -61 76 -11 152 25 c 1
 189 0 l 1
 133 -22 85 -63 78 -100 c 1
EndSplineSet
EndChar

StartChar: tilde
Encoding: 732 732 130
GlifName: tilde
Width: 530
VWidth: 0
Flags: HMW
LayerCount: 2
Fore
SplineSet
210 625 m 1
 229 674 284 707 329 707 c 4
 394 707 390 660 444 660 c 0
 463 660 483 676 509 708 c 1
 547 665 l 1
 524 628 478 592 428 592 c 0
 373 592 361 639 316 639 c 4
 275 639 260 603 257 588 c 1
 210 625 l 1
EndSplineSet
EndChar

StartChar: ring
Encoding: 730 730 131
GlifName: ring
Width: 278
VWidth: 0
Flags: HMW
LayerCount: 2
Fore
SplineSet
175 785 m 0
 186 845 243 885 295 885 c 0
 347 885 390 845 379 785 c 4
 368 725 312 685 260 685 c 0
 208 685 164 725 175 785 c 0
226 785 m 0
 220 752 243 732 268 732 c 0
 293 732 322 752 328 785 c 4
 334 818 312 838 287 838 c 0
 262 838 232 818 226 785 c 0
EndSplineSet
EndChar

StartChar: dotaccent
Encoding: 729 729 132
GlifName: dotaccent
Width: 300
VWidth: 0
Flags: HMW
LayerCount: 2
Fore
SplineSet
234 790 m 4
 239 820 269 845 299 845 c 4
 329 845 349 820 344 790 c 4
 339 760 310 735 280 735 c 4
 250 735 229 760 234 790 c 4
EndSplineSet
EndChar

StartChar: uni2010
Encoding: 8208 8208 133
GlifName: uni2010
Width: 210
VWidth: 0
Flags: HMW
LayerCount: 2
Fore
SplineSet
40 200 m 5
 53 275 l 5
 253 275 l 5
 240 200 l 5
 40 200 l 5
EndSplineSet
EndChar

StartChar: endash
Encoding: 8211 8211 134
GlifName: endash
Width: 740
VWidth: 0
Flags: HMW
LayerCount: 2
Fore
SplineSet
105 200 m 5
 118 275 l 5
 718 275 l 5
 705 200 l 5
 105 200 l 5
EndSplineSet
EndChar

StartChar: figuredash
Encoding: 8210 8210 135
GlifName: figuredash
Width: 590
VWidth: 0
Flags: HMW
LayerCount: 2
Fore
SplineSet
105 200 m 5
 118 275 l 5
 568 275 l 5
 555 200 l 5
 105 200 l 5
EndSplineSet
EndChar

StartChar: emdash
Encoding: 8212 8212 136
GlifName: emdash
Width: 890
VWidth: 0
Flags: HMW
LayerCount: 2
Fore
SplineSet
105 200 m 5
 118 275 l 5
 868 275 l 5
 855 200 l 5
 105 200 l 5
EndSplineSet
EndChar

StartChar: minus
Encoding: 8722 8722 137
GlifName: minus
Width: 590
VWidth: 0
Flags: HMW
LayerCount: 2
Fore
SplineSet
105 200 m 5
 118 275 l 5
 568 275 l 5
 555 200 l 5
 105 200 l 5
EndSplineSet
EndChar

StartChar: quoteright
Encoding: 8217 8217 138
GlifName: quoteright
Width: 275
VWidth: 0
Flags: HMW
LayerCount: 2
Fore
SplineSet
233 700 m 5
 328 700 l 5
 188 470 l 5
 133 470 l 5
 233 700 l 5
EndSplineSet
EndChar

StartChar: quoteleft
Encoding: 8216 8216 139
GlifName: quoteleft
Width: 275
VWidth: 0
Flags: HMW
LayerCount: 2
Fore
SplineSet
248 470 m 5
 153 470 l 5
 293 700 l 5
 348 700 l 5
 248 470 l 5
EndSplineSet
EndChar

StartChar: quotesinglbase
Encoding: 8218 8218 140
GlifName: quotesinglbase
Width: 275
VWidth: 0
Flags: HMW
LayerCount: 2
Fore
SplineSet
134 80 m 5
 229 80 l 5
 89 -150 l 5
 34 -150 l 5
 134 80 l 5
EndSplineSet
EndChar

StartChar: quotedblleft
Encoding: 8220 8220 141
GlifName: quotedblleft
Width: 475
VWidth: 0
Flags: HMW
LayerCount: 2
Fore
SplineSet
248 470 m 5
 153 470 l 5
 293 700 l 5
 348 700 l 5
 248 470 l 5
448 470 m 5
 353 470 l 5
 493 700 l 5
 548 700 l 5
 448 470 l 5
EndSplineSet
EndChar

StartChar: quotedblright
Encoding: 8221 8221 142
GlifName: quotedblright
Width: 475
VWidth: 0
Flags: HMW
LayerCount: 2
Fore
SplineSet
233 700 m 5
 328 700 l 5
 188 470 l 5
 133 470 l 5
 233 700 l 5
433 700 m 5
 528 700 l 5
 388 470 l 5
 333 470 l 5
 433 700 l 5
EndSplineSet
EndChar

StartChar: perthousand
Encoding: 8240 8240 143
GlifName: perthousand
Width: 1131
VWidth: 0
Flags: HMW
LayerCount: 2
Fore
SplineSet
806 150 m 4
 822 239 898 310 993 310 c 4
 1088 310 1138 239 1122 150 c 4
 1106 61 1031 -10 936 -10 c 4
 841 -10 790 61 806 150 c 4
877 150 m 4
 868 99 893 55 948 55 c 4
 1003 55 1042 99 1051 150 c 4
 1060 201 1036 245 981 245 c 4
 926 245 886 201 877 150 c 4
132 550 m 4
 148 639 223 710 318 710 c 4
 413 710 464 639 448 550 c 4
 432 461 357 390 262 390 c 4
 167 390 116 461 132 550 c 4
203 550 m 4
 194 499 218 455 273 455 c 4
 328 455 368 499 377 550 c 4
 386 601 362 645 307 645 c 4
 252 645 212 601 203 550 c 4
426 150 m 4
 442 239 518 310 613 310 c 4
 708 310 758 239 742 150 c 4
 726 61 651 -10 556 -10 c 4
 461 -10 410 61 426 150 c 4
497 150 m 4
 488 99 513 55 568 55 c 4
 623 55 662 99 671 150 c 4
 680 201 656 245 601 245 c 4
 546 245 506 201 497 150 c 4
686 700 m 5
 761 700 l 5
 188 0 l 5
 113 0 l 5
 686 700 l 5
EndSplineSet
EndChar

StartChar: guilsinglleft
Encoding: 8249 8249 144
GlifName: guilsinglleft
Width: 350
VWidth: 0
Flags: HMW
LayerCount: 2
Fore
SplineSet
151 235 m 5
 85 255 l 5
 316 490 l 5
 358 445 l 5
 151 235 l 5
85 255 m 5
 160 285 l 5
 291 65 l 5
 234 20 l 5
 85 255 l 5
EndSplineSet
EndChar

StartChar: guilsinglright
Encoding: 8250 8250 145
GlifName: guilsinglright
Width: 350
VWidth: 0
Flags: HMW
LayerCount: 2
Fore
SplineSet
288 275 m 5
 355 255 l 5
 124 20 l 5
 81 65 l 5
 288 275 l 5
355 255 m 5
 280 225 l 5
 148 445 l 5
 206 490 l 5
 355 255 l 5
EndSplineSet
EndChar

StartChar: uni2031
Encoding: 8241 8241 146
GlifName: uni2031
Width: 1511
VWidth: 0
Flags: HMW
LayerCount: 2
Fore
SplineSet
1186 150 m 0
 1202 239 1278 310 1373 310 c 0
 1468 310 1518 239 1502 150 c 0
 1486 61 1411 -10 1316 -10 c 0
 1221 -10 1170 61 1186 150 c 0
1257 150 m 0
 1248 99 1273 55 1328 55 c 0
 1383 55 1422 99 1431 150 c 0
 1440 201 1416 245 1361 245 c 0
 1306 245 1266 201 1257 150 c 0
806 150 m 0
 822 239 898 310 993 310 c 0
 1088 310 1138 239 1122 150 c 0
 1106 61 1031 -10 936 -10 c 0
 841 -10 790 61 806 150 c 0
877 150 m 0
 868 99 893 55 948 55 c 0
 1003 55 1042 99 1051 150 c 0
 1060 201 1036 245 981 245 c 0
 926 245 886 201 877 150 c 0
132 550 m 0
 148 639 223 710 318 710 c 0
 413 710 464 639 448 550 c 0
 432 461 357 390 262 390 c 0
 167 390 116 461 132 550 c 0
203 550 m 0
 194 499 218 455 273 455 c 0
 328 455 368 499 377 550 c 0
 386 601 362 645 307 645 c 0
 252 645 212 601 203 550 c 0
426 150 m 0
 442 239 518 310 613 310 c 0
 708 310 758 239 742 150 c 0
 726 61 651 -10 556 -10 c 0
 461 -10 410 61 426 150 c 0
497 150 m 0
 488 99 513 55 568 55 c 0
 623 55 662 99 671 150 c 0
 680 201 656 245 601 245 c 0
 546 245 506 201 497 150 c 0
686 700 m 5
 761 700 l 5
 188 0 l 5
 113 0 l 5
 686 700 l 5
EndSplineSet
EndChar

StartChar: uni203D
Encoding: 8253 8253 147
GlifName: uni203D_
Width: 557
VWidth: 0
Flags: HMW
LayerCount: 2
Fore
SplineSet
504 500 m 0
 519 586 471 635 381 635 c 0
 314 635 262 602 222 552 c 1
 165 593 l 1
 223 663 285 710 404 710 c 0
 529 710 606 619 585 500 c 0
 564 381 440 290 325 290 c 1
 285 345 l 1
 405 345 491 424 504 500 c 0
290 510 m 5
 390 510 l 5
 310 170 l 1
 250 170 l 1
 290 510 l 5
202 40 m 0
 207 70 237 95 267 95 c 0
 297 95 317 70 312 40 c 0
 307 10 277 -15 247 -15 c 0
 217 -15 197 10 202 40 c 0
EndSplineSet
EndChar

StartChar: Euro
Encoding: 8364 8364 148
GlifName: E_uro
Width: 580
VWidth: 0
Flags: HMW
LayerCount: 2
Fore
SplineSet
87 407 m 5
 95 455 l 5
 596 455 l 5
 588 407 l 5
 87 407 l 5
66 287 m 5
 74 335 l 5
 549 335 l 5
 541 287 l 5
 66 287 l 5
217 350 m 4
 188 187 254 70 382 70 c 4
 439 70 495 92 543 132 c 5
 525 31 l 5
 475 5 422 -10 368 -10 c 4
 194 -10 95 141 132 350 c 4
 169 559 321 710 495 710 c 4
 549 710 598 695 638 669 c 5
 620 568 l 5
 586 608 538 630 481 630 c 4
 353 630 246 513 217 350 c 4
EndSplineSet
EndChar

StartChar: fraction
Encoding: 8260 8260 149
GlifName: fraction
Width: 705
VWidth: 0
Flags: HMW
LayerCount: 2
Fore
SplineSet
703 700 m 1
 768 700 l 1
 125 0 l 5
 60 0 l 5
 703 700 l 1
EndSplineSet
EndChar

StartChar: onequarter
Encoding: 188 188 150
GlifName: onequarter
Width: 754
VWidth: 0
Flags: HMW
LayerCount: 2
Fore
SplineSet
741 700 m 1
 806 700 l 1
 163 0 l 5
 98 0 l 5
 741 700 l 1
138 611 m 1
 147 664 l 1
 297 700 l 1
 222 274 l 1
 171 274 l 1
 236 639 l 1
 138 611 l 1
413 84 m 1
 463 129 l 1
 645 129 l 0
 655 129 l 0
 741 129 l 1
 733 84 l 1
 413 84 l 1
467 84 m 1
 413 84 l 1
 705 420 l 25
 726 420 l 1
 652 0 l 1
 601 0 l 1
 620 106 l 0
 621 112 l 0
 655 307 l 1
 467 84 l 1
EndSplineSet
EndChar

StartChar: onehalf
Encoding: 189 189 151
GlifName: onehalf
Width: 819
VWidth: 0
Flags: HMW
LayerCount: 2
Fore
SplineSet
741 700 m 1
 806 700 l 1
 163 0 l 5
 98 0 l 5
 741 700 l 1
138 611 m 1
 147 664 l 1
 297 700 l 1
 222 274 l 1
 171 274 l 1
 236 639 l 1
 138 611 l 1
493 2 m 1
 729 214 l 2
 762 243 783 272 789 306 c 0
 796 343 777 381 726 381 c 0
 672 381 628 342 617 278 c 1
 566 278 l 1
 582 367 648 429 735 429 c 0
 827 429 850 358 840 302 c 4
 832 259 803 220 764 186 c 2
 607 50 l 1
 798 50 l 1
 789 2 l 1
 493 2 l 1
EndSplineSet
EndChar

StartChar: threequarters
Encoding: 190 190 152
GlifName: threequarters
Width: 820
VWidth: 0
Flags: HMW
LayerCount: 2
Fore
SplineSet
808 700 m 1
 873 700 l 1
 230 0 l 5
 165 0 l 5
 808 700 l 1
232 487 m 1
 238 520 l 1
 292 520 329 553 336 593 c 0
 343 633 325 660 283 660 c 0
 244 660 209 633 202 596 c 1
 153 596 l 1
 164 661 222 706 291 706 c 0
 363 706 398 653 388 594 c 0
 378 535 313 487 232 487 c 1
212 274 m 4
 131 274 88 326 99 391 c 1
 151 391 l 1
 144 351 173 322 221 322 c 4
 269 322 305 351 313 397 c 0
 322 449 284 475 230 475 c 1
 236 508 l 1
 317 508 379 474 364 391 c 0
 351 320 287 274 212 274 c 4
480 84 m 1
 530 129 l 1
 712 129 l 0
 722 129 l 0
 808 129 l 1
 800 84 l 1
 480 84 l 1
534 84 m 1
 480 84 l 1
 772 420 l 25
 793 420 l 1
 719 0 l 1
 668 0 l 1
 687 106 l 0
 688 112 l 0
 722 307 l 1
 534 84 l 1
EndSplineSet
EndChar

StartChar: uni2150
Encoding: 8528 8528 153
GlifName: uni2150
Width: 842
VWidth: 0
Flags: HMW
LayerCount: 2
Fore
SplineSet
691 700 m 1
 756 700 l 1
 113 0 l 5
 48 0 l 5
 691 700 l 1
138 611 m 1
 147 664 l 1
 297 700 l 1
 222 274 l 1
 171 274 l 1
 236 639 l 1
 138 611 l 1
584 372 m 1
 592 420 l 5
 886 420 l 5
 611 0 l 1
 558 0 l 1
 802 372 l 1
 584 372 l 1
EndSplineSet
EndChar

StartChar: uni2151
Encoding: 8529 8529 154
GlifName: uni2151
Width: 784
VWidth: 0
Flags: HMW
LayerCount: 2
Fore
SplineSet
691 700 m 1
 756 700 l 1
 113 0 l 5
 48 0 l 5
 691 700 l 1
138 611 m 1
 147 664 l 1
 297 700 l 1
 222 274 l 1
 171 274 l 1
 236 639 l 1
 138 611 l 1
767 284 m 4
 777 342 744 382 690 382 c 4
 636 382 589 342 579 284 c 4
 569 226 602 185 656 185 c 4
 710 185 757 226 767 284 c 4
598 2 m 5
 533 2 l 5
 696 175 l 5
 698 172 l 5
 678 152 657 148 630 148 c 4
 562 148 516 207 530 284 c 4
 545 370 617 428 698 428 c 4
 779 428 831 370 816 284 c 4
 810 250 794 219 774 197 c 6
 598 2 l 5
EndSplineSet
EndChar

StartChar: uni2152
Encoding: 8530 8530 155
GlifName: uni2152
Width: 1080
VWidth: 0
Flags: HMW
LayerCount: 2
Fore
SplineSet
691 700 m 1
 756 700 l 1
 113 0 l 1
 48 0 l 1
 691 700 l 1
138 611 m 1
 147 664 l 1
 297 700 l 1
 222 274 l 1
 171 274 l 1
 236 639 l 1
 138 611 l 1
548 338 m 5
 557 391 l 5
 707 427 l 5
 632 1 l 5
 581 1 l 5
 646 366 l 5
 548 338 l 5
826 210 m 0
 809 112 836 42 901 42 c 0
 966 42 1019 112 1036 210 c 0
 1053 308 1026 378 961 378 c 0
 896 378 843 308 826 210 c 0
775 210 m 0
 797 335 877 426 969 426 c 0
 1061 426 1109 335 1087 210 c 0
 1065 85 985 -6 893 -6 c 0
 801 -6 753 85 775 210 c 0
EndSplineSet
EndChar

StartChar: onethird
Encoding: 8531 8531 156
GlifName: onethird
Width: 755
VWidth: 0
Flags: HMW
LayerCount: 2
Fore
SplineSet
691 700 m 1
 756 700 l 1
 113 0 l 5
 48 0 l 5
 691 700 l 1
138 611 m 1
 147 664 l 1
 297 700 l 1
 222 274 l 1
 171 274 l 1
 236 639 l 1
 138 611 l 1
616 207 m 1
 621 240 l 1
 675 240 712 273 719 313 c 0
 726 353 709 380 667 380 c 0
 628 380 593 353 586 316 c 1
 537 316 l 1
 548 381 606 426 675 426 c 0
 747 426 781 373 771 314 c 0
 761 255 697 207 616 207 c 1
596 -6 m 4
 515 -6 472 46 483 111 c 1
 535 111 l 1
 528 71 556 42 604 42 c 4
 652 42 689 71 697 117 c 0
 706 169 667 195 613 195 c 1
 619 228 l 1
 700 228 763 194 748 111 c 0
 735 40 671 -6 596 -6 c 4
EndSplineSet
EndChar

StartChar: twothirds
Encoding: 8532 8532 157
GlifName: twothirds
Width: 882
VWidth: 0
Flags: HMW
LayerCount: 2
Fore
SplineSet
818 700 m 1
 883 700 l 1
 240 0 l 5
 175 0 l 5
 818 700 l 1
80 282 m 1
 315 494 l 2
 348 523 369 552 375 586 c 0
 382 623 364 661 313 661 c 0
 259 661 214 622 203 558 c 1
 152 558 l 1
 168 647 234 709 321 709 c 0
 413 709 437 638 427 582 c 4
 419 539 389 500 350 466 c 2
 193 330 l 1
 384 330 l 1
 376 282 l 1
 80 282 l 1
742 207 m 1
 748 240 l 1
 802 240 839 273 846 313 c 0
 853 353 836 380 794 380 c 0
 755 380 720 353 713 316 c 1
 664 316 l 1
 675 381 733 426 802 426 c 0
 874 426 908 373 898 314 c 0
 888 255 823 207 742 207 c 1
723 -6 m 4
 642 -6 599 46 610 111 c 1
 662 111 l 1
 655 71 683 42 731 42 c 4
 779 42 816 71 824 117 c 0
 833 169 794 195 740 195 c 1
 746 228 l 1
 827 228 890 194 875 111 c 0
 862 40 798 -6 723 -6 c 4
EndSplineSet
EndChar

StartChar: uni2155
Encoding: 8533 8533 158
GlifName: uni2155
Width: 744
VWidth: 0
Flags: HMW
LayerCount: 2
Fore
SplineSet
691 700 m 1
 756 700 l 1
 113 0 l 5
 48 0 l 5
 691 700 l 1
138 611 m 1
 147 664 l 1
 297 700 l 1
 222 274 l 1
 171 274 l 1
 236 639 l 1
 138 611 l 1
738 136 m 0
 721 41 647 -8 566 -8 c 0
 489 -8 452 32 432 80 c 1
 480 110 l 1
 493 74 528 40 574 40 c 0
 634 40 675 78 685 136 c 0
 695 194 662 232 608 232 c 0
 568 232 542 224 494 194 c 1
 531 234 l 1
 564 264 603 278 638 278 c 0
 710 278 753 219 738 136 c 0
620 373 m 1
 567 248 l 1
 494 194 l 1
 589 418 l 1
 787 418 l 1
 779 373 l 1
 620 373 l 1
EndSplineSet
EndChar

StartChar: uni2156
Encoding: 8534 8534 159
GlifName: uni2156
Width: 871
VWidth: 0
Flags: HMW
LayerCount: 2
Fore
SplineSet
818 700 m 1
 883 700 l 1
 240 0 l 5
 175 0 l 5
 818 700 l 1
80 282 m 1
 315 494 l 2
 348 523 369 552 375 586 c 0
 382 623 364 661 313 661 c 0
 259 661 214 622 203 558 c 1
 152 558 l 1
 168 647 234 709 321 709 c 0
 413 709 437 638 427 582 c 4
 419 539 389 500 350 466 c 2
 193 330 l 1
 384 330 l 1
 376 282 l 1
 80 282 l 1
865 136 m 0
 848 41 774 -8 693 -8 c 0
 616 -8 579 32 559 80 c 1
 607 110 l 1
 620 74 655 40 701 40 c 0
 761 40 802 78 812 136 c 0
 822 194 789 232 735 232 c 0
 695 232 669 224 621 194 c 1
 658 234 l 1
 691 264 730 278 765 278 c 0
 837 278 880 219 865 136 c 0
747 373 m 1
 694 248 l 1
 621 194 l 1
 716 418 l 1
 914 418 l 1
 906 373 l 1
 747 373 l 1
EndSplineSet
EndChar

StartChar: uni2157
Encoding: 8535 8535 160
GlifName: uni2157
Width: 831
VWidth: 0
Flags: HMW
LayerCount: 2
Fore
SplineSet
778 700 m 1
 843 700 l 1
 200 0 l 5
 135 0 l 5
 778 700 l 1
232 487 m 1
 238 520 l 1
 292 520 329 553 336 593 c 0
 343 633 325 660 283 660 c 0
 244 660 209 633 202 596 c 1
 153 596 l 1
 164 661 222 706 291 706 c 0
 363 706 398 653 388 594 c 0
 378 535 313 487 232 487 c 1
212 274 m 4
 131 274 88 326 99 391 c 1
 151 391 l 1
 144 351 173 322 221 322 c 4
 269 322 305 351 313 397 c 0
 322 449 284 475 230 475 c 1
 236 508 l 1
 317 508 379 474 364 391 c 0
 351 320 287 274 212 274 c 4
825 136 m 0
 808 41 734 -8 653 -8 c 0
 576 -8 539 32 519 80 c 1
 567 110 l 1
 580 74 615 40 661 40 c 0
 721 40 762 78 772 136 c 0
 782 194 749 232 695 232 c 0
 655 232 629 224 581 194 c 1
 618 234 l 1
 651 264 690 278 725 278 c 0
 797 278 840 219 825 136 c 0
707 373 m 1
 654 248 l 1
 581 194 l 1
 676 418 l 1
 874 418 l 1
 866 373 l 1
 707 373 l 1
EndSplineSet
EndChar

StartChar: uni2158
Encoding: 8536 8536 161
GlifName: uni2158
Width: 866
VWidth: 0
Flags: HMW
LayerCount: 2
Fore
SplineSet
813 700 m 1
 878 700 l 1
 235 0 l 5
 170 0 l 5
 813 700 l 1
94 364 m 1
 144 409 l 1
 326 409 l 0
 336 409 l 0
 422 409 l 1
 414 364 l 1
 94 364 l 1
148 364 m 1
 94 364 l 1
 386 700 l 25
 407 700 l 1
 333 280 l 1
 282 280 l 1
 301 386 l 0
 302 392 l 0
 337 587 l 1
 148 364 l 1
860 136 m 0
 843 41 769 -8 688 -8 c 0
 611 -8 574 32 554 80 c 1
 602 110 l 1
 615 74 650 40 696 40 c 0
 756 40 797 78 807 136 c 0
 817 194 784 232 730 232 c 0
 690 232 664 224 616 194 c 1
 653 234 l 1
 686 264 725 278 760 278 c 0
 832 278 875 219 860 136 c 0
742 373 m 1
 689 248 l 1
 616 194 l 1
 711 418 l 1
 909 418 l 1
 901 373 l 1
 742 373 l 1
EndSplineSet
EndChar

StartChar: uni2159
Encoding: 8537 8537 162
GlifName: uni2159
Width: 734
VWidth: 0
Flags: HMW
LayerCount: 2
Fore
SplineSet
691 700 m 1
 756 700 l 1
 113 0 l 5
 48 0 l 5
 691 700 l 1
138 611 m 1
 147 664 l 1
 297 700 l 1
 222 274 l 1
 171 274 l 1
 236 639 l 1
 138 611 l 1
497 136 m 4
 487 78 520 38 574 38 c 4
 628 38 675 78 685 136 c 4
 695 194 662 235 608 235 c 4
 554 235 507 194 497 136 c 4
666 418 m 5
 731 418 l 5
 568 245 l 5
 566 248 l 5
 586 268 607 272 634 272 c 4
 702 272 748 213 734 136 c 4
 719 50 647 -8 566 -8 c 4
 485 -8 433 50 448 136 c 4
 454 170 470 201 490 223 c 6
 666 418 l 5
EndSplineSet
EndChar

StartChar: uni215A
Encoding: 8538 8538 163
GlifName: uni215A_
Width: 856
VWidth: 0
Flags: HMW
LayerCount: 2
Fore
SplineSet
813 700 m 1
 878 700 l 1
 235 0 l 5
 170 0 l 5
 813 700 l 1
399 416 m 0
 382 321 308 272 227 272 c 0
 150 272 113 312 93 360 c 1
 142 390 l 1
 155 354 189 320 235 320 c 0
 295 320 336 358 346 416 c 0
 356 474 323 512 269 512 c 0
 229 512 204 504 156 474 c 1
 193 514 l 1
 226 544 264 558 299 558 c 0
 371 558 414 499 399 416 c 0
281 653 m 1
 228 528 l 1
 156 474 l 1
 250 698 l 1
 448 698 l 1
 440 653 l 1
 281 653 l 1
619 136 m 4
 609 78 642 38 696 38 c 4
 750 38 797 78 807 136 c 4
 817 194 784 235 730 235 c 4
 676 235 629 194 619 136 c 4
788 418 m 5
 853 418 l 5
 690 245 l 5
 688 248 l 5
 708 268 729 272 756 272 c 4
 824 272 870 213 856 136 c 4
 841 50 769 -8 688 -8 c 4
 607 -8 555 50 570 136 c 4
 576 170 592 201 612 223 c 6
 788 418 l 5
EndSplineSet
EndChar

StartChar: oneeighth
Encoding: 8539 8539 164
GlifName: oneeighth
Width: 760
VWidth: 0
Flags: HMW
LayerCount: 2
Fore
SplineSet
691 700 m 1
 756 700 l 1
 113 0 l 5
 48 0 l 5
 691 700 l 1
138 611 m 1
 147 664 l 1
 297 700 l 1
 222 274 l 1
 171 274 l 1
 236 639 l 1
 138 611 l 1
539 319 m 4
 549 378 608 426 674 426 c 0
 740 426 781 378 771 319 c 4
 760 254 706 213 637 213 c 0
 568 213 528 254 539 319 c 4
587 313 m 0
 580 273 606 246 642 246 c 0
 678 246 714 273 721 313 c 0
 728 353 705 381 666 381 c 0
 627 381 594 353 587 313 c 0
488 114 m 0
 502 191 571 234 640 234 c 0
 709 234 764 191 750 114 c 0
 739 49 673 -6 598 -6 c 0
 523 -6 477 49 488 114 c 0
538 120 m 0
 529 68 564 39 606 39 c 0
 648 39 693 68 702 120 c 0
 710 166 676 201 634 201 c 0
 592 201 546 166 538 120 c 0
EndSplineSet
EndChar

StartChar: threeeighths
Encoding: 8540 8540 165
GlifName: threeeighths
Width: 847
VWidth: 0
Flags: HMW
LayerCount: 2
Fore
SplineSet
778 700 m 1
 843 700 l 1
 200 0 l 5
 135 0 l 5
 778 700 l 1
232 487 m 1
 238 520 l 1
 292 520 329 553 336 593 c 0
 343 633 325 660 283 660 c 0
 244 660 209 633 202 596 c 1
 153 596 l 1
 164 661 222 706 291 706 c 0
 363 706 398 653 388 594 c 0
 378 535 313 487 232 487 c 1
212 274 m 4
 131 274 88 326 99 391 c 1
 151 391 l 1
 144 351 173 322 221 322 c 4
 269 322 305 351 313 397 c 0
 322 449 284 475 230 475 c 1
 236 508 l 1
 317 508 379 474 364 391 c 0
 351 320 287 274 212 274 c 4
626 319 m 4
 636 378 695 426 761 426 c 0
 827 426 868 378 858 319 c 4
 847 254 793 213 724 213 c 0
 655 213 615 254 626 319 c 4
674 313 m 0
 667 273 693 246 729 246 c 0
 765 246 801 273 808 313 c 0
 815 353 792 381 753 381 c 0
 714 381 681 353 674 313 c 0
575 114 m 0
 589 191 658 234 727 234 c 0
 796 234 851 191 837 114 c 0
 826 49 760 -6 685 -6 c 0
 610 -6 564 49 575 114 c 0
625 120 m 0
 616 68 651 39 693 39 c 0
 735 39 780 68 789 120 c 0
 797 166 763 201 721 201 c 0
 679 201 633 166 625 120 c 0
EndSplineSet
EndChar

StartChar: fiveeighths
Encoding: 8541 8541 166
GlifName: fiveeighths
Width: 882
VWidth: 0
Flags: HMW
LayerCount: 2
Fore
SplineSet
813 700 m 1
 878 700 l 1
 235 0 l 5
 170 0 l 5
 813 700 l 1
399 416 m 0
 382 321 308 272 227 272 c 0
 150 272 113 312 93 360 c 1
 142 390 l 1
 155 354 189 320 235 320 c 0
 295 320 336 358 346 416 c 0
 356 474 323 512 269 512 c 0
 229 512 204 504 156 474 c 1
 193 514 l 1
 226 544 264 558 299 558 c 0
 371 558 414 499 399 416 c 0
281 653 m 1
 228 528 l 1
 156 474 l 1
 250 698 l 1
 448 698 l 1
 440 653 l 1
 281 653 l 1
661 319 m 4
 671 378 730 426 796 426 c 0
 862 426 903 378 893 319 c 4
 882 254 828 213 759 213 c 0
 690 213 650 254 661 319 c 4
709 313 m 0
 702 273 728 246 764 246 c 0
 800 246 836 273 843 313 c 0
 850 353 827 381 788 381 c 0
 749 381 716 353 709 313 c 0
610 114 m 0
 624 191 693 234 762 234 c 0
 831 234 886 191 872 114 c 0
 861 49 795 -6 720 -6 c 0
 645 -6 599 49 610 114 c 0
660 120 m 0
 651 68 686 39 728 39 c 0
 770 39 815 68 824 120 c 0
 832 166 798 201 756 201 c 0
 714 201 668 166 660 120 c 0
EndSplineSet
EndChar

StartChar: seveneighths
Encoding: 8542 8542 167
GlifName: seveneighths
Width: 772
VWidth: 0
Flags: HMW
LayerCount: 2
Fore
SplineSet
703 700 m 1
 768 700 l 1
 125 0 l 5
 60 0 l 5
 703 700 l 1
145 652 m 1
 153 700 l 5
 447 700 l 5
 172 280 l 1
 119 280 l 1
 363 652 l 1
 145 652 l 1
551 319 m 4
 561 378 620 426 686 426 c 0
 752 426 793 378 783 319 c 4
 772 254 718 213 649 213 c 0
 580 213 540 254 551 319 c 4
599 313 m 0
 592 273 618 246 654 246 c 0
 690 246 726 273 733 313 c 0
 740 353 717 381 678 381 c 0
 639 381 606 353 599 313 c 0
500 114 m 0
 514 191 583 234 652 234 c 0
 721 234 776 191 762 114 c 0
 751 49 685 -6 610 -6 c 0
 535 -6 489 49 500 114 c 0
550 120 m 0
 541 68 576 39 618 39 c 0
 660 39 705 68 714 120 c 0
 722 166 688 201 646 201 c 0
 604 201 558 166 550 120 c 0
EndSplineSet
EndChar

StartChar: uni2074
Encoding: 8308 8308 168
GlifName: uni2074
Width: 386
VWidth: 0
Flags: HMW
LayerCount: 2
Fore
SplineSet
94 364 m 1
 144 409 l 1
 326 409 l 0
 336 409 l 0
 422 409 l 1
 414 364 l 1
 94 364 l 1
148 364 m 1
 94 364 l 1
 386 700 l 25
 407 700 l 1
 333 280 l 1
 282 280 l 1
 301 386 l 0
 302 392 l 0
 337 587 l 1
 148 364 l 1
EndSplineSet
EndChar

StartChar: uni2075
Encoding: 8309 8309 169
GlifName: uni2075
Width: 356
VWidth: 0
Flags: HMW
LayerCount: 2
Fore
SplineSet
399 416 m 0
 382 321 308 272 227 272 c 0
 150 272 113 312 93 360 c 1
 142 390 l 1
 155 354 189 320 235 320 c 0
 295 320 336 358 346 416 c 0
 356 474 323 512 269 512 c 0
 229 512 204 504 156 474 c 1
 193 514 l 1
 226 544 264 558 299 558 c 0
 371 558 414 499 399 416 c 0
281 653 m 1
 228 528 l 1
 156 474 l 1
 250 698 l 1
 448 698 l 1
 440 653 l 1
 281 653 l 1
EndSplineSet
EndChar

StartChar: uni2076
Encoding: 8310 8310 170
GlifName: uni2076
Width: 346
VWidth: 0
Flags: HMW
LayerCount: 2
Fore
SplineSet
158 416 m 4
 148 358 181 318 235 318 c 4
 289 318 336 358 346 416 c 4
 356 474 324 515 270 515 c 4
 216 515 168 474 158 416 c 4
327 698 m 5
 392 698 l 5
 230 525 l 5
 227 528 l 5
 247 548 268 552 295 552 c 4
 363 552 409 493 395 416 c 4
 380 330 308 272 227 272 c 4
 146 272 94 330 109 416 c 4
 115 450 132 481 152 503 c 6
 327 698 l 5
EndSplineSet
EndChar

StartChar: uni2077
Encoding: 8311 8311 171
GlifName: uni2077
Width: 354
VWidth: 0
Flags: HMW
LayerCount: 2
Fore
SplineSet
145 652 m 1
 153 700 l 5
 447 700 l 5
 172 280 l 1
 119 280 l 1
 363 652 l 1
 145 652 l 1
EndSplineSet
EndChar

StartChar: uni2078
Encoding: 8312 8312 172
GlifName: uni2078
Width: 322
VWidth: 0
Flags: HMW
LayerCount: 2
Fore
SplineSet
151 599 m 4
 161 658 219 706 285 706 c 0
 351 706 393 658 383 599 c 4
 372 534 317 493 248 493 c 0
 179 493 140 534 151 599 c 4
199 593 m 0
 192 553 218 526 254 526 c 0
 290 526 326 553 333 593 c 0
 340 633 317 661 278 661 c 0
 239 661 206 633 199 593 c 0
99 394 m 0
 113 471 183 514 252 514 c 0
 321 514 375 471 361 394 c 0
 350 329 284 274 209 274 c 0
 134 274 88 329 99 394 c 0
150 400 m 0
 141 348 175 319 217 319 c 0
 259 319 305 348 314 400 c 0
 322 446 288 481 246 481 c 0
 204 481 158 446 150 400 c 0
EndSplineSet
EndChar

StartChar: uni2079
Encoding: 8313 8313 173
GlifName: uni2079
Width: 346
VWidth: 0
Flags: HMW
LayerCount: 2
Fore
SplineSet
378 564 m 4
 388 622 356 662 302 662 c 4
 248 662 200 622 190 564 c 4
 180 506 213 465 267 465 c 4
 321 465 368 506 378 564 c 4
210 282 m 5
 145 282 l 5
 307 455 l 5
 310 452 l 5
 290 432 268 428 241 428 c 4
 173 428 127 487 141 564 c 4
 156 650 229 708 310 708 c 4
 391 708 442 650 427 564 c 4
 421 530 405 499 385 477 c 6
 210 282 l 5
EndSplineSet
EndChar

StartChar: uni2070
Encoding: 8304 8304 174
GlifName: uni2070
Width: 372
VWidth: 0
Flags: HMW
LayerCount: 2
Fore
SplineSet
167 490 m 4
 150 392 178 322 243 322 c 4
 308 322 360 392 377 490 c 4
 394 588 367 658 302 658 c 4
 237 658 184 588 167 490 c 4
116 490 m 4
 138 615 218 706 310 706 c 4
 402 706 450 615 428 490 c 4
 406 365 326 274 234 274 c 4
 142 274 94 365 116 490 c 4
EndSplineSet
EndChar

StartChar: uni2080
Encoding: 8320 8320 175
GlifName: uni2080
Width: 372
VWidth: 0
Flags: HMW
LayerCount: 2
Fore
SplineSet
118 210 m 4
 101 112 128 42 193 42 c 4
 258 42 311 112 328 210 c 4
 345 308 318 378 253 378 c 4
 188 378 135 308 118 210 c 4
67 210 m 4
 89 335 169 426 261 426 c 4
 353 426 401 335 379 210 c 4
 357 85 277 -6 185 -6 c 4
 93 -6 45 85 67 210 c 4
EndSplineSet
EndChar

StartChar: uni2084
Encoding: 8324 8324 176
GlifName: uni2084
Width: 386
VWidth: 0
Flags: HMW
LayerCount: 2
Fore
SplineSet
45 84 m 1
 95 129 l 1
 277 129 l 0
 287 129 l 0
 373 129 l 1
 365 84 l 1
 45 84 l 1
99 84 m 1
 45 84 l 1
 337 420 l 25
 358 420 l 1
 284 0 l 1
 233 0 l 1
 252 106 l 0
 253 112 l 0
 287 307 l 1
 99 84 l 1
EndSplineSet
EndChar

StartChar: uni2085
Encoding: 8325 8325 177
GlifName: uni2085
Width: 356
VWidth: 0
Flags: HMW
LayerCount: 2
Fore
SplineSet
350 136 m 0
 333 41 259 -8 178 -8 c 0
 101 -8 64 32 44 80 c 1
 92 110 l 1
 105 74 140 40 186 40 c 0
 246 40 287 78 297 136 c 0
 307 194 274 232 220 232 c 0
 180 232 154 224 106 194 c 1
 143 234 l 1
 176 264 215 278 250 278 c 0
 322 278 365 219 350 136 c 0
232 373 m 1
 179 248 l 1
 106 194 l 1
 201 418 l 1
 399 418 l 1
 391 373 l 1
 232 373 l 1
EndSplineSet
EndChar

StartChar: uni2086
Encoding: 8326 8326 178
GlifName: uni2086
Width: 346
VWidth: 0
Flags: HMW
LayerCount: 2
Fore
SplineSet
108 136 m 4
 98 78 131 38 185 38 c 4
 239 38 286 78 296 136 c 4
 306 194 273 235 219 235 c 4
 165 235 118 194 108 136 c 4
277 418 m 5
 342 418 l 5
 179 245 l 5
 177 248 l 5
 197 268 218 272 245 272 c 4
 313 272 359 213 345 136 c 4
 330 50 258 -8 177 -8 c 4
 96 -8 44 50 59 136 c 4
 65 170 81 201 101 223 c 6
 277 418 l 5
EndSplineSet
EndChar

StartChar: uni2087
Encoding: 8327 8327 179
GlifName: uni2087
Width: 354
VWidth: 0
Flags: HMW
LayerCount: 2
Fore
SplineSet
96 372 m 1
 104 420 l 5
 398 420 l 5
 123 0 l 1
 70 0 l 1
 314 372 l 1
 96 372 l 1
EndSplineSet
EndChar

StartChar: uni2088
Encoding: 8328 8328 180
GlifName: uni2088
Width: 322
VWidth: 0
Flags: HMW
LayerCount: 2
Fore
SplineSet
101 319 m 4
 111 378 170 426 236 426 c 0
 302 426 343 378 333 319 c 4
 322 254 268 213 199 213 c 0
 130 213 90 254 101 319 c 4
149 313 m 0
 142 273 168 246 204 246 c 0
 240 246 276 273 283 313 c 0
 290 353 267 381 228 381 c 0
 189 381 156 353 149 313 c 0
50 114 m 0
 64 191 133 234 202 234 c 0
 271 234 326 191 312 114 c 0
 301 49 235 -6 160 -6 c 0
 85 -6 39 49 50 114 c 0
100 120 m 0
 91 68 126 39 168 39 c 0
 210 39 255 68 264 120 c 0
 272 166 238 201 196 201 c 0
 154 201 108 166 100 120 c 0
EndSplineSet
EndChar

StartChar: uni2089
Encoding: 8329 8329 181
GlifName: uni2089
Width: 346
VWidth: 0
Flags: HMW
LayerCount: 2
Fore
SplineSet
312 284 m 4
 322 342 289 382 235 382 c 4
 181 382 134 342 124 284 c 4
 114 226 147 185 201 185 c 4
 255 185 302 226 312 284 c 4
143 2 m 5
 78 2 l 5
 241 175 l 5
 243 172 l 5
 223 152 202 148 175 148 c 4
 107 148 61 207 75 284 c 4
 90 370 162 428 243 428 c 4
 324 428 376 370 361 284 c 4
 355 250 339 219 319 197 c 6
 143 2 l 5
EndSplineSet
EndChar

StartChar: uni2081
Encoding: 8321 8321 182
GlifName: uni2081
Width: 314
VWidth: 0
Flags: HMW
LayerCount: 2
Fore
SplineSet
150 338 m 1
 159 391 l 1
 309 427 l 1
 234 1 l 1
 183 1 l 1
 248 366 l 1
 150 338 l 1
EndSplineSet
EndChar

StartChar: uni2082
Encoding: 8322 8322 183
GlifName: uni2082
Width: 346
VWidth: 0
Flags: HMW
LayerCount: 2
Fore
SplineSet
25 2 m 1
 261 214 l 2
 294 243 315 272 321 306 c 0
 328 343 309 381 258 381 c 0
 204 381 160 342 149 278 c 1
 98 278 l 1
 114 367 180 429 267 429 c 0
 359 429 382 358 372 302 c 4
 364 259 335 220 296 186 c 2
 139 50 l 1
 330 50 l 1
 321 2 l 1
 25 2 l 1
EndSplineSet
EndChar

StartChar: uni2083
Encoding: 8323 8323 184
GlifName: uni2083
Width: 312
VWidth: 0
Flags: HMW
LayerCount: 2
Fore
SplineSet
178 207 m 1
 183 240 l 1
 237 240 274 273 281 313 c 0
 288 353 271 380 229 380 c 0
 190 380 155 353 148 316 c 1
 99 316 l 1
 110 381 168 426 237 426 c 0
 309 426 343 373 333 314 c 0
 323 255 259 207 178 207 c 1
158 -6 m 4
 77 -6 34 46 45 111 c 1
 97 111 l 1
 90 71 118 42 166 42 c 4
 214 42 251 71 259 117 c 0
 268 169 229 195 175 195 c 1
 181 228 l 1
 262 228 325 194 310 111 c 0
 297 40 233 -6 158 -6 c 4
EndSplineSet
EndChar

StartChar: Agrave
Encoding: 192 192 185
GlifName: A_grave
Width: 660
VWidth: 0
Flags: HMW
LayerCount: 2
Fore
SplineSet
184 210 m 1
 228 290 l 1
 538 290 l 1
 554 210 l 1
 184 210 l 1
426 542 m 1
 259 264 l 1
 247 246 l 1
 100 0 l 1
 5 0 l 1
 460 735 l 1
 655 0 l 1
 560 0 l 1
 500 240 l 1
 496 260 l 1
 426 542 l 1
367 945 m 5
 449 985 l 5
 570 825 l 5
 520 795 l 5
 367 945 l 5
EndSplineSet
EndChar

StartChar: Aacute
Encoding: 193 193 186
GlifName: A_acute
Width: 660
VWidth: 0
Flags: HMW
LayerCount: 2
Fore
SplineSet
184 210 m 1
 228 290 l 1
 538 290 l 1
 554 210 l 1
 184 210 l 1
426 542 m 1
 259 264 l 1
 247 246 l 1
 100 0 l 1
 5 0 l 1
 460 735 l 1
 655 0 l 1
 560 0 l 1
 500 240 l 1
 496 260 l 1
 426 542 l 1
627 945 m 5
 420 795 l 5
 380 825 l 5
 559 985 l 5
 627 945 l 5
EndSplineSet
EndChar

StartChar: Acircumflex
Encoding: 194 194 187
GlifName: A_circumflex
Width: 660
VWidth: 0
Flags: HMW
LayerCount: 2
Fore
SplineSet
184 210 m 1
 228 290 l 1
 538 290 l 1
 554 210 l 1
 184 210 l 1
426 542 m 1
 259 264 l 1
 247 246 l 1
 100 0 l 1
 5 0 l 1
 460 735 l 1
 655 0 l 1
 560 0 l 1
 500 240 l 1
 496 260 l 1
 426 542 l 1
480 850 m 5
 353 755 l 5
 310 795 l 5
 495 935 l 5
 630 795 l 5
 573 755 l 5
 480 850 l 5
EndSplineSet
EndChar

StartChar: Atilde
Encoding: 195 195 188
GlifName: A_tilde
Width: 660
VWidth: 0
Flags: HMW
LayerCount: 2
Fore
SplineSet
184 210 m 1
 228 290 l 1
 538 290 l 1
 554 210 l 1
 184 210 l 1
426 542 m 1
 259 264 l 1
 247 246 l 1
 100 0 l 1
 5 0 l 1
 460 735 l 1
 655 0 l 1
 560 0 l 1
 500 240 l 1
 496 260 l 1
 426 542 l 1
308 812 m 1
 327 861 382 894 427 894 c 4
 492 894 488 847 542 847 c 0
 561 847 581 863 607 895 c 1
 645 852 l 1
 622 815 576 779 526 779 c 0
 471 779 459 826 414 826 c 4
 373 826 358 790 355 775 c 1
 308 812 l 1
EndSplineSet
EndChar

StartChar: Adieresis
Encoding: 196 196 189
GlifName: A_dieresis
Width: 660
VWidth: 0
Flags: HMW
LayerCount: 2
Fore
SplineSet
184 210 m 1
 228 290 l 1
 538 290 l 1
 554 210 l 1
 184 210 l 1
426 542 m 1
 259 264 l 1
 247 246 l 1
 100 0 l 1
 5 0 l 1
 460 735 l 1
 655 0 l 1
 560 0 l 1
 500 240 l 1
 496 260 l 1
 426 542 l 1
525 850 m 4
 530 880 560 905 590 905 c 4
 620 905 640 880 635 850 c 4
 630 820 600 795 570 795 c 4
 540 795 520 820 525 850 c 4
325 850 m 4
 330 880 360 905 390 905 c 4
 420 905 440 880 435 850 c 4
 430 820 400 795 370 795 c 4
 340 795 320 820 325 850 c 4
EndSplineSet
EndChar

StartChar: Aring
Encoding: 197 197 190
GlifName: A_ring
Width: 660
VWidth: 0
Flags: HMW
LayerCount: 2
Fore
SplineSet
184 210 m 1
 228 290 l 1
 538 290 l 1
 554 210 l 1
 184 210 l 1
426 542 m 1
 259 264 l 1
 247 246 l 1
 100 0 l 1
 5 0 l 1
 460 735 l 1
 655 0 l 1
 560 0 l 1
 500 240 l 1
 496 260 l 1
 426 542 l 1
369 798 m 0
 380 858 436 898 488 898 c 0
 540 898 584 858 573 798 c 4
 562 738 505 698 453 698 c 0
 401 698 358 738 369 798 c 0
420 798 m 0
 414 765 436 745 461 745 c 0
 486 745 516 765 522 798 c 4
 528 831 505 851 480 851 c 0
 455 851 426 831 420 798 c 0
EndSplineSet
EndChar

StartChar: AE
Encoding: 198 198 191
GlifName: A_E_
Width: 960
VWidth: 0
Flags: HMW
LayerCount: 2
Fore
SplineSet
254 210 m 1
 268 290 l 1
 568 290 l 1
 554 210 l 1
 254 210 l 1
558 700 m 1
 620 660 l 5
 100 0 l 1
 5 0 l 1
 558 700 l 1
537 0 m 1
 551 80 l 1
 904 80 l 1
 890 0 l 1
 537 0 l 1
654 620 m 1
 558 700 l 1
 1013 700 l 1
 999 620 l 1
 654 620 l 1
597 340 m 1
 611 420 l 1
 944 420 l 1
 930 340 l 1
 597 340 l 1
613 700 m 1
 698 700 l 1
 575 0 l 1
 490 0 l 1
 613 700 l 1
EndSplineSet
EndChar

StartChar: Ccedilla
Encoding: 199 199 192
GlifName: C_cedilla
Width: 685
VWidth: 0
Flags: HMW
LayerCount: 2
Fore
SplineSet
192 350 m 0
 163 187 265 75 403 75 c 0
 502 75 587 117 647 179 c 1
 627 67 l 1
 559 15 490 -10 388 -10 c 0
 194 -10 65 141 102 350 c 0
 139 559 321 710 515 710 c 0
 617 710 677 685 727 633 c 1
 707 521 l 1
 669 583 599 625 500 625 c 0
 362 625 221 513 192 350 c 0
410 57 m 5
 471 57 l 5
 386 -57 l 5
 295 -111 l 5
 410 57 l 5
456 -129 m 5
 399 -129 l 5
 403 -105 390 -93 356 -93 c 4
 346 -93 321 -95 295 -111 c 5
 342 -71 l 5
 371 -55 383 -55 396 -55 c 4
 429 -55 465 -80 456 -129 c 5
456 -129 m 5
 445 -190 388 -223 333 -223 c 4
 296 -223 273 -213 250 -185 c 5
 290 -145 l 5
 306 -161 316 -169 342 -169 c 4
 376 -169 395 -153 399 -129 c 5
 456 -129 l 5
EndSplineSet
EndChar

StartChar: Egrave
Encoding: 200 200 193
GlifName: E_grave
Width: 550
VWidth: 0
Flags: HMW
LayerCount: 2
Fore
SplineSet
127 0 m 1
 141 80 l 1
 494 80 l 1
 480 0 l 1
 127 0 l 1
236 620 m 5
 250 700 l 1
 603 700 l 1
 589 620 l 5
 236 620 l 5
187 340 m 1
 201 420 l 1
 534 420 l 1
 520 340 l 1
 187 340 l 1
203 700 m 1
 288 700 l 1
 165 0 l 1
 80 0 l 1
 203 700 l 1
312 920 m 5
 394 960 l 5
 516 800 l 5
 466 770 l 5
 312 920 l 5
EndSplineSet
EndChar

StartChar: Eacute
Encoding: 201 201 194
GlifName: E_acute
Width: 550
VWidth: 0
Flags: HMW
LayerCount: 2
Fore
SplineSet
127 0 m 1
 141 80 l 1
 494 80 l 1
 480 0 l 1
 127 0 l 1
236 620 m 5
 250 700 l 1
 603 700 l 1
 589 620 l 5
 236 620 l 5
187 340 m 1
 201 420 l 1
 534 420 l 1
 520 340 l 1
 187 340 l 1
203 700 m 1
 288 700 l 1
 165 0 l 1
 80 0 l 1
 203 700 l 1
572 920 m 5
 366 770 l 5
 326 800 l 5
 504 960 l 5
 572 920 l 5
EndSplineSet
EndChar

StartChar: Ecircumflex
Encoding: 202 202 195
GlifName: E_circumflex
Width: 550
VWidth: 0
Flags: HMW
LayerCount: 2
Fore
SplineSet
127 0 m 1
 141 80 l 1
 494 80 l 1
 480 0 l 1
 127 0 l 1
236 620 m 5
 250 700 l 1
 603 700 l 1
 589 620 l 5
 236 620 l 5
187 340 m 1
 201 420 l 1
 534 420 l 1
 520 340 l 1
 187 340 l 1
203 700 m 1
 288 700 l 1
 165 0 l 1
 80 0 l 1
 203 700 l 1
443 865 m 5
 316 770 l 5
 273 810 l 5
 458 950 l 5
 593 810 l 5
 536 770 l 5
 443 865 l 5
EndSplineSet
EndChar

StartChar: Edieresis
Encoding: 203 203 196
GlifName: E_dieresis
Width: 550
VWidth: 0
Flags: HMW
LayerCount: 2
Fore
SplineSet
127 0 m 1
 141 80 l 1
 494 80 l 1
 480 0 l 1
 127 0 l 1
236 620 m 5
 250 700 l 1
 603 700 l 1
 589 620 l 5
 236 620 l 5
187 340 m 1
 201 420 l 1
 534 420 l 1
 520 340 l 1
 187 340 l 1
203 700 m 1
 288 700 l 1
 165 0 l 1
 80 0 l 1
 203 700 l 1
484 845 m 4
 489 875 519 900 549 900 c 4
 579 900 599 875 594 845 c 4
 589 815 559 790 529 790 c 4
 499 790 479 815 484 845 c 4
284 845 m 4
 289 875 319 900 349 900 c 4
 379 900 399 875 394 845 c 4
 389 815 359 790 329 790 c 4
 299 790 279 815 284 845 c 4
EndSplineSet
EndChar

StartChar: Igrave
Encoding: 204 204 197
GlifName: I_grave
Width: 245
VWidth: 0
Flags: HMW
LayerCount: 2
Fore
SplineSet
203 700 m 5
 288 700 l 5
 165 0 l 5
 80 0 l 5
 203 700 l 5
154 920 m 5
 237 960 l 5
 359 800 l 5
 308 770 l 5
 154 920 l 5
EndSplineSet
EndChar

StartChar: Iacute
Encoding: 205 205 198
GlifName: I_acute
Width: 245
VWidth: 0
Flags: HMW
LayerCount: 2
Fore
SplineSet
203 700 m 5
 288 700 l 5
 165 0 l 5
 80 0 l 5
 203 700 l 5
414 920 m 5
 208 770 l 5
 169 800 l 5
 347 960 l 5
 414 920 l 5
EndSplineSet
EndChar

StartChar: Icircumflex
Encoding: 206 206 199
GlifName: I_circumflex
Width: 245
VWidth: 0
Flags: HMW
LayerCount: 2
Fore
SplineSet
203 700 m 5
 288 700 l 5
 165 0 l 5
 80 0 l 5
 203 700 l 5
275 865 m 5
 148 770 l 5
 105 810 l 5
 290 950 l 5
 425 810 l 5
 368 770 l 5
 275 865 l 5
EndSplineSet
EndChar

StartChar: Idieresis
Encoding: 207 207 200
GlifName: I_dieresis
Width: 245
VWidth: 0
Flags: HMW
LayerCount: 2
Fore
SplineSet
203 700 m 5
 288 700 l 5
 165 0 l 5
 80 0 l 5
 203 700 l 5
313 825 m 4
 318 855 347 880 377 880 c 4
 407 880 428 855 423 825 c 4
 418 795 388 770 358 770 c 4
 328 770 308 795 313 825 c 4
113 825 m 4
 118 855 147 880 177 880 c 4
 207 880 228 855 223 825 c 4
 218 795 188 770 158 770 c 4
 128 770 108 795 113 825 c 4
EndSplineSet
EndChar

StartChar: Ntilde
Encoding: 209 209 201
GlifName: N_tilde
Width: 775
VWidth: 0
Flags: HMW
LayerCount: 2
Fore
SplineSet
192 605 m 1
 210 735 l 1
 707 95 l 5
 689 -35 l 5
 192 605 l 1
733 700 m 5
 818 700 l 5
 689 -35 l 5
 623 75 l 5
 733 700 l 5
210 735 m 1
 275 625 l 1
 165 0 l 1
 80 0 l 1
 210 735 l 1
365 792 m 1
 384 841 438 874 483 874 c 4
 548 874 545 827 599 827 c 0
 618 827 637 843 663 875 c 1
 702 832 l 1
 679 795 633 759 583 759 c 0
 528 759 515 806 470 806 c 4
 429 806 414 770 411 755 c 1
 365 792 l 1
EndSplineSet
EndChar

StartChar: Eth
Encoding: 208 208 202
GlifName: E_th
Width: 680
VWidth: 0
Flags: HMW
LayerCount: 2
Fore
SplineSet
235 615 m 1
 250 700 l 1
 413 700 l 2
 617 700 739 559 702 350 c 1
 617 350 l 1
 646 513 556 615 398 615 c 2
 235 615 l 1
290 0 m 2
 127 0 l 1
 142 85 l 1
 305 85 l 2
 463 85 588 187 617 350 c 1
 702 350 l 1
 665 141 494 0 290 0 c 2
203 700 m 1
 288 700 l 1
 165 0 l 1
 80 0 l 1
 203 700 l 1
60 310 m 5
 73 385 l 5
 373 385 l 5
 360 310 l 5
 60 310 l 5
EndSplineSet
EndChar

StartChar: Ograve
Encoding: 210 210 203
GlifName: O_grave
Width: 790
VWidth: 0
Flags: HMW
LayerCount: 2
Fore
SplineSet
192 350 m 4
 164 192 255 75 408 75 c 4
 561 75 694 192 722 350 c 4
 750 508 658 625 505 625 c 4
 352 625 220 508 192 350 c 4
102 350 m 4
 138 554 316 710 520 710 c 4
 724 710 848 554 812 350 c 4
 776 146 597 -10 393 -10 c 4
 189 -10 66 146 102 350 c 4
437 920 m 5
 519 960 l 5
 641 800 l 5
 591 770 l 5
 437 920 l 5
EndSplineSet
EndChar

StartChar: Oacute
Encoding: 211 211 204
GlifName: O_acute
Width: 790
VWidth: 0
Flags: HMW
LayerCount: 2
Fore
SplineSet
192 350 m 4
 164 192 255 75 408 75 c 4
 561 75 694 192 722 350 c 4
 750 508 658 625 505 625 c 4
 352 625 220 508 192 350 c 4
102 350 m 4
 138 554 316 710 520 710 c 4
 724 710 848 554 812 350 c 4
 776 146 597 -10 393 -10 c 4
 189 -10 66 146 102 350 c 4
677 920 m 5
 471 770 l 5
 431 800 l 5
 609 960 l 5
 677 920 l 5
EndSplineSet
EndChar

StartChar: Ocircumflex
Encoding: 212 212 205
GlifName: O_circumflex
Width: 790
VWidth: 0
Flags: HMW
LayerCount: 2
Fore
SplineSet
192 350 m 4
 164 192 255 75 408 75 c 4
 561 75 694 192 722 350 c 4
 750 508 658 625 505 625 c 4
 352 625 220 508 192 350 c 4
102 350 m 4
 138 554 316 710 520 710 c 4
 724 710 848 554 812 350 c 4
 776 146 597 -10 393 -10 c 4
 189 -10 66 146 102 350 c 4
548 865 m 5
 421 770 l 5
 378 810 l 5
 563 950 l 5
 698 810 l 5
 641 770 l 5
 548 865 l 5
EndSplineSet
EndChar

StartChar: Otilde
Encoding: 213 213 206
GlifName: O_tilde
Width: 790
VWidth: 0
Flags: HMW
LayerCount: 2
Fore
SplineSet
192 350 m 4
 164 192 255 75 408 75 c 4
 561 75 694 192 722 350 c 4
 750 508 658 625 505 625 c 4
 352 625 220 508 192 350 c 4
102 350 m 4
 138 554 316 710 520 710 c 4
 724 710 848 554 812 350 c 4
 776 146 597 -10 393 -10 c 4
 189 -10 66 146 102 350 c 4
372 807 m 1
 391 856 446 889 491 889 c 4
 556 889 552 842 606 842 c 0
 625 842 645 858 671 890 c 1
 709 847 l 1
 686 810 640 774 590 774 c 0
 535 774 523 821 478 821 c 4
 437 821 422 785 419 770 c 1
 372 807 l 1
EndSplineSet
EndChar

StartChar: Odieresis
Encoding: 214 214 207
GlifName: O_dieresis
Width: 790
VWidth: 0
Flags: HMW
LayerCount: 2
Fore
SplineSet
192 350 m 4
 164 192 255 75 408 75 c 4
 561 75 694 192 722 350 c 4
 750 508 658 625 505 625 c 4
 352 625 220 508 192 350 c 4
102 350 m 4
 138 554 316 710 520 710 c 4
 724 710 848 554 812 350 c 4
 776 146 597 -10 393 -10 c 4
 189 -10 66 146 102 350 c 4
585 825 m 4
 590 855 620 880 650 880 c 4
 680 880 700 855 695 825 c 4
 690 795 661 770 631 770 c 4
 601 770 580 795 585 825 c 4
385 825 m 4
 390 855 420 880 450 880 c 4
 480 880 500 855 495 825 c 4
 490 795 461 770 431 770 c 4
 401 770 380 795 385 825 c 4
EndSplineSet
EndChar

StartChar: Ugrave
Encoding: 217 217 208
GlifName: U_grave
Width: 626
VWidth: 0
Flags: HMW
LayerCount: 2
Fore
SplineSet
198 700 m 1
 283 700 l 1
 201 230 l 2
 184 134 225 70 325 70 c 0
 425 70 490 134 507 230 c 2
 589 700 l 1
 674 700 l 1
 592 230 l 2
 567 91 456 -10 311 -10 c 0
 166 -10 91 91 116 230 c 2
 198 700 l 1
345 920 m 5
 427 960 l 5
 549 800 l 5
 499 770 l 5
 345 920 l 5
EndSplineSet
EndChar

StartChar: Uacute
Encoding: 218 218 209
GlifName: U_acute
Width: 626
VWidth: 0
Flags: HMW
LayerCount: 2
Fore
SplineSet
198 700 m 1
 283 700 l 1
 201 230 l 2
 184 134 225 70 325 70 c 0
 425 70 490 134 507 230 c 2
 589 700 l 1
 674 700 l 1
 592 230 l 2
 567 91 456 -10 311 -10 c 0
 166 -10 91 91 116 230 c 2
 198 700 l 1
605 920 m 5
 399 770 l 5
 359 800 l 5
 537 960 l 5
 605 920 l 5
EndSplineSet
EndChar

StartChar: Ucircumflex
Encoding: 219 219 210
GlifName: U_circumflex
Width: 626
VWidth: 0
Flags: HMW
LayerCount: 2
Fore
SplineSet
198 700 m 1
 283 700 l 1
 201 230 l 2
 184 134 225 70 325 70 c 0
 425 70 490 134 507 230 c 2
 589 700 l 1
 674 700 l 1
 592 230 l 2
 567 91 456 -10 311 -10 c 0
 166 -10 91 91 116 230 c 2
 198 700 l 1
466 865 m 5
 339 770 l 5
 296 810 l 5
 481 950 l 5
 616 810 l 5
 559 770 l 5
 466 865 l 5
EndSplineSet
EndChar

StartChar: Udieresis
Encoding: 220 220 211
GlifName: U_dieresis
Width: 626
VWidth: 0
Flags: HMW
LayerCount: 2
Fore
SplineSet
198 700 m 1
 283 700 l 1
 201 230 l 2
 184 134 225 70 325 70 c 0
 425 70 490 134 507 230 c 2
 589 700 l 1
 674 700 l 1
 592 230 l 2
 567 91 456 -10 311 -10 c 0
 166 -10 91 91 116 230 c 2
 198 700 l 1
503 825 m 4
 508 855 538 880 568 880 c 4
 598 880 618 855 613 825 c 4
 608 795 579 770 549 770 c 4
 519 770 498 795 503 825 c 4
303 825 m 4
 308 855 338 880 368 880 c 4
 398 880 418 855 413 825 c 4
 408 795 379 770 349 770 c 4
 319 770 298 795 303 825 c 4
EndSplineSet
EndChar

StartChar: Yacute
Encoding: 221 221 212
GlifName: Y_acute
Width: 561
VWidth: 0
Flags: HMW
LayerCount: 2
Fore
SplineSet
301 360 m 1
 386 360 l 1
 323 0 l 1
 238 0 l 1
 301 360 l 1
584 700 m 1
 679 700 l 1
 320 229 l 5
 128 700 l 1
 223 700 l 1
 346 376 l 1
 584 700 l 1
572 920 m 5
 366 770 l 5
 327 800 l 5
 505 960 l 5
 572 920 l 5
EndSplineSet
EndChar

StartChar: agrave
Encoding: 224 224 213
GlifName: agrave
Width: 570
VWidth: 0
Flags: HMW
LayerCount: 2
Fore
SplineSet
506 460 m 1
 581 460 l 1
 500 0 l 1
 425 0 l 1
 506 460 l 1
76 230 m 0
 102 379 221 470 346 470 c 0
 461 470 523 379 497 230 c 0
 471 81 376 -10 261 -10 c 0
 136 -10 50 81 76 230 c 0
157 230 m 0
 138 124 199 65 284 65 c 0
 354 65 442 124 461 230 c 0
 480 336 413 395 343 395 c 0
 258 395 176 336 157 230 c 0
233 680 m 1
 315 720 l 1
 437 560 l 1
 386 530 l 1
 233 680 l 1
EndSplineSet
Substitution2: "alt a" agrave.alt
EndChar

StartChar: aacute
Encoding: 225 225 214
GlifName: aacute
Width: 570
VWidth: 0
Flags: HMW
LayerCount: 2
Fore
SplineSet
506 460 m 5
 581 460 l 5
 500 0 l 5
 425 0 l 5
 506 460 l 5
76 230 m 4
 102 379 221 470 346 470 c 4
 461 470 523 379 497 230 c 4
 471 81 376 -10 261 -10 c 4
 136 -10 50 81 76 230 c 4
157 230 m 4
 138 124 199 65 284 65 c 4
 354 65 442 124 461 230 c 4
 480 336 413 395 343 395 c 4
 258 395 176 336 157 230 c 4
513 680 m 5
 306 530 l 5
 267 560 l 5
 445 720 l 5
 513 680 l 5
EndSplineSet
Substitution2: "alt a" aacute.alt
EndChar

StartChar: acircumflex
Encoding: 226 226 215
GlifName: acircumflex
Width: 570
VWidth: 0
Flags: HMW
LayerCount: 2
Fore
SplineSet
506 460 m 1
 581 460 l 1
 500 0 l 1
 425 0 l 1
 506 460 l 1
76 230 m 0
 102 379 221 470 346 470 c 0
 461 470 523 379 497 230 c 0
 471 81 376 -10 261 -10 c 0
 136 -10 50 81 76 230 c 0
157 230 m 0
 138 124 199 65 284 65 c 0
 354 65 442 124 461 230 c 0
 480 336 413 395 343 395 c 0
 258 395 176 336 157 230 c 0
393 625 m 1
 266 530 l 1
 224 570 l 1
 408 710 l 1
 544 570 l 1
 486 530 l 1
 393 625 l 1
EndSplineSet
Substitution2: "alt a" acircumflex.alt
EndChar

StartChar: atilde
Encoding: 227 227 216
GlifName: atilde
Width: 570
VWidth: 0
Flags: HMW
LayerCount: 2
Fore
SplineSet
506 460 m 5
 581 460 l 5
 500 0 l 5
 425 0 l 5
 506 460 l 5
76 230 m 4
 102 379 221 470 346 470 c 4
 461 470 523 379 497 230 c 4
 471 81 376 -10 261 -10 c 4
 136 -10 50 81 76 230 c 4
157 230 m 4
 138 124 199 65 284 65 c 4
 354 65 442 124 461 230 c 4
 480 336 413 395 343 395 c 4
 258 395 176 336 157 230 c 4
218 567 m 5
 237 616 291 649 336 649 c 4
 401 649 398 602 452 602 c 4
 471 602 491 618 517 650 c 5
 555 607 l 5
 532 570 486 534 436 534 c 4
 381 534 368 581 323 581 c 4
 282 581 267 545 264 530 c 5
 218 567 l 5
EndSplineSet
Substitution2: "alt a" atilde.alt
EndChar

StartChar: adieresis
Encoding: 228 228 217
GlifName: adieresis
Width: 570
VWidth: 0
Flags: HMW
LayerCount: 2
Fore
SplineSet
506 460 m 1
 581 460 l 1
 500 0 l 1
 425 0 l 1
 506 460 l 1
76 230 m 0
 102 379 221 470 346 470 c 0
 461 470 523 379 497 230 c 0
 471 81 376 -10 261 -10 c 0
 136 -10 50 81 76 230 c 0
157 230 m 0
 138 124 199 65 284 65 c 0
 354 65 442 124 461 230 c 0
 480 336 413 395 343 395 c 0
 258 395 176 336 157 230 c 0
431 585 m 0
 436 615 466 640 496 640 c 0
 526 640 546 615 541 585 c 0
 536 555 506 530 476 530 c 0
 446 530 426 555 431 585 c 0
231 585 m 0
 236 615 266 640 296 640 c 0
 326 640 346 615 341 585 c 0
 336 555 306 530 276 530 c 0
 246 530 226 555 231 585 c 0
EndSplineSet
Substitution2: "alt a" adieresis.alt
EndChar

StartChar: aring
Encoding: 229 229 218
GlifName: aring
Width: 570
VWidth: 0
Flags: HMW
LayerCount: 2
Fore
SplineSet
506 460 m 5
 581 460 l 5
 500 0 l 5
 425 0 l 5
 506 460 l 5
76 230 m 4
 102 379 221 470 346 470 c 4
 461 470 523 379 497 230 c 4
 471 81 376 -10 261 -10 c 4
 136 -10 50 81 76 230 c 4
157 230 m 4
 138 124 199 65 284 65 c 4
 354 65 442 124 461 230 c 4
 480 336 413 395 343 395 c 4
 258 395 176 336 157 230 c 4
292 630 m 4
 303 690 360 730 412 730 c 4
 464 730 507 690 496 630 c 4
 485 570 428 530 376 530 c 4
 324 530 281 570 292 630 c 4
343 630 m 4
 337 597 360 577 385 577 c 4
 410 577 439 597 445 630 c 4
 451 663 428 683 403 683 c 4
 378 683 349 663 343 630 c 4
EndSplineSet
Substitution2: "alt a" aring.alt
EndChar

StartChar: germandbls
Encoding: 223 223 219
GlifName: germandbls
Width: 570
VWidth: 0
Flags: HMW
LayerCount: 2
Fore
SplineSet
187 606 m 1
 267 606 l 1
 160 0 l 1
 80 0 l 1
 187 606 l 1
327 425 m 1
 337 480 l 1
 447 480 499 540 509 596 c 4
 521 662 493 715 403 715 c 0
 343 715 280 682 267 606 c 1
 187 606 l 1
 206 715 311 790 416 790 c 0
 551 790 611 715 592 606 c 4
 571 487 482 425 327 425 c 1
283 65 m 1
 363 65 466 129 485 235 c 0
 500 321 433 405 323 405 c 1
 333 460 l 1
 488 460 590 364 565 225 c 0
 540 86 405 -10 270 -10 c 1
 283 65 l 1
EndSplineSet
EndChar

StartChar: ae
Encoding: 230 230 220
GlifName: ae
Width: 825
VWidth: 0
Flags: HMW
LayerCount: 2
Fore
SplineSet
135 135 m 0
 126 86 155 61 219 61 c 0
 299 61 362 94 377 180 c 1
 414 130 l 1
 398 41 301 -10 206 -10 c 0
 91 -10 37 41 52 125 c 0
 71 232 165 286 276 286 c 0
 364 286 407 242 418 225 c 1
 409 178 l 1
 370 210 328 225 270 225 c 0
 189 225 145 191 135 135 c 0
173 352 m 1
 145 413 l 1
 183 438 248 470 331 470 c 4
 436 470 479 419 463 330 c 2
 428 130 l 1
 368 130 l 1
 401 320 l 6
 409 366 369 400 319 400 c 0
 253 400 198 368 173 352 c 1
443 210 m 1
 455 278 l 1
 818 278 l 1
 826 210 l 1
 443 210 l 1
749 250 m 2
 764 336 734 400 644 400 c 0
 564 400 489 346 474 260 c 1
 467 230 l 1
 448 124 494 65 584 65 c 0
 651 65 703 98 743 148 c 1
 801 107 l 1
 743 37 680 -10 561 -10 c 0
 436 -10 371 91 396 230 c 0
 399 247 412 263 418 279 c 0
 457 392 547 470 666 470 c 0
 776 470 857 379 831 234 c 0
 830 226 828 218 826 210 c 1
 746 230 l 1
 749 250 l 2
EndSplineSet
EndChar

StartChar: ccedilla
Encoding: 231 231 221
GlifName: ccedilla
Width: 478
VWidth: 0
Flags: HMW
LayerCount: 2
Fore
SplineSet
152 230 m 0
 135 134 189 65 279 65 c 0
 353 65 425 104 454 149 c 1
 437 49 l 1
 398 11 329 -10 266 -10 c 0
 131 -10 46 91 71 230 c 0
 96 369 216 470 351 470 c 0
 414 470 475 448 500 411 c 1
 483 311 l 1
 470 356 412 395 338 395 c 0
 248 395 169 326 152 230 c 0
288 57 m 5
 348 57 l 5
 264 -57 l 1
 172 -111 l 1
 288 57 l 5
333 -129 m 1
 277 -129 l 1
 281 -105 268 -93 234 -93 c 0
 224 -93 198 -95 172 -111 c 1
 219 -71 l 1
 248 -55 261 -55 274 -55 c 0
 307 -55 342 -80 333 -129 c 1
333 -129 m 1
 322 -190 266 -223 211 -223 c 0
 174 -223 150 -213 127 -185 c 1
 168 -145 l 1
 184 -161 194 -169 220 -169 c 0
 254 -169 273 -153 277 -129 c 1
 333 -129 l 1
EndSplineSet
EndChar

StartChar: egrave
Encoding: 232 232 222
GlifName: egrave
Width: 515
VWidth: 0
Flags: HMW
LayerCount: 2
Fore
SplineSet
133 210 m 5
 145 278 l 5
 508 278 l 5
 516 210 l 5
 133 210 l 5
439 250 m 6
 454 336 424 400 334 400 c 4
 254 400 179 346 164 260 c 5
 157 230 l 5
 138 124 184 65 274 65 c 4
 341 65 393 98 433 148 c 5
 491 107 l 5
 433 37 370 -10 251 -10 c 4
 126 -10 51 91 76 230 c 4
 79 247 82 263 88 279 c 4
 127 392 227 470 346 470 c 4
 476 470 547 379 521 234 c 4
 520 226 518 218 516 210 c 5
 436 230 l 5
 439 250 l 6
226 700 m 5
 308 740 l 5
 430 580 l 5
 380 550 l 5
 226 700 l 5
EndSplineSet
EndChar

StartChar: eacute
Encoding: 233 233 223
GlifName: eacute
Width: 515
VWidth: 0
Flags: HMW
LayerCount: 2
Fore
SplineSet
133 210 m 5
 145 278 l 5
 508 278 l 5
 516 210 l 5
 133 210 l 5
439 250 m 6
 454 336 424 400 334 400 c 4
 254 400 179 346 164 260 c 5
 157 230 l 5
 138 124 184 65 274 65 c 4
 341 65 393 98 433 148 c 5
 491 107 l 5
 433 37 370 -10 251 -10 c 4
 126 -10 51 91 76 230 c 4
 79 247 82 263 88 279 c 4
 127 392 227 470 346 470 c 4
 476 470 547 379 521 234 c 4
 520 226 518 218 516 210 c 5
 436 230 l 5
 439 250 l 6
546 700 m 5
 340 550 l 5
 300 580 l 5
 478 740 l 5
 546 700 l 5
EndSplineSet
EndChar

StartChar: ecircumflex
Encoding: 234 234 224
GlifName: ecircumflex
Width: 515
VWidth: 0
Flags: HMW
LayerCount: 2
Fore
SplineSet
133 210 m 5
 145 278 l 5
 508 278 l 5
 516 210 l 5
 133 210 l 5
439 250 m 6
 454 336 424 400 334 400 c 4
 254 400 179 346 164 260 c 5
 157 230 l 5
 138 124 184 65 274 65 c 4
 341 65 393 98 433 148 c 5
 491 107 l 5
 433 37 370 -10 251 -10 c 4
 126 -10 51 91 76 230 c 4
 79 247 82 263 88 279 c 4
 127 392 227 470 346 470 c 4
 476 470 547 379 521 234 c 4
 520 226 518 218 516 210 c 5
 436 230 l 5
 439 250 l 6
373 625 m 5
 246 530 l 5
 204 570 l 5
 388 710 l 5
 524 570 l 5
 466 530 l 5
 373 625 l 5
EndSplineSet
EndChar

StartChar: edieresis
Encoding: 235 235 225
GlifName: edieresis
Width: 515
VWidth: 0
Flags: HMW
LayerCount: 2
Fore
SplineSet
133 210 m 5
 145 278 l 5
 508 278 l 5
 516 210 l 5
 133 210 l 5
439 250 m 6
 454 336 424 400 334 400 c 4
 254 400 179 346 164 260 c 5
 157 230 l 5
 138 124 184 65 274 65 c 4
 341 65 393 98 433 148 c 5
 491 107 l 5
 433 37 370 -10 251 -10 c 4
 126 -10 51 91 76 230 c 4
 79 247 82 263 88 279 c 4
 127 392 227 470 346 470 c 4
 476 470 547 379 521 234 c 4
 520 226 518 218 516 210 c 5
 436 230 l 5
 439 250 l 6
411 585 m 4
 416 615 446 640 476 640 c 4
 506 640 526 615 521 585 c 4
 516 555 486 530 456 530 c 4
 426 530 406 555 411 585 c 4
211 585 m 4
 216 615 246 640 276 640 c 4
 306 640 326 615 321 585 c 4
 316 555 286 530 256 530 c 4
 226 530 206 555 211 585 c 4
EndSplineSet
EndChar

StartChar: igrave
Encoding: 236 236 226
GlifName: igrave
Width: 260
VWidth: 0
Flags: HMW
LayerCount: 2
Fore
SplineSet
171 460 m 1
 251 460 l 1
 170 0 l 1
 90 0 l 1
 171 460 l 1
93 700 m 5
 175 740 l 5
 297 580 l 5
 247 550 l 5
 93 700 l 5
EndSplineSet
EndChar

StartChar: dotlessi
Encoding: 305 305 227
GlifName: dotlessi
Width: 260
VWidth: 0
Flags: HMW
LayerCount: 2
Fore
SplineSet
171 460 m 1
 251 460 l 1
 170 0 l 1
 90 0 l 1
 171 460 l 1
EndSplineSet
EndChar

StartChar: kgreenlandic
Encoding: 312 312 228
GlifName: kgreenlandic
Width: 440
VWidth: 0
Flags: HMW
LayerCount: 2
Fore
SplineSet
151 460 m 1
 231 460 l 1
 150 0 l 1
 70 0 l 1
 151 460 l 1
401 460 m 1
 501 460 l 1
 268 270 l 1
 440 0 l 1
 340 0 l 1
 168 270 l 1
 401 460 l 1
EndSplineSet
EndChar

StartChar: iacute
Encoding: 237 237 229
GlifName: iacute
Width: 260
VWidth: 0
Flags: HMW
LayerCount: 2
Fore
SplineSet
171 460 m 1
 251 460 l 1
 170 0 l 1
 90 0 l 1
 171 460 l 1
413 700 m 5
 207 550 l 5
 167 580 l 5
 345 740 l 5
 413 700 l 5
EndSplineSet
EndChar

StartChar: icircumflex
Encoding: 238 238 230
GlifName: icircumflex
Width: 260
VWidth: 0
Flags: HMW
LayerCount: 2
Fore
SplineSet
171 460 m 1
 251 460 l 1
 170 0 l 1
 90 0 l 1
 171 460 l 1
242 635 m 5
 115 540 l 5
 72 580 l 5
 257 720 l 5
 392 580 l 5
 335 540 l 5
 242 635 l 5
EndSplineSet
EndChar

StartChar: idieresis
Encoding: 239 239 231
GlifName: idieresis
Width: 260
VWidth: 0
Flags: HMW
LayerCount: 2
Fore
SplineSet
171 460 m 1
 251 460 l 1
 170 0 l 1
 90 0 l 1
 171 460 l 1
283 615 m 4
 288 645 318 670 348 670 c 4
 378 670 398 645 393 615 c 4
 388 585 359 560 329 560 c 4
 299 560 278 585 283 615 c 4
83 615 m 4
 88 645 118 670 148 670 c 4
 178 670 198 645 193 615 c 4
 188 585 159 560 129 560 c 4
 99 560 78 585 83 615 c 4
EndSplineSet
EndChar

StartChar: ntilde
Encoding: 241 241 232
GlifName: ntilde
Width: 525
VWidth: 0
Flags: HMW
LayerCount: 2
Fore
SplineSet
236 460 m 1
 155 0 l 1
 75 0 l 1
 156 460 l 1
 236 460 l 1
419 280 m 2
 432 356 407 395 342 395 c 0
 272 395 216 346 204 280 c 1
 168 280 l 1
 187 389 280 470 375 470 c 0
 470 470 522 409 501 290 c 2
 450 0 l 1
 370 0 l 1
 419 280 l 2
198 567 m 1
 217 616 271 649 316 649 c 4
 381 649 378 602 432 602 c 0
 451 602 471 618 497 650 c 1
 535 607 l 1
 512 570 466 534 416 534 c 0
 361 534 348 581 303 581 c 4
 262 581 247 545 244 530 c 1
 198 567 l 1
EndSplineSet
EndChar

StartChar: ograve
Encoding: 242 242 233
GlifName: ograve
Width: 546
VWidth: 0
Flags: HMW
LayerCount: 2
Fore
SplineSet
76 230 m 0
 101 369 221 470 356 470 c 0
 491 470 577 369 552 230 c 0
 527 91 406 -10 271 -10 c 0
 136 -10 51 91 76 230 c 0
157 230 m 0
 140 134 194 65 284 65 c 0
 374 65 454 134 471 230 c 0
 488 326 433 395 343 395 c 0
 253 395 174 326 157 230 c 0
236 700 m 5
 318 740 l 5
 440 580 l 5
 390 550 l 5
 236 700 l 5
EndSplineSet
EndChar

StartChar: oacute
Encoding: 243 243 234
GlifName: oacute
Width: 546
VWidth: 0
Flags: HMW
LayerCount: 2
Fore
SplineSet
76 230 m 0
 101 369 221 470 356 470 c 0
 491 470 577 369 552 230 c 0
 527 91 406 -10 271 -10 c 0
 136 -10 51 91 76 230 c 0
157 230 m 0
 140 134 194 65 284 65 c 0
 374 65 454 134 471 230 c 0
 488 326 433 395 343 395 c 0
 253 395 174 326 157 230 c 0
556 700 m 5
 350 550 l 5
 310 580 l 5
 488 740 l 5
 556 700 l 5
EndSplineSet
EndChar

StartChar: ocircumflex
Encoding: 244 244 235
GlifName: ocircumflex
Width: 546
VWidth: 0
Flags: HMW
LayerCount: 2
Fore
SplineSet
76 230 m 0
 101 369 221 470 356 470 c 0
 491 470 577 369 552 230 c 0
 527 91 406 -10 271 -10 c 0
 136 -10 51 91 76 230 c 0
157 230 m 0
 140 134 194 65 284 65 c 0
 374 65 454 134 471 230 c 0
 488 326 433 395 343 395 c 0
 253 395 174 326 157 230 c 0
387 645 m 5
 260 550 l 5
 217 590 l 5
 402 730 l 5
 537 590 l 5
 480 550 l 5
 387 645 l 5
EndSplineSet
EndChar

StartChar: otilde
Encoding: 245 245 236
GlifName: otilde
Width: 546
VWidth: 0
Flags: HMW
LayerCount: 2
Fore
SplineSet
76 230 m 0
 101 369 221 470 356 470 c 0
 491 470 577 369 552 230 c 0
 527 91 406 -10 271 -10 c 0
 136 -10 51 91 76 230 c 0
157 230 m 0
 140 134 194 65 284 65 c 0
 374 65 454 134 471 230 c 0
 488 326 433 395 343 395 c 0
 253 395 174 326 157 230 c 0
208 567 m 1
 227 616 281 649 326 649 c 4
 391 649 388 602 442 602 c 0
 461 602 481 618 507 650 c 1
 545 607 l 1
 522 570 476 534 426 534 c 0
 371 534 358 581 313 581 c 4
 272 581 257 545 254 530 c 1
 208 567 l 1
EndSplineSet
EndChar

StartChar: odieresis
Encoding: 246 246 237
GlifName: odieresis
Width: 546
VWidth: 0
Flags: HMW
LayerCount: 2
Fore
SplineSet
76 230 m 0
 101 369 221 470 356 470 c 0
 491 470 577 369 552 230 c 0
 527 91 406 -10 271 -10 c 0
 136 -10 51 91 76 230 c 0
157 230 m 0
 140 134 194 65 284 65 c 0
 374 65 454 134 471 230 c 0
 488 326 433 395 343 395 c 0
 253 395 174 326 157 230 c 0
426 615 m 4
 431 645 461 670 491 670 c 4
 521 670 541 645 536 615 c 4
 531 585 502 560 472 560 c 4
 442 560 421 585 426 615 c 4
226 615 m 4
 231 645 261 670 291 670 c 4
 321 670 341 645 336 615 c 4
 331 585 302 560 272 560 c 4
 242 560 221 585 226 615 c 4
EndSplineSet
EndChar

StartChar: ugrave
Encoding: 249 249 238
GlifName: ugrave
Width: 525
VWidth: 0
Flags: HMW
LayerCount: 2
Fore
SplineSet
370 0 m 1
 451 460 l 1
 531 460 l 1
 450 0 l 1
 370 0 l 1
187 180 m 2
 174 104 199 65 264 65 c 0
 334 65 390 114 402 180 c 1
 438 180 l 1
 419 71 326 -10 231 -10 c 0
 136 -10 84 51 105 170 c 2
 156 460 l 1
 236 460 l 1
 187 180 l 2
265 700 m 5
 348 740 l 5
 470 580 l 5
 419 550 l 5
 265 700 l 5
EndSplineSet
EndChar

StartChar: uacute
Encoding: 250 250 239
GlifName: uacute
Width: 525
VWidth: 0
Flags: HMW
LayerCount: 2
Fore
SplineSet
370 0 m 1
 451 460 l 1
 531 460 l 1
 450 0 l 1
 370 0 l 1
187 180 m 2
 174 104 199 65 264 65 c 0
 334 65 390 114 402 180 c 1
 438 180 l 1
 419 71 326 -10 231 -10 c 0
 136 -10 84 51 105 170 c 2
 156 460 l 1
 236 460 l 1
 187 180 l 2
505 700 m 5
 299 550 l 5
 260 580 l 5
 438 740 l 5
 505 700 l 5
EndSplineSet
EndChar

StartChar: ucircumflex
Encoding: 251 251 240
GlifName: ucircumflex
Width: 525
VWidth: 0
Flags: HMW
LayerCount: 2
Fore
SplineSet
370 0 m 1
 451 460 l 1
 531 460 l 1
 450 0 l 1
 370 0 l 1
187 180 m 2
 174 104 199 65 264 65 c 0
 334 65 390 114 402 180 c 1
 438 180 l 1
 419 71 326 -10 231 -10 c 0
 136 -10 84 51 105 170 c 2
 156 460 l 1
 236 460 l 1
 187 180 l 2
376 645 m 5
 249 550 l 5
 206 590 l 5
 391 730 l 5
 526 590 l 5
 469 550 l 5
 376 645 l 5
EndSplineSet
EndChar

StartChar: udieresis
Encoding: 252 252 241
GlifName: udieresis
Width: 525
VWidth: 0
Flags: HMW
LayerCount: 2
Fore
SplineSet
370 0 m 1
 451 460 l 1
 531 460 l 1
 450 0 l 1
 370 0 l 1
187 180 m 2
 174 104 199 65 264 65 c 0
 334 65 390 114 402 180 c 1
 438 180 l 1
 419 71 326 -10 231 -10 c 0
 136 -10 84 51 105 170 c 2
 156 460 l 1
 236 460 l 1
 187 180 l 2
415 605 m 4
 420 635 448 660 478 660 c 4
 508 660 530 635 525 605 c 4
 520 575 489 550 459 550 c 4
 429 550 410 575 415 605 c 4
215 605 m 4
 220 635 248 660 278 660 c 4
 308 660 330 635 325 605 c 4
 320 575 289 550 259 550 c 4
 229 550 210 575 215 605 c 4
EndSplineSet
EndChar

StartChar: yacute
Encoding: 253 253 242
GlifName: yacute
Width: 440
VWidth: 0
Flags: HMW
LayerCount: 2
Fore
SplineSet
521 460 m 1
 101 -220 l 1
 11 -220 l 1
 187 65 l 5
 81 460 l 5
 176 460 l 5
 259 100 l 5
 226 104 l 5
 431 460 l 1
 521 460 l 1
473 700 m 5
 267 550 l 5
 227 580 l 5
 405 740 l 5
 473 700 l 5
EndSplineSet
EndChar

StartChar: thorn
Encoding: 254 254 243
GlifName: thorn
Width: 570
VWidth: 0
Flags: HMW
LayerCount: 2
Fore
SplineSet
111 -220 m 1
 31 -220 l 1
 208 780 l 1
 288 780 l 1
 111 -220 l 1
576 230 m 0
 550 81 430 -10 305 -10 c 0
 190 -10 129 81 155 230 c 0
 181 379 275 470 390 470 c 0
 515 470 602 379 576 230 c 0
495 230 m 0
 514 336 452 395 367 395 c 0
 297 395 210 336 191 230 c 0
 172 124 238 65 308 65 c 0
 393 65 476 124 495 230 c 0
EndSplineSet
EndChar

StartChar: ydieresis
Encoding: 255 255 244
GlifName: ydieresis
Width: 440
VWidth: 0
Flags: HMW
LayerCount: 2
Fore
SplineSet
521 460 m 1
 101 -220 l 1
 11 -220 l 1
 187 65 l 5
 81 460 l 5
 176 460 l 5
 259 100 l 5
 226 104 l 5
 431 460 l 1
 521 460 l 1
368 585 m 4
 373 615 403 640 433 640 c 4
 463 640 483 615 478 585 c 4
 473 555 443 530 413 530 c 4
 383 530 363 555 368 585 c 4
168 585 m 4
 173 615 203 640 233 640 c 4
 263 640 283 615 278 585 c 4
 273 555 243 530 213 530 c 4
 183 530 163 555 168 585 c 4
EndSplineSet
EndChar

StartChar: Amacron
Encoding: 256 256 245
GlifName: A_macron
Width: 660
VWidth: 0
Flags: HMW
LayerCount: 2
Fore
SplineSet
184 210 m 1
 228 290 l 1
 538 290 l 1
 554 210 l 1
 184 210 l 1
426 542 m 1
 259 264 l 1
 247 246 l 1
 100 0 l 1
 5 0 l 1
 460 735 l 1
 655 0 l 1
 560 0 l 1
 500 240 l 1
 496 260 l 1
 426 542 l 1
295 795 m 5
 308 870 l 5
 658 870 l 5
 645 795 l 5
 295 795 l 5
EndSplineSet
EndChar

StartChar: amacron
Encoding: 257 257 246
GlifName: amacron
Width: 570
VWidth: 0
Flags: HMW
LayerCount: 2
Fore
SplineSet
506 460 m 1
 581 460 l 1
 500 0 l 1
 425 0 l 1
 506 460 l 1
76 230 m 0
 102 379 221 470 346 470 c 0
 461 470 523 379 497 230 c 0
 471 81 376 -10 261 -10 c 0
 136 -10 50 81 76 230 c 0
157 230 m 0
 138 124 199 65 284 65 c 0
 354 65 442 124 461 230 c 0
 480 336 413 395 343 395 c 0
 258 395 176 336 157 230 c 0
191 530 m 1
 205 605 l 1
 555 605 l 1
 541 530 l 1
 191 530 l 1
EndSplineSet
Substitution2: "alt a" amacron.alt
EndChar

StartChar: breve
Encoding: 728 728 247
GlifName: breve
Width: 546
VWidth: 0
Flags: HMW
LayerCount: 2
Fore
SplineSet
265 850 m 1
 336 850 l 1
 331 824 340 775 410 775 c 4
 480 775 505 824 510 850 c 1
 581 850 l 1
 569 781 503 710 398 710 c 0
 293 710 253 781 265 850 c 1
EndSplineSet
EndChar

StartChar: Abreve
Encoding: 258 258 248
GlifName: A_breve
Width: 660
VWidth: 0
Flags: HMW
LayerCount: 2
Fore
SplineSet
184 210 m 1
 228 290 l 1
 538 290 l 1
 554 210 l 1
 184 210 l 1
426 542 m 1
 259 264 l 1
 247 246 l 1
 100 0 l 1
 5 0 l 1
 460 735 l 1
 655 0 l 1
 560 0 l 1
 500 240 l 1
 496 260 l 1
 426 542 l 1
337 935 m 1
 408 935 l 1
 403 909 412 860 482 860 c 4
 552 860 577 909 582 935 c 1
 653 935 l 1
 641 866 575 795 470 795 c 0
 365 795 325 866 337 935 c 1
EndSplineSet
EndChar

StartChar: abreve
Encoding: 259 259 249
GlifName: abreve
Width: 570
VWidth: 0
Flags: HMW
LayerCount: 2
Fore
SplineSet
506 460 m 5
 581 460 l 5
 500 0 l 5
 425 0 l 5
 506 460 l 5
76 230 m 4
 102 379 221 470 346 470 c 4
 461 470 523 379 497 230 c 4
 471 81 376 -10 261 -10 c 4
 136 -10 50 81 76 230 c 4
157 230 m 4
 138 124 199 65 284 65 c 4
 354 65 442 124 461 230 c 4
 480 336 413 395 343 395 c 4
 258 395 176 336 157 230 c 4
223 670 m 5
 294 670 l 5
 289 644 298 595 368 595 c 4
 438 595 463 644 468 670 c 5
 539 670 l 5
 527 601 461 530 356 530 c 4
 251 530 211 601 223 670 c 5
EndSplineSet
Substitution2: "alt a" abreve.alt
EndChar

StartChar: Aogonek
Encoding: 260 260 250
GlifName: A_ogonek
Width: 660
VWidth: 0
Flags: HMW
LayerCount: 2
Fore
SplineSet
184 210 m 1
 228 290 l 1
 538 290 l 1
 554 210 l 1
 184 210 l 1
426 542 m 1
 259 264 l 1
 247 246 l 1
 100 0 l 1
 5 0 l 1
 460 735 l 1
 655 0 l 1
 560 0 l 1
 500 240 l 1
 496 260 l 1
 426 542 l 1
627 -130 m 1
 651 -180 l 1
 632 -200 599 -220 556 -220 c 0
 472 -220 441 -179 451 -120 c 1
 534 -100 l 5
 528 -136 544 -150 574 -150 c 4
 600 -150 611 -143 627 -130 c 1
534 -100 m 1
 451 -120 l 1
 461 -61 532 -11 608 25 c 1
 645 0 l 1
 589 -22 541 -63 534 -100 c 1
EndSplineSet
EndChar

StartChar: aogonek
Encoding: 261 261 251
GlifName: aogonek
Width: 570
VWidth: 0
Flags: HMW
LayerCount: 2
Fore
SplineSet
506 460 m 5xac
 581 460 l 5
 500 0 l 5
 425 0 l 5
 506 460 l 5xac
76 230 m 4
 102 379 221 470 346 470 c 4
 461 470 523 379 497 230 c 4
 471 81 376 -10 261 -10 c 4xd4
 136 -10 50 81 76 230 c 4
157 230 m 4
 138 124 199 65 284 65 c 4
 354 65 442 124 461 230 c 4
 480 336 413 395 343 395 c 4
 258 395 176 336 157 230 c 4
482 -130 m 5
 506 -180 l 5
 487 -200 454 -220 411 -220 c 4
 327 -220 296 -179 306 -120 c 5
 389 -100 l 5
 383 -136 399 -150 429 -150 c 4
 455 -150 466 -143 482 -130 c 5
389 -100 m 5
 306 -120 l 5
 316 -61 387 -11 463 25 c 5
 500 0 l 5xa4
 444 -22 396 -63 389 -100 c 5
EndSplineSet
Substitution2: "alt a" aogonek.alt
EndChar

StartChar: Cacute
Encoding: 262 262 252
GlifName: C_acute
Width: 685
VWidth: 0
Flags: HMW
LayerCount: 2
Fore
SplineSet
192 350 m 0
 163 187 265 75 403 75 c 4
 502 75 587 117 647 179 c 1
 627 67 l 1
 559 15 490 -10 388 -10 c 0
 194 -10 65 141 102 350 c 0
 139 559 321 710 515 710 c 0
 617 710 677 685 727 633 c 1
 707 521 l 1
 669 583 599 625 500 625 c 4
 362 625 221 513 192 350 c 0
682 920 m 5
 476 770 l 5
 436 800 l 5
 614 960 l 5
 682 920 l 5
EndSplineSet
EndChar

StartChar: cacute
Encoding: 263 263 253
GlifName: cacute
Width: 478
VWidth: 0
Flags: HMW
LayerCount: 2
Fore
SplineSet
152 230 m 0
 135 134 189 65 279 65 c 0
 353 65 425 104 454 149 c 1
 437 49 l 1
 398 11 329 -10 266 -10 c 0
 131 -10 46 91 71 230 c 0
 96 369 216 470 351 470 c 0
 414 470 475 448 500 411 c 1
 483 311 l 1
 470 356 412 395 338 395 c 0
 248 395 169 326 152 230 c 0
518 680 m 5
 311 530 l 5
 272 560 l 5
 450 720 l 5
 518 680 l 5
EndSplineSet
EndChar

StartChar: Ccircumflex
Encoding: 264 264 254
GlifName: C_circumflex
Width: 685
VWidth: 0
Flags: HMW
LayerCount: 2
Fore
SplineSet
192 350 m 0
 163 187 265 75 403 75 c 4
 502 75 587 117 647 179 c 1
 627 67 l 1
 559 15 490 -10 388 -10 c 0
 194 -10 65 141 102 350 c 0
 139 559 321 710 515 710 c 0
 617 710 677 685 727 633 c 1
 707 521 l 1
 669 583 599 625 500 625 c 4
 362 625 221 513 192 350 c 0
543 865 m 5
 416 770 l 5
 373 810 l 5
 558 950 l 5
 693 810 l 5
 636 770 l 5
 543 865 l 5
EndSplineSet
EndChar

StartChar: ccircumflex
Encoding: 265 265 255
GlifName: ccircumflex
Width: 478
VWidth: 0
Flags: HMW
LayerCount: 2
Fore
SplineSet
152 230 m 0
 135 134 189 65 279 65 c 0
 353 65 425 104 454 149 c 1
 437 49 l 1
 398 11 329 -10 266 -10 c 0
 131 -10 46 91 71 230 c 0
 96 369 216 470 351 470 c 0
 414 470 475 448 500 411 c 1
 483 311 l 1
 470 356 412 395 338 395 c 0
 248 395 169 326 152 230 c 0
378 625 m 5
 251 530 l 5
 209 570 l 5
 393 710 l 5
 529 570 l 5
 471 530 l 5
 378 625 l 5
EndSplineSet
EndChar

StartChar: Cdotaccent
Encoding: 266 266 256
GlifName: C_dotaccent
Width: 685
VWidth: 0
Flags: HMW
LayerCount: 2
Fore
SplineSet
192 350 m 0
 163 187 265 75 403 75 c 4
 502 75 587 117 647 179 c 1
 627 67 l 1
 559 15 490 -10 388 -10 c 0
 194 -10 65 141 102 350 c 0
 139 559 321 710 515 710 c 0
 617 710 677 685 727 633 c 1
 707 521 l 1
 669 583 599 625 500 625 c 4
 362 625 221 513 192 350 c 0
480 825 m 4
 485 855 515 880 545 880 c 4
 575 880 595 855 590 825 c 4
 585 795 556 770 526 770 c 4
 496 770 475 795 480 825 c 4
EndSplineSet
EndChar

StartChar: cdotaccent
Encoding: 267 267 257
GlifName: cdotaccent
Width: 478
VWidth: 0
Flags: HMW
LayerCount: 2
Fore
SplineSet
152 230 m 0
 135 134 189 65 279 65 c 0
 353 65 425 104 454 149 c 1
 437 49 l 1
 398 11 329 -10 266 -10 c 0
 131 -10 46 91 71 230 c 0
 96 369 216 470 351 470 c 0
 414 470 475 448 500 411 c 1
 483 311 l 1
 470 356 412 395 338 395 c 0
 248 395 169 326 152 230 c 0
316 585 m 4
 321 615 351 640 381 640 c 4
 411 640 431 615 426 585 c 4
 421 555 391 530 361 530 c 4
 331 530 311 555 316 585 c 4
EndSplineSet
EndChar

StartChar: Ccaron
Encoding: 268 268 258
GlifName: C_caron
Width: 685
VWidth: 0
Flags: HMW
LayerCount: 2
Fore
SplineSet
192 350 m 0
 163 187 265 75 403 75 c 4
 502 75 587 117 647 179 c 1
 627 67 l 1
 559 15 490 -10 388 -10 c 0
 194 -10 65 141 102 350 c 0
 139 559 321 710 515 710 c 0
 617 710 677 685 727 633 c 1
 707 521 l 1
 669 583 599 625 500 625 c 4
 362 625 221 513 192 350 c 0
541 855 m 5
 668 950 l 5
 710 910 l 5
 526 770 l 5
 390 910 l 5
 448 950 l 5
 541 855 l 5
EndSplineSet
EndChar

StartChar: ccaron
Encoding: 269 269 259
GlifName: ccaron
Width: 478
VWidth: 0
Flags: HMW
LayerCount: 2
Fore
SplineSet
152 230 m 0
 135 134 189 65 279 65 c 0
 353 65 425 104 454 149 c 1
 437 49 l 1
 398 11 329 -10 266 -10 c 0
 131 -10 46 91 71 230 c 0
 96 369 216 470 351 470 c 0
 414 470 475 448 500 411 c 1
 483 311 l 1
 470 356 412 395 338 395 c 0
 248 395 169 326 152 230 c 0
376 615 m 5
 503 710 l 5
 546 670 l 5
 361 530 l 5
 226 670 l 5
 283 710 l 5
 376 615 l 5
EndSplineSet
EndChar

StartChar: Dcaron
Encoding: 270 270 260
GlifName: D_caron
Width: 680
VWidth: 0
Flags: HMW
LayerCount: 2
Fore
SplineSet
235 615 m 1
 250 700 l 1
 413 700 l 2
 617 700 739 559 702 350 c 1
 617 350 l 1
 646 513 556 615 398 615 c 2
 235 615 l 1
290 0 m 2
 127 0 l 1
 142 85 l 1
 305 85 l 2
 463 85 588 187 617 350 c 1
 702 350 l 1
 665 141 494 0 290 0 c 2
203 700 m 1
 288 700 l 1
 165 0 l 1
 80 0 l 1
 203 700 l 1
451 855 m 5
 578 950 l 5
 620 910 l 5
 436 770 l 5
 300 910 l 5
 358 950 l 5
 451 855 l 5
EndSplineSet
EndChar

StartChar: dcaron
Encoding: 271 271 261
GlifName: dcaron
Width: 570
VWidth: 0
Flags: HMW
LayerCount: 2
Fore
SplineSet
558 780 m 5
 638 780 l 5
 500 0 l 5
 420 0 l 5
 558 780 l 5
76 230 m 4
 102 379 221 470 346 470 c 4
 461 470 523 379 497 230 c 4
 471 81 376 -10 261 -10 c 4
 136 -10 50 81 76 230 c 4
157 230 m 4
 138 124 199 65 284 65 c 4
 354 65 442 124 461 230 c 4
 480 336 413 395 343 395 c 4
 258 395 176 336 157 230 c 4
756 780 m 5
 830 750 l 5
 676 500 l 5
 622 521 l 5
 756 780 l 5
EndSplineSet
EndChar

StartChar: Dcroat
Encoding: 272 272 262
GlifName: D_croat
Width: 680
VWidth: 0
Flags: HMW
LayerCount: 2
Fore
SplineSet
235 615 m 1
 250 700 l 1
 413 700 l 2
 617 700 739 559 702 350 c 1
 617 350 l 1
 646 513 556 615 398 615 c 2
 235 615 l 1
290 0 m 2
 127 0 l 1
 142 85 l 1
 305 85 l 2
 463 85 588 187 617 350 c 1
 702 350 l 1
 665 141 494 0 290 0 c 2
203 700 m 1
 288 700 l 1
 165 0 l 1
 80 0 l 1
 203 700 l 1
60 310 m 5
 73 385 l 5
 373 385 l 5
 360 310 l 5
 60 310 l 5
EndSplineSet
EndChar

StartChar: dcroat
Encoding: 273 273 263
GlifName: dcroat
Width: 570
VWidth: 0
Flags: HMW
LayerCount: 2
Fore
SplineSet
399 590 m 1
 412 665 l 1
 712 665 l 1
 699 590 l 1
 399 590 l 1
558 780 m 1
 638 780 l 1
 500 0 l 1
 420 0 l 1
 558 780 l 1
76 230 m 0
 102 379 221 470 346 470 c 0
 461 470 523 379 497 230 c 0
 471 81 376 -10 261 -10 c 0
 136 -10 50 81 76 230 c 0
157 230 m 0
 138 124 199 65 284 65 c 0
 354 65 442 124 461 230 c 0
 480 336 413 395 343 395 c 0
 258 395 176 336 157 230 c 0
EndSplineSet
EndChar

StartChar: Emacron
Encoding: 274 274 264
GlifName: E_macron
Width: 550
VWidth: 0
Flags: HMW
LayerCount: 2
Fore
SplineSet
127 0 m 1
 141 80 l 1
 494 80 l 1
 480 0 l 1
 127 0 l 1
236 620 m 5
 250 700 l 1
 603 700 l 1
 589 620 l 5
 236 620 l 5
187 340 m 1
 201 420 l 1
 534 420 l 1
 520 340 l 1
 187 340 l 1
203 700 m 1
 288 700 l 1
 165 0 l 1
 80 0 l 1
 203 700 l 1
241 770 m 5
 254 845 l 5
 604 845 l 5
 591 770 l 5
 241 770 l 5
EndSplineSet
EndChar

StartChar: emacron
Encoding: 275 275 265
GlifName: emacron
Width: 515
VWidth: 0
Flags: HMW
LayerCount: 2
Fore
SplineSet
133 210 m 5
 145 278 l 5
 508 278 l 5
 516 210 l 5
 133 210 l 5
439 250 m 6
 454 336 424 400 334 400 c 4
 254 400 179 346 164 260 c 5
 157 230 l 5
 138 124 184 65 274 65 c 4
 341 65 393 98 433 148 c 5
 491 107 l 5
 433 37 370 -10 251 -10 c 4
 126 -10 51 91 76 230 c 4
 79 247 82 263 88 279 c 4
 127 392 227 470 346 470 c 4
 476 470 547 379 521 234 c 4
 520 226 518 218 516 210 c 5
 436 230 l 5
 439 250 l 6
181 530 m 5
 195 605 l 5
 545 605 l 5
 531 530 l 5
 181 530 l 5
EndSplineSet
EndChar

StartChar: Ebreve
Encoding: 276 276 266
GlifName: E_breve
Width: 550
VWidth: 0
Flags: HMW
LayerCount: 2
Fore
SplineSet
127 0 m 1
 141 80 l 1
 494 80 l 1
 480 0 l 1
 127 0 l 1
236 620 m 5
 250 700 l 1
 603 700 l 1
 589 620 l 5
 236 620 l 5
187 340 m 1
 201 420 l 1
 534 420 l 1
 520 340 l 1
 187 340 l 1
203 700 m 1
 288 700 l 1
 165 0 l 1
 80 0 l 1
 203 700 l 1
282 910 m 1
 353 910 l 1
 348 884 357 835 427 835 c 4
 497 835 522 884 527 910 c 1
 598 910 l 1
 586 841 521 770 416 770 c 0
 311 770 270 841 282 910 c 1
EndSplineSet
EndChar

StartChar: ebreve
Encoding: 277 277 267
GlifName: ebreve
Width: 515
VWidth: 0
Flags: HMW
LayerCount: 2
Fore
SplineSet
133 210 m 5
 145 278 l 5
 508 278 l 5
 516 210 l 5
 133 210 l 5
439 250 m 6
 454 336 424 400 334 400 c 4
 254 400 179 346 164 260 c 5
 157 230 l 5
 138 124 184 65 274 65 c 4
 341 65 393 98 433 148 c 5
 491 107 l 5
 433 37 370 -10 251 -10 c 4
 126 -10 51 91 76 230 c 4
 79 247 82 263 88 279 c 4
 127 392 227 470 346 470 c 4
 476 470 547 379 521 234 c 4
 520 226 518 218 516 210 c 5
 436 230 l 5
 439 250 l 6
223 670 m 1
 294 670 l 1
 289 644 298 595 368 595 c 4
 438 595 463 644 468 670 c 1
 539 670 l 1
 527 601 461 530 356 530 c 0
 251 530 211 601 223 670 c 1
EndSplineSet
EndChar

StartChar: Edotaccent
Encoding: 278 278 268
GlifName: E_dotaccent
Width: 550
VWidth: 0
Flags: HMW
LayerCount: 2
Fore
SplineSet
127 0 m 1
 141 80 l 1
 494 80 l 1
 480 0 l 1
 127 0 l 1
236 620 m 5
 250 700 l 1
 603 700 l 1
 589 620 l 5
 236 620 l 5
187 340 m 1
 201 420 l 1
 534 420 l 1
 520 340 l 1
 187 340 l 1
203 700 m 1
 288 700 l 1
 165 0 l 1
 80 0 l 1
 203 700 l 1
370 825 m 4
 375 855 405 880 435 880 c 4
 465 880 485 855 480 825 c 4
 475 795 446 770 416 770 c 4
 386 770 365 795 370 825 c 4
EndSplineSet
EndChar

StartChar: edotaccent
Encoding: 279 279 269
GlifName: edotaccent
Width: 515
VWidth: 0
Flags: HMW
LayerCount: 2
Fore
SplineSet
133 210 m 5
 145 278 l 5
 508 278 l 5
 516 210 l 5
 133 210 l 5
439 250 m 6
 454 336 424 400 334 400 c 4
 254 400 179 346 164 260 c 5
 157 230 l 5
 138 124 184 65 274 65 c 4
 341 65 393 98 433 148 c 5
 491 107 l 5
 433 37 370 -10 251 -10 c 4
 126 -10 51 91 76 230 c 4
 79 247 82 263 88 279 c 4
 127 392 227 470 346 470 c 4
 476 470 547 379 521 234 c 4
 520 226 518 218 516 210 c 5
 436 230 l 5
 439 250 l 6
311 585 m 4
 316 615 346 640 376 640 c 4
 406 640 426 615 421 585 c 4
 416 555 386 530 356 530 c 4
 326 530 306 555 311 585 c 4
EndSplineSet
EndChar

StartChar: Eogonek
Encoding: 280 280 270
GlifName: E_ogonek
Width: 550
VWidth: 0
Flags: HMW
LayerCount: 2
Fore
SplineSet
127 0 m 1
 141 80 l 1
 494 80 l 1
 480 0 l 1
 127 0 l 1
236 620 m 5
 250 700 l 1
 603 700 l 1
 589 620 l 5
 236 620 l 5
187 340 m 1
 201 420 l 1
 534 420 l 1
 520 340 l 1
 187 340 l 1
203 700 m 1
 288 700 l 1
 165 0 l 1
 80 0 l 1
 203 700 l 1
455 -131 m 1
 479 -181 l 1
 460 -201 427 -221 384 -221 c 0
 300 -221 269 -180 279 -121 c 1
 362 -101 l 5
 356 -137 371 -151 401 -151 c 4
 427 -151 439 -144 455 -131 c 1
362 -101 m 1
 279 -121 l 1
 289 -62 360 -12 436 24 c 1
 473 -1 l 1
 417 -23 369 -64 362 -101 c 1
EndSplineSet
EndChar

StartChar: eogonek
Encoding: 281 281 271
GlifName: eogonek
Width: 515
VWidth: 0
Flags: HMW
LayerCount: 2
Fore
SplineSet
133 210 m 5
 145 278 l 5
 508 278 l 5
 516 210 l 5
 133 210 l 5
439 250 m 6
 454 336 424 400 334 400 c 4
 254 400 179 346 164 260 c 5
 157 230 l 5
 138 124 184 65 274 65 c 4
 341 65 393 98 433 148 c 5
 491 107 l 5
 433 37 370 -10 251 -10 c 4
 126 -10 51 91 76 230 c 4
 79 247 82 263 88 279 c 4
 127 392 227 470 346 470 c 4
 476 470 547 379 521 234 c 4
 520 226 518 218 516 210 c 5
 436 230 l 5
 439 250 l 6
276 -133 m 1
 300 -183 l 1
 281 -203 248 -223 205 -223 c 0
 121 -223 89 -182 99 -123 c 1
 183 -103 l 5
 177 -139 192 -153 222 -153 c 4
 248 -153 260 -146 276 -133 c 1
183 -103 m 1
 99 -123 l 1
 109 -64 181 -14 257 22 c 1
 293 -3 l 1
 237 -25 190 -66 183 -103 c 1
EndSplineSet
EndChar

StartChar: Ecaron
Encoding: 282 282 272
GlifName: E_caron
Width: 550
VWidth: 0
Flags: HMW
LayerCount: 2
Fore
SplineSet
127 0 m 1
 141 80 l 1
 494 80 l 1
 480 0 l 1
 127 0 l 1
236 620 m 5
 250 700 l 1
 603 700 l 1
 589 620 l 5
 236 620 l 5
187 340 m 1
 201 420 l 1
 534 420 l 1
 520 340 l 1
 187 340 l 1
203 700 m 1
 288 700 l 1
 165 0 l 1
 80 0 l 1
 203 700 l 1
431 855 m 5
 558 950 l 5
 600 910 l 5
 416 770 l 5
 280 910 l 5
 338 950 l 5
 431 855 l 5
EndSplineSet
EndChar

StartChar: ecaron
Encoding: 283 283 273
GlifName: ecaron
Width: 515
VWidth: 0
Flags: HMW
LayerCount: 2
Fore
SplineSet
133 210 m 5
 145 278 l 5
 508 278 l 5
 516 210 l 5
 133 210 l 5
439 250 m 6
 454 336 424 400 334 400 c 4
 254 400 179 346 164 260 c 5
 157 230 l 5
 138 124 184 65 274 65 c 4
 341 65 393 98 433 148 c 5
 491 107 l 5
 433 37 370 -10 251 -10 c 4
 126 -10 51 91 76 230 c 4
 79 247 82 263 88 279 c 4
 127 392 227 470 346 470 c 4
 476 470 547 379 521 234 c 4
 520 226 518 218 516 210 c 5
 436 230 l 5
 439 250 l 6
371 615 m 5
 498 710 l 5
 541 670 l 5
 356 530 l 5
 221 670 l 5
 278 710 l 5
 371 615 l 5
EndSplineSet
EndChar

StartChar: Gcircumflex
Encoding: 284 284 274
GlifName: G_circumflex
Width: 775
VWidth: 0
Flags: HMW
LayerCount: 2
Fore
SplineSet
453 275 m 5
 468 355 l 5
 793 355 l 1
 723 275 l 1
 453 275 l 5
793 355 m 1
 759 161 607 -10 393 -10 c 0
 189 -10 65 141 102 350 c 0
 139 559 316 710 520 710 c 0
 649 710 742 658 785 561 c 1
 715 506 l 1
 684 580 612 625 505 625 c 0
 357 625 221 513 192 350 c 0
 163 187 260 75 408 75 c 0
 576 75 682 207 706 345 c 1
 793 355 l 1
548 865 m 5
 421 770 l 5
 378 810 l 5
 563 950 l 5
 698 810 l 5
 641 770 l 5
 548 865 l 5
EndSplineSet
EndChar

StartChar: gcircumflex
Encoding: 285 285 275
GlifName: gcircumflex
Width: 570
VWidth: 0
Flags: HMW
LayerCount: 2
Fore
SplineSet
497 230 m 5
 461 230 l 5
 480 336 413 395 343 395 c 4
 258 395 176 336 157 230 c 5
 76 230 l 5
 102 379 221 470 346 470 c 4
 461 470 523 379 497 230 c 5
461 230 m 5
 497 230 l 5
 471 81 376 -10 261 -10 c 4
 136 -10 50 81 76 230 c 5
 157 230 l 5
 138 124 199 65 284 65 c 4
 354 65 442 124 461 230 c 5
39 -30 m 1
 120 -30 l 1
 108 -96 155 -155 245 -155 c 0
 315 -155 402 -106 422 10 c 2
 501 460 l 1
 581 460 l 1
 502 10 l 2
 474 -149 346 -230 231 -230 c 0
 96 -230 18 -149 39 -30 c 1
373 625 m 5
 246 530 l 5
 204 570 l 5
 388 710 l 5
 524 570 l 5
 466 530 l 5
 373 625 l 5
EndSplineSet
EndChar

StartChar: Gbreve
Encoding: 286 286 276
GlifName: G_breve
Width: 775
VWidth: 0
Flags: HMW
LayerCount: 2
Fore
SplineSet
453 275 m 5
 468 355 l 5
 793 355 l 1
 723 275 l 1
 453 275 l 5
793 355 m 1
 759 161 607 -10 393 -10 c 0
 189 -10 65 141 102 350 c 0
 139 559 316 710 520 710 c 0
 649 710 742 658 785 561 c 1
 715 506 l 1
 684 580 612 625 505 625 c 0
 357 625 221 513 192 350 c 0
 163 187 260 75 408 75 c 0
 576 75 682 207 706 345 c 1
 793 355 l 1
397 910 m 1
 468 910 l 1
 463 884 472 835 542 835 c 4
 612 835 637 884 642 910 c 1
 713 910 l 1
 701 841 636 770 531 770 c 0
 426 770 385 841 397 910 c 1
EndSplineSet
EndChar

StartChar: gbreve
Encoding: 287 287 277
GlifName: gbreve
Width: 570
VWidth: 0
Flags: HMW
LayerCount: 2
Fore
SplineSet
497 230 m 5
 461 230 l 5
 480 336 413 395 343 395 c 4
 258 395 176 336 157 230 c 5
 76 230 l 5
 102 379 221 470 346 470 c 4
 461 470 523 379 497 230 c 5
461 230 m 5
 497 230 l 5
 471 81 376 -10 261 -10 c 4
 136 -10 50 81 76 230 c 5
 157 230 l 5
 138 124 199 65 284 65 c 4
 354 65 442 124 461 230 c 5
39 -30 m 1
 120 -30 l 1
 108 -96 155 -155 245 -155 c 0
 315 -155 402 -106 422 10 c 2
 501 460 l 1
 581 460 l 1
 502 10 l 2
 474 -149 346 -230 231 -230 c 0
 96 -230 18 -149 39 -30 c 1
223 670 m 1
 294 670 l 1
 289 644 298 595 368 595 c 4
 438 595 463 644 468 670 c 1
 539 670 l 1
 527 601 461 530 356 530 c 0
 251 530 211 601 223 670 c 1
EndSplineSet
EndChar

StartChar: Gdotaccent
Encoding: 288 288 278
GlifName: G_dotaccent
Width: 775
VWidth: 0
Flags: HMW
LayerCount: 2
Fore
SplineSet
453 275 m 5
 468 355 l 5
 793 355 l 1
 723 275 l 1
 453 275 l 5
793 355 m 1
 759 161 607 -10 393 -10 c 0
 189 -10 65 141 102 350 c 0
 139 559 316 710 520 710 c 0
 649 710 742 658 785 561 c 1
 715 506 l 1
 684 580 612 625 505 625 c 0
 357 625 221 513 192 350 c 0
 163 187 260 75 408 75 c 0
 576 75 682 207 706 345 c 1
 793 355 l 1
485 825 m 4
 490 855 520 880 550 880 c 4
 580 880 600 855 595 825 c 4
 590 795 561 770 531 770 c 4
 501 770 480 795 485 825 c 4
EndSplineSet
EndChar

StartChar: gdotaccent
Encoding: 289 289 279
GlifName: gdotaccent
Width: 570
VWidth: 0
Flags: HMW
LayerCount: 2
Fore
SplineSet
497 230 m 5
 461 230 l 5
 480 336 413 395 343 395 c 4
 258 395 176 336 157 230 c 5
 76 230 l 5
 102 379 221 470 346 470 c 4
 461 470 523 379 497 230 c 5
461 230 m 5
 497 230 l 5
 471 81 376 -10 261 -10 c 4
 136 -10 50 81 76 230 c 5
 157 230 l 5
 138 124 199 65 284 65 c 4
 354 65 442 124 461 230 c 5
39 -30 m 1
 120 -30 l 1
 108 -96 155 -155 245 -155 c 0
 315 -155 402 -106 422 10 c 2
 501 460 l 1
 581 460 l 1
 502 10 l 2
 474 -149 346 -230 231 -230 c 0
 96 -230 18 -149 39 -30 c 1
311 585 m 4
 316 615 346 640 376 640 c 4
 406 640 426 615 421 585 c 4
 416 555 386 530 356 530 c 4
 326 530 306 555 311 585 c 4
EndSplineSet
EndChar

StartChar: uni0122
Encoding: 290 290 280
GlifName: uni0122
Width: 775
VWidth: 0
Flags: HMW
LayerCount: 2
Fore
SplineSet
453 275 m 5
 468 355 l 5
 793 355 l 1
 723 275 l 1
 453 275 l 5
793 355 m 1
 759 161 607 -10 393 -10 c 0
 189 -10 65 141 102 350 c 0
 139 559 316 710 520 710 c 0
 649 710 742 658 785 561 c 1
 715 506 l 1
 684 580 612 625 505 625 c 0
 357 625 221 513 192 350 c 0
 163 187 260 75 408 75 c 0
 576 75 682 207 706 345 c 1
 793 355 l 1
387 -70 m 5
 461 -100 l 5
 307 -350 l 5
 253 -329 l 5
 387 -70 l 5
EndSplineSet
EndChar

StartChar: Hcircumflex
Encoding: 292 292 281
GlifName: H_circumflex
Width: 715
VWidth: 0
Flags: HMW
LayerCount: 2
Fore
SplineSet
187 340 m 5
 201 420 l 5
 681 420 l 5
 667 340 l 5
 187 340 l 5
673 700 m 5
 758 700 l 5
 635 0 l 5
 550 0 l 5
 673 700 l 5
203 700 m 1
 288 700 l 1
 165 0 l 1
 80 0 l 1
 203 700 l 1
511 865 m 5
 384 770 l 5
 341 810 l 5
 526 950 l 5
 661 810 l 5
 604 770 l 5
 511 865 l 5
EndSplineSet
EndChar

StartChar: hcircumflex
Encoding: 293 293 282
GlifName: hcircumflex
Width: 525
VWidth: 0
Flags: HMW
LayerCount: 2
Fore
SplineSet
293 780 m 1
 155 0 l 1
 75 0 l 1
 213 780 l 1
 293 780 l 1
419 280 m 2
 432 356 407 395 342 395 c 0
 272 395 216 346 204 280 c 1
 168 280 l 1
 187 389 280 470 375 470 c 0
 470 470 522 409 501 290 c 2
 450 0 l 1
 370 0 l 1
 419 280 l 2
287 935 m 5
 160 840 l 5
 117 880 l 5
 302 1020 l 5
 437 880 l 5
 380 840 l 5
 287 935 l 5
EndSplineSet
EndChar

StartChar: Itilde
Encoding: 296 296 283
GlifName: I_tilde
Width: 245
VWidth: 0
Flags: HMW
LayerCount: 2
Fore
SplineSet
203 700 m 5
 288 700 l 5
 165 0 l 5
 80 0 l 5
 203 700 l 5
100 807 m 1
 119 856 174 889 219 889 c 4
 284 889 280 842 334 842 c 0
 353 842 373 858 399 890 c 1
 437 847 l 1
 414 810 368 774 318 774 c 0
 263 774 251 821 206 821 c 4
 165 821 150 785 147 770 c 1
 100 807 l 1
EndSplineSet
EndChar

StartChar: itilde
Encoding: 297 297 284
GlifName: itilde
Width: 260
VWidth: 0
Flags: HMW
LayerCount: 2
Fore
SplineSet
171 460 m 1
 251 460 l 1
 170 0 l 1
 90 0 l 1
 171 460 l 1
65 567 m 1
 84 616 138 649 183 649 c 4
 248 649 245 602 299 602 c 0
 318 602 338 618 364 650 c 1
 402 607 l 1
 379 570 333 534 283 534 c 0
 228 534 215 581 170 581 c 4
 129 581 114 545 111 530 c 1
 65 567 l 1
EndSplineSet
EndChar

StartChar: Imacron
Encoding: 298 298 285
GlifName: I_macron
Width: 245
VWidth: 0
Flags: HMW
LayerCount: 2
Fore
SplineSet
203 700 m 5
 288 700 l 5
 165 0 l 5
 80 0 l 5
 203 700 l 5
84 770 m 5
 97 845 l 5
 447 845 l 5
 434 770 l 5
 84 770 l 5
EndSplineSet
EndChar

StartChar: imacron
Encoding: 299 299 286
GlifName: imacron
Width: 260
VWidth: 0
Flags: HMW
LayerCount: 2
Fore
SplineSet
171 460 m 1
 251 460 l 1
 170 0 l 1
 90 0 l 1
 171 460 l 1
48 530 m 5
 62 605 l 5
 412 605 l 5
 398 530 l 5
 48 530 l 5
EndSplineSet
EndChar

StartChar: Ibreve
Encoding: 300 300 287
GlifName: I_breve
Width: 245
VWidth: 0
Flags: HMW
LayerCount: 2
Fore
SplineSet
203 700 m 5
 288 700 l 5
 165 0 l 5
 80 0 l 5
 203 700 l 5
125 910 m 1
 196 910 l 1
 191 884 200 835 270 835 c 4
 340 835 365 884 370 910 c 1
 441 910 l 1
 429 841 364 770 259 770 c 0
 154 770 113 841 125 910 c 1
EndSplineSet
EndChar

StartChar: ibreve
Encoding: 301 301 288
GlifName: ibreve
Width: 260
VWidth: 0
Flags: HMW
LayerCount: 2
Fore
SplineSet
171 460 m 1
 251 460 l 1
 170 0 l 1
 90 0 l 1
 171 460 l 1
90 670 m 1
 161 670 l 1
 156 644 165 595 235 595 c 4
 305 595 330 644 335 670 c 1
 406 670 l 1
 394 601 328 530 223 530 c 0
 118 530 78 601 90 670 c 1
EndSplineSet
EndChar

StartChar: Iogonek
Encoding: 302 302 289
GlifName: I_ogonek
Width: 245
VWidth: 0
Flags: HMW
LayerCount: 2
Fore
SplineSet
203 700 m 5
 288 700 l 5
 165 0 l 5
 80 0 l 5
 203 700 l 5
143 -147 m 1
 167 -197 l 1
 148 -217 115 -237 72 -237 c 0
 -12 -237 -43 -196 -33 -137 c 1
 50 -117 l 5
 44 -153 60 -167 90 -167 c 4
 116 -167 127 -160 143 -147 c 1
50 -117 m 1
 -33 -137 l 1
 -23 -78 48 -28 124 8 c 1
 161 -17 l 1
 105 -39 57 -80 50 -117 c 1
EndSplineSet
EndChar

StartChar: iogonek
Encoding: 303 303 290
GlifName: iogonek
Width: 260
VWidth: 0
Flags: HMW
LayerCount: 2
Fore
SplineSet
190 650 m 0
 195 680 224 705 254 705 c 0
 284 705 305 680 300 650 c 0
 295 620 265 595 235 595 c 0
 205 595 185 620 190 650 c 0
171 460 m 5
 251 460 l 5
 170 0 l 5
 90 0 l 5
 171 460 l 5
150 -147 m 1
 174 -197 l 1
 155 -217 122 -237 79 -237 c 0
 -5 -237 -36 -196 -26 -137 c 1
 57 -117 l 5
 51 -153 67 -167 97 -167 c 4
 123 -167 134 -160 150 -147 c 1
57 -117 m 1
 -26 -137 l 1
 -16 -78 55 -28 131 8 c 1
 168 -17 l 1
 112 -39 64 -80 57 -117 c 1
EndSplineSet
EndChar

StartChar: Idotaccent
Encoding: 304 304 291
GlifName: I_dotaccent
Width: 245
VWidth: 0
Flags: HMW
LayerCount: 2
Fore
SplineSet
203 700 m 5
 288 700 l 5
 165 0 l 5
 80 0 l 5
 203 700 l 5
212 825 m 4
 217 855 247 880 277 880 c 4
 307 880 327 855 322 825 c 4
 317 795 288 770 258 770 c 4
 228 770 207 795 212 825 c 4
EndSplineSet
EndChar

StartChar: uni0136
Encoding: 310 310 292
GlifName: uni0136
Width: 565
VWidth: 0
Flags: HMW
LayerCount: 2
Fore
SplineSet
203 700 m 1
 288 700 l 1
 165 0 l 1
 80 0 l 1
 203 700 l 1
563 700 m 1
 668 700 l 1
 308 372 l 1
 560 0 l 1
 455 0 l 1
 204 370 l 5
 563 700 l 1
313 -60 m 5
 388 -90 l 5
 234 -340 l 5
 180 -319 l 5
 313 -60 l 5
EndSplineSet
EndChar

StartChar: uni0137
Encoding: 311 311 293
GlifName: uni0137
Width: 440
VWidth: 0
Flags: HMW
LayerCount: 2
Fore
SplineSet
208 780 m 1
 288 780 l 1
 150 0 l 1
 70 0 l 1
 208 780 l 1
401 460 m 1
 501 460 l 1
 268 270 l 1
 440 0 l 1
 340 0 l 1
 168 270 l 1
 401 460 l 1
248 -60 m 5
 323 -90 l 5
 169 -340 l 5
 115 -319 l 5
 248 -60 l 5
EndSplineSet
EndChar

StartChar: Lacute
Encoding: 313 313 294
GlifName: L_acute
Width: 450
VWidth: 0
Flags: HMW
LayerCount: 2
Fore
SplineSet
127 0 m 5
 141 80 l 5
 454 80 l 5
 440 0 l 5
 127 0 l 5
203 700 m 5
 288 700 l 5
 165 0 l 5
 80 0 l 5
 203 700 l 5
552 920 m 5
 346 770 l 5
 306 800 l 5
 484 960 l 5
 552 920 l 5
EndSplineSet
EndChar

StartChar: lacute
Encoding: 314 314 295
GlifName: lacute
Width: 230
VWidth: 0
Flags: HMW
LayerCount: 2
Fore
SplineSet
213 780 m 5
 293 780 l 5
 155 0 l 5
 75 0 l 5
 213 780 l 5
420 990 m 5
 213 840 l 5
 173 870 l 5
 352 1030 l 5
 420 990 l 5
EndSplineSet
EndChar

StartChar: uni013B
Encoding: 315 315 296
GlifName: uni013B_
Width: 450
VWidth: 0
Flags: HMW
LayerCount: 2
Fore
SplineSet
127 0 m 5
 141 80 l 5
 454 80 l 5
 440 0 l 5
 127 0 l 5
203 700 m 5
 288 700 l 5
 165 0 l 5
 80 0 l 5
 203 700 l 5
253 -60 m 5
 328 -90 l 5
 174 -340 l 5
 120 -319 l 5
 253 -60 l 5
EndSplineSet
EndChar

StartChar: uni013C
Encoding: 316 316 297
GlifName: uni013C_
Width: 230
VWidth: 0
Flags: HMW
LayerCount: 2
Fore
SplineSet
213 780 m 5
 293 780 l 5
 155 0 l 5
 75 0 l 5
 213 780 l 5
108 -60 m 5
 183 -90 l 5
 29 -340 l 5
 -25 -319 l 5
 108 -60 l 5
EndSplineSet
EndChar

StartChar: Lcaron
Encoding: 317 317 298
GlifName: L_caron
Width: 450
VWidth: 0
Flags: HMW
LayerCount: 2
Fore
SplineSet
127 0 m 5
 141 80 l 5
 454 80 l 5
 440 0 l 5
 127 0 l 5
203 700 m 5
 288 700 l 5
 165 0 l 5
 80 0 l 5
 203 700 l 5
443 710 m 5
 518 680 l 5
 364 430 l 5
 310 451 l 5
 443 710 l 5
EndSplineSet
EndChar

StartChar: lcaron
Encoding: 318 318 299
GlifName: lcaron
Width: 230
VWidth: 0
Flags: HMW
LayerCount: 2
Fore
SplineSet
213 780 m 5
 293 780 l 5
 155 0 l 5
 75 0 l 5
 213 780 l 5
431 780 m 5
 505 750 l 5
 351 500 l 5
 297 521 l 5
 431 780 l 5
EndSplineSet
EndChar

StartChar: Ldot
Encoding: 319 319 300
GlifName: L_dot
Width: 450
VWidth: 0
Flags: HMW
LayerCount: 2
Fore
SplineSet
127 0 m 5
 141 80 l 5
 454 80 l 5
 440 0 l 5
 127 0 l 5
203 700 m 5
 288 700 l 5
 165 0 l 5
 80 0 l 5
 203 700 l 5
338 415 m 4
 343 445 373 470 403 470 c 4
 433 470 453 445 448 415 c 4
 443 385 413 360 383 360 c 4
 353 360 333 385 338 415 c 4
EndSplineSet
EndChar

StartChar: ldot
Encoding: 320 320 301
GlifName: ldot
Width: 370
VWidth: 0
Flags: HMW
LayerCount: 2
Fore
SplineSet
213 780 m 5
 293 780 l 5
 155 0 l 5
 75 0 l 5
 213 780 l 5
288 415 m 4
 293 445 323 470 353 470 c 4
 383 470 403 445 398 415 c 4
 393 385 363 360 333 360 c 4
 303 360 283 385 288 415 c 4
EndSplineSet
EndChar

StartChar: eth
Encoding: 240 240 302
GlifName: eth
Width: 576
VWidth: 0
Flags: HMW
LayerCount: 2
Fore
SplineSet
486 230 m 4
 503 326 448 395 358 395 c 4
 268 395 189 326 172 230 c 4
 155 134 210 67 300 67 c 4
 390 67 469 134 486 230 c 4
369 700 m 5
 548 375 l 6
 568 338 577 287 567 230 c 4
 542 86 421 -10 286 -10 c 4
 151 -10 66 86 91 230 c 4
 114 359 224 457 338 457 c 4
 383 457 416 449 437 416 c 5
 430 411 l 5
 262 700 l 5
 369 700 l 5
247 520 m 1
 258 585 l 1
 558 585 l 1
 547 520 l 1
 247 520 l 1
EndSplineSet
EndChar

StartChar: racute
Encoding: 341 341 303
GlifName: racute
Width: 343
VWidth: 0
Flags: MW
LayerCount: 2
Fore
SplineSet
236 460 m 1
 155 0 l 1
 75 0 l 1
 156 460 l 1
 236 460 l 1
360 372 m 1
 341 388 328 395 302 395 c 0
 242 395 216 346 204 280 c 1
 168 280 l 1
 187 389 270 470 335 470 c 0
 368 470 395 463 415 438 c 1
 360 372 l 1
456 680 m 5
 249 530 l 5
 211 560 l 5
 389 720 l 5
 456 680 l 5
EndSplineSet
EndChar

StartChar: rcaron
Encoding: 345 345 304
GlifName: rcaron
Width: 343
VWidth: 0
Flags: MW
LayerCount: 2
Fore
SplineSet
236 460 m 1
 155 0 l 1
 75 0 l 1
 156 460 l 1
 236 460 l 1
360 372 m 1
 341 388 328 395 302 395 c 0
 242 395 216 346 204 280 c 1
 168 280 l 1
 187 389 270 470 335 470 c 0
 368 470 395 463 415 438 c 1
 360 372 l 1
314 615 m 5
 441 710 l 5
 484 670 l 5
 299 530 l 5
 164 670 l 5
 221 710 l 5
 314 615 l 5
EndSplineSet
EndChar

StartChar: Rcaron
Encoding: 344 344 305
GlifName: R_caron
Width: 560
VWidth: 0
Flags: MW
LayerCount: 2
Fore
SplineSet
266 345 m 1
 361 345 l 1
 550 0 l 1
 445 0 l 1
 266 345 l 1
203 700 m 1
 288 700 l 1
 165 0 l 1
 80 0 l 1
 203 700 l 1
237 625 m 1
 250 700 l 1
 393 700 l 2
 528 700 617 619 594 490 c 0
 571 361 454 280 319 280 c 2
 176 280 l 1
 190 355 l 1
 333 355 l 2
 423 355 494 404 509 490 c 0
 524 576 470 625 380 625 c 2
 237 625 l 1
406 855 m 5
 533 950 l 5
 575 910 l 5
 391 770 l 5
 255 910 l 5
 313 950 l 5
 406 855 l 5
EndSplineSet
EndChar

StartChar: uni0213
Encoding: 531 531 306
GlifName: uni0213
Width: 343
VWidth: 0
Flags: MW
LayerCount: 2
Fore
SplineSet
236 460 m 1
 155 0 l 1
 75 0 l 1
 156 460 l 1
 236 460 l 1
360 372 m 1
 341 388 328 395 302 395 c 0
 242 395 216 346 204 280 c 1
 168 280 l 1
 187 389 270 470 335 470 c 0
 368 470 395 463 415 438 c 1
 360 372 l 1
142 530 m 1
 213 530 l 1
 218 556 244 605 314 605 c 4
 384 605 392 556 387 530 c 1
 458 530 l 1
 470 599 430 670 325 670 c 0
 220 670 154 599 142 530 c 1
EndSplineSet
EndChar

StartChar: uni0212
Encoding: 530 530 307
GlifName: uni0212
Width: 560
VWidth: 0
Flags: MW
LayerCount: 2
Fore
SplineSet
266 345 m 1
 361 345 l 1
 550 0 l 1
 445 0 l 1
 266 345 l 1
203 700 m 1
 288 700 l 1
 165 0 l 1
 80 0 l 1
 203 700 l 1
237 625 m 1
 250 700 l 1
 393 700 l 2
 528 700 617 619 594 490 c 0
 571 361 454 280 319 280 c 2
 176 280 l 1
 190 355 l 1
 333 355 l 2
 423 355 494 404 509 490 c 0
 524 576 470 625 380 625 c 2
 237 625 l 1
253 770 m 5
 324 770 l 5
 329 796 354 845 424 845 c 4
 494 845 503 796 498 770 c 5
 569 770 l 5
 581 839 540 910 435 910 c 4
 330 910 265 839 253 770 c 5
EndSplineSet
EndChar

StartChar: OE
Encoding: 338 338 308
GlifName: O_E_
Width: 985
VWidth: 0
Flags: MW
LayerCount: 2
Fore
SplineSet
622 340 m 5
 636 420 l 5
 969 420 l 5
 955 340 l 5
 622 340 l 5
633 670 m 5
 718 670 l 5
 605 30 l 5
 520 30 l 5
 633 670 l 5
930 80 m 5
 916 0 l 5
 390 0 l 6
 187 0 65 141 102 350 c 4
 139 559 309 700 513 700 c 6
 1038 700 l 5
 1024 620 l 5
 677 620 l 5
 660 620 l 5
 499 620 l 6
 341 620 216 513 187 350 c 4
 158 187 247 80 404 80 c 6
 562 80 l 5
 586 80 l 5
 930 80 l 5
EndSplineSet
EndChar

StartChar: oe
Encoding: 339 339 309
GlifName: oe
Width: 900
VWidth: 0
Flags: MW
LayerCount: 2
Fore
SplineSet
824 250 m 6
 839 336 809 400 719 400 c 4
 639 400 564 346 549 260 c 5
 542 230 l 5
 523 124 569 65 659 65 c 4
 726 65 778 98 818 148 c 5
 876 107 l 5
 818 37 745 -10 646 -10 c 4
 521 -10 446 91 471 230 c 4
 474 247 477 263 483 279 c 4
 522 392 622 470 741 470 c 4
 851 470 932 379 906 234 c 4
 905 226 903 218 901 210 c 5
 821 230 l 5
 824 250 l 6
518 210 m 5
 530 278 l 5
 893 278 l 5
 901 210 l 5
 518 210 l 5
76 230 m 4
 102 379 221 470 346 470 c 4
 471 470 533 379 507 230 c 4
 481 81 386 -10 261 -10 c 4
 136 -10 50 81 76 230 c 4
157 230 m 4
 138 124 199 65 284 65 c 4
 354 65 432 124 451 230 c 4
 470 336 413 395 343 395 c 4
 258 395 176 336 157 230 c 4
EndSplineSet
EndChar

StartChar: a.alt
Encoding: 65536 -1 310
GlifName: a.alt
Width: 485
VWidth: 0
Flags: MW
LayerCount: 2
Fore
SplineSet
135 135 m 0
 126 86 155 61 219 61 c 0
 299 61 362 94 377 180 c 1
 384 130 l 1
 368 41 281 -10 186 -10 c 0
 91 -10 37 41 52 125 c 0
 71 232 165 286 276 286 c 0
 364 286 407 242 418 225 c 1
 409 178 l 1
 370 210 328 225 270 225 c 0
 189 225 145 191 135 135 c 0
173 352 m 1
 145 413 l 1
 183 438 248 470 331 470 c 0
 436 470 499 419 483 330 c 2
 425 0 l 1
 345 0 l 1
 403 330 l 2
 411 376 369 400 319 400 c 0
 253 400 198 368 173 352 c 1
EndSplineSet
EndChar

StartChar: Jcircumflex
Encoding: 308 308 312
GlifName: J_circumflex
Width: 240
VWidth: 0
Flags: MW
LayerCount: 2
Fore
SplineSet
-85 -104 m 5
 -75 -127 -49 -140 -13 -140 c 4
 17 -140 59 -116 71 -50 c 6
 203 700 l 5
 283 700 l 5
 149 -60 l 6
 130 -169 62 -220 -32 -220 c 4
 -85 -220 -130 -190 -141 -170 c 5
 -85 -104 l 5
273 865 m 5
 146 770 l 5
 103 810 l 5
 288 950 l 5
 423 810 l 5
 366 770 l 5
 273 865 l 5
EndSplineSet
EndChar

StartChar: jcircumflex
Encoding: 309 309 313
GlifName: jcircumflex
Width: 250
VWidth: 0
Flags: MW
LayerCount: 2
Fore
SplineSet
-37 -114 m 1
 -27 -137 -9 -140 7 -140 c 0
 37 -140 59 -116 71 -50 c 2
 161 460 l 1
 241 460 l 1
 149 -60 l 2
 130 -169 72 -220 -12 -220 c 0
 -55 -220 -82 -200 -93 -180 c 1
 -37 -114 l 1
230 625 m 5
 103 530 l 5
 61 570 l 5
 245 710 l 5
 381 570 l 5
 323 530 l 5
 230 625 l 5
EndSplineSet
EndChar

StartChar: Nacute
Encoding: 323 323 314
GlifName: N_acute
Width: 775
VWidth: 0
Flags: MW
LayerCount: 2
Fore
SplineSet
192 605 m 1
 210 735 l 1
 707 95 l 5
 689 -35 l 5
 192 605 l 1
733 700 m 5
 818 700 l 5
 689 -35 l 5
 623 75 l 5
 733 700 l 5
210 735 m 1
 275 625 l 1
 165 0 l 1
 80 0 l 1
 210 735 l 1
691 915 m 5
 485 765 l 5
 445 795 l 5
 623 955 l 5
 691 915 l 5
EndSplineSet
EndChar

StartChar: nacute
Encoding: 324 324 315
GlifName: nacute
Width: 525
VWidth: 0
Flags: MW
LayerCount: 2
Fore
SplineSet
236 460 m 1
 155 0 l 1
 75 0 l 1
 156 460 l 1
 236 460 l 1
419 280 m 2
 432 356 407 395 342 395 c 0
 272 395 216 346 204 280 c 1
 168 280 l 1
 187 389 280 470 375 470 c 0
 470 470 522 409 501 290 c 2
 450 0 l 1
 370 0 l 1
 419 280 l 2
512 680 m 5
 305 530 l 5
 267 560 l 5
 445 720 l 5
 512 680 l 5
EndSplineSet
EndChar

StartChar: uni0145
Encoding: 325 325 316
GlifName: uni0145
Width: 775
VWidth: 0
Flags: MW
LayerCount: 2
Fore
SplineSet
192 605 m 1
 210 735 l 1
 707 95 l 5
 689 -35 l 5
 192 605 l 1
733 700 m 5
 818 700 l 5
 689 -35 l 5
 623 75 l 5
 733 700 l 5
210 735 m 1
 275 625 l 1
 165 0 l 1
 80 0 l 1
 210 735 l 1
393 -35 m 5
 468 -65 l 5
 313 -315 l 5
 259 -294 l 5
 393 -35 l 5
EndSplineSet
EndChar

StartChar: uni0146
Encoding: 326 326 317
GlifName: uni0146
Width: 525
VWidth: 0
Flags: MW
LayerCount: 2
Fore
SplineSet
236 460 m 1
 155 0 l 1
 75 0 l 1
 156 460 l 1
 236 460 l 1
419 280 m 2
 432 356 407 395 342 395 c 0
 272 395 216 346 204 280 c 1
 168 280 l 1
 187 389 280 470 375 470 c 0
 470 470 522 409 501 290 c 2
 450 0 l 1
 370 0 l 1
 419 280 l 2
255 -60 m 5
 330 -90 l 5
 176 -340 l 5
 122 -319 l 5
 255 -60 l 5
EndSplineSet
EndChar

StartChar: Ncaron
Encoding: 327 327 318
GlifName: N_caron
Width: 775
VWidth: 0
Flags: MW
LayerCount: 2
Fore
SplineSet
192 605 m 1
 210 735 l 1
 707 95 l 5
 689 -35 l 5
 192 605 l 1
733 700 m 5
 818 700 l 5
 689 -35 l 5
 623 75 l 5
 733 700 l 5
210 735 m 1
 275 625 l 1
 165 0 l 1
 80 0 l 1
 210 735 l 1
555 880 m 5
 682 975 l 5
 725 935 l 5
 540 795 l 5
 405 935 l 5
 462 975 l 5
 555 880 l 5
EndSplineSet
EndChar

StartChar: ncaron
Encoding: 328 328 319
GlifName: ncaron
Width: 525
VWidth: 0
Flags: MW
LayerCount: 2
Fore
SplineSet
236 460 m 1
 155 0 l 1
 75 0 l 1
 156 460 l 1
 236 460 l 1
419 280 m 2
 432 356 407 395 342 395 c 0
 272 395 216 346 204 280 c 1
 168 280 l 1
 187 389 280 470 375 470 c 0
 470 470 522 409 501 290 c 2
 450 0 l 1
 370 0 l 1
 419 280 l 2
370 615 m 5
 497 710 l 5
 540 670 l 5
 355 530 l 5
 220 670 l 5
 277 710 l 5
 370 615 l 5
EndSplineSet
EndChar

StartChar: Omacron
Encoding: 332 332 320
GlifName: O_macron
Width: 790
VWidth: 0
Flags: MW
LayerCount: 2
Fore
SplineSet
192 350 m 4
 164 192 255 75 408 75 c 4
 561 75 694 192 722 350 c 4
 750 508 658 625 505 625 c 4
 352 625 220 508 192 350 c 4
102 350 m 4
 138 554 316 710 520 710 c 4
 724 710 848 554 812 350 c 4
 776 146 597 -10 393 -10 c 4
 189 -10 66 146 102 350 c 4
356 770 m 5
 369 845 l 5
 719 845 l 5
 706 770 l 5
 356 770 l 5
EndSplineSet
EndChar

StartChar: omacron
Encoding: 333 333 321
GlifName: omacron
Width: 546
VWidth: 0
Flags: MW
LayerCount: 2
Fore
SplineSet
76 230 m 0
 101 369 221 470 356 470 c 0
 491 470 577 369 552 230 c 0
 527 91 406 -10 271 -10 c 0
 136 -10 51 91 76 230 c 0
157 230 m 0
 140 134 194 65 284 65 c 0
 374 65 454 134 471 230 c 0
 488 326 433 395 343 395 c 0
 253 395 174 326 157 230 c 0
191 530 m 5
 205 605 l 5
 555 605 l 5
 541 530 l 5
 191 530 l 5
EndSplineSet
EndChar

StartChar: Obreve
Encoding: 334 334 322
GlifName: O_breve
Width: 790
VWidth: 0
Flags: MW
LayerCount: 2
Fore
SplineSet
192 350 m 4
 164 192 255 75 408 75 c 4
 561 75 694 192 722 350 c 4
 750 508 658 625 505 625 c 4
 352 625 220 508 192 350 c 4
102 350 m 4
 138 554 316 710 520 710 c 4
 724 710 848 554 812 350 c 4
 776 146 597 -10 393 -10 c 4
 189 -10 66 146 102 350 c 4
397 910 m 1
 468 910 l 1
 463 884 472 835 542 835 c 4
 612 835 637 884 642 910 c 1
 713 910 l 1
 701 841 636 770 531 770 c 0
 426 770 385 841 397 910 c 1
EndSplineSet
EndChar

StartChar: obreve
Encoding: 335 335 323
GlifName: obreve
Width: 546
VWidth: 0
Flags: MW
LayerCount: 2
Fore
SplineSet
76 230 m 0
 101 369 221 470 356 470 c 0
 491 470 577 369 552 230 c 0
 527 91 406 -10 271 -10 c 0
 136 -10 51 91 76 230 c 0
157 230 m 0
 140 134 194 65 284 65 c 0
 374 65 454 134 471 230 c 0
 488 326 433 395 343 395 c 0
 253 395 174 326 157 230 c 0
233 670 m 1
 304 670 l 1
 299 644 308 595 378 595 c 4
 448 595 473 644 478 670 c 1
 549 670 l 1
 537 601 471 530 366 530 c 0
 261 530 221 601 233 670 c 1
EndSplineSet
EndChar

StartChar: Racute
Encoding: 340 340 324
GlifName: R_acute
Width: 560
VWidth: 0
Flags: MW
LayerCount: 2
Fore
SplineSet
266 345 m 1
 361 345 l 1
 550 0 l 1
 445 0 l 1
 266 345 l 1
203 700 m 1
 288 700 l 1
 165 0 l 1
 80 0 l 1
 203 700 l 1
237 625 m 1
 250 700 l 1
 393 700 l 2
 528 700 617 619 594 490 c 0
 571 361 454 280 319 280 c 2
 176 280 l 1
 190 355 l 1
 333 355 l 2
 423 355 494 404 509 490 c 0
 524 576 470 625 380 625 c 2
 237 625 l 1
567 920 m 5
 361 770 l 5
 321 800 l 5
 499 960 l 5
 567 920 l 5
EndSplineSet
EndChar

StartChar: uni0156
Encoding: 342 342 325
GlifName: uni0156
Width: 560
VWidth: 0
Flags: MW
LayerCount: 2
Fore
SplineSet
266 345 m 1
 361 345 l 1
 550 0 l 1
 445 0 l 1
 266 345 l 1
203 700 m 1
 288 700 l 1
 165 0 l 1
 80 0 l 1
 203 700 l 1
237 625 m 1
 250 700 l 1
 393 700 l 2
 528 700 617 619 594 490 c 0
 571 361 454 280 319 280 c 2
 176 280 l 1
 190 355 l 1
 333 355 l 2
 423 355 494 404 509 490 c 0
 524 576 470 625 380 625 c 2
 237 625 l 1
308 -60 m 5
 383 -90 l 5
 229 -340 l 5
 175 -319 l 5
 308 -60 l 5
EndSplineSet
EndChar

StartChar: uni0157
Encoding: 343 343 326
GlifName: uni0157
Width: 343
VWidth: 0
Flags: MW
LayerCount: 2
Fore
SplineSet
236 460 m 1
 155 0 l 1
 75 0 l 1
 156 460 l 1
 236 460 l 1
360 372 m 1
 341 388 328 395 302 395 c 0
 242 395 216 346 204 280 c 1
 168 280 l 1
 187 389 270 470 335 470 c 0
 368 470 395 463 415 438 c 1
 360 372 l 1
108 -60 m 5
 183 -90 l 5
 29 -340 l 5
 -25 -319 l 5
 108 -60 l 5
EndSplineSet
EndChar

StartChar: Scedilla
Encoding: 350 350 327
GlifName: S_cedilla
Width: 548
VWidth: 0
Flags: MW
LayerCount: 2
Fore
SplineSet
152 226 m 1
 177 130 220 70 307 70 c 0
 387 70 435 113 447 183 c 0
 463 273 386 309 311 338 c 0
 245 363 148 416 169 535 c 4
 188 641 289 710 403 710 c 0
 516 710 578 631 593 560 c 1
 516 514 l 1
 496 572 467 629 390 629 c 0
 320 629 268 590 257 529 c 4
 245 461 317 428 396 396 c 0
 464 369 559 317 537 190 c 0
 516 71 427 -10 288 -10 c 0
 173 -10 96 68 72 183 c 1
 152 226 l 1
310 59 m 5
 370 59 l 5
 286 -55 l 1
 195 -109 l 1
 310 59 l 5
356 -127 m 1
 300 -127 l 1
 304 -103 290 -91 256 -91 c 0
 246 -91 221 -93 195 -109 c 1
 242 -69 l 1
 271 -53 284 -53 297 -53 c 0
 330 -53 365 -78 356 -127 c 1
356 -127 m 1
 345 -188 288 -221 233 -221 c 0
 196 -221 173 -211 150 -183 c 1
 191 -143 l 1
 207 -159 217 -167 243 -167 c 0
 277 -167 296 -151 300 -127 c 1
 356 -127 l 1
EndSplineSet
EndChar

StartChar: scedilla
Encoding: 351 351 328
GlifName: scedilla
Width: 403
VWidth: 0
Flags: MW
LayerCount: 2
Fore
SplineSet
119 161 m 1
 121 105 164 65 221 65 c 0
 271 65 305 83 312 123 c 0
 321 173 273 194 224 215 c 0
 165 240 102 272 116 349 c 0
 129 425 212 470 286 470 c 0
 359 470 427 431 436 380 c 5
 365 339 l 5
 348 370 310 394 273 394 c 0
 233 394 201 380 195 344 c 4
 189 308 246 287 293 266 c 0
 353 239 408 197 396 130 c 0
 379 31 302 -10 203 -10 c 0
 118 -10 48 48 47 123 c 1
 119 161 l 1
224 59 m 5
 286 59 l 5
 200 -55 l 1
 111 -109 l 1
 224 59 l 5
272 -127 m 1
 214 -127 l 1
 218 -103 204 -91 170 -91 c 0
 160 -91 137 -93 111 -109 c 1
 158 -69 l 1
 187 -53 198 -53 211 -53 c 0
 244 -53 281 -78 272 -127 c 1
272 -127 m 1
 261 -188 202 -221 147 -221 c 0
 110 -221 89 -211 66 -183 c 1
 105 -143 l 1
 121 -159 131 -167 157 -167 c 0
 191 -167 210 -151 214 -127 c 1
 272 -127 l 1
EndSplineSet
EndChar

StartChar: Zcaron
Encoding: 381 381 329
GlifName: Z_caron
Width: 545
VWidth: 0
Flags: MW
LayerCount: 2
Fore
SplineSet
144 620 m 5
 158 700 l 5
 648 700 l 5
 171 80 l 5
 519 80 l 5
 505 0 l 5
 15 0 l 5
 492 620 l 5
 144 620 l 5
431 855 m 5
 558 950 l 5
 600 910 l 5
 416 770 l 5
 280 910 l 5
 338 950 l 5
 431 855 l 5
EndSplineSet
EndChar

StartChar: zcaron
Encoding: 382 382 330
GlifName: zcaron
Width: 460
VWidth: 0
Flags: MW
LayerCount: 2
Fore
SplineSet
108 75 m 5
 438 75 l 5
 425 0 l 5
 15 0 l 5
 108 75 l 5
126 460 m 5
 526 460 l 5
 443 385 l 5
 113 385 l 5
 126 460 l 5
436 460 m 5
 526 460 l 5
 105 0 l 5
 15 0 l 5
 436 460 l 5
353 615 m 1
 480 710 l 1
 523 670 l 1
 338 530 l 1
 203 670 l 1
 260 710 l 1
 353 615 l 1
EndSplineSet
EndChar

StartChar: Ydieresis
Encoding: 376 376 331
GlifName: Y_dieresis
Width: 561
VWidth: 0
Flags: MW
LayerCount: 2
Fore
SplineSet
301 360 m 1
 386 360 l 1
 323 0 l 1
 238 0 l 1
 301 360 l 1
584 700 m 1
 679 700 l 1
 320 229 l 5
 128 700 l 1
 223 700 l 1
 346 376 l 1
 584 700 l 1
471 825 m 4
 476 855 505 880 535 880 c 4
 565 880 586 855 581 825 c 4
 576 795 546 770 516 770 c 4
 486 770 466 795 471 825 c 4
271 825 m 4
 276 855 305 880 335 880 c 4
 365 880 386 855 381 825 c 4
 376 795 346 770 316 770 c 4
 286 770 266 795 271 825 c 4
EndSplineSet
EndChar

StartChar: Scaron
Encoding: 352 352 332
GlifName: S_caron
Width: 548
VWidth: 0
Flags: MW
LayerCount: 2
Fore
SplineSet
152 226 m 1
 177 130 220 70 307 70 c 0
 387 70 435 113 447 183 c 0
 463 273 386 309 311 338 c 0
 245 363 148 416 169 535 c 4
 188 641 289 710 403 710 c 0
 516 710 578 631 593 560 c 1
 516 514 l 1
 496 572 467 629 390 629 c 0
 320 629 268 590 257 529 c 4
 245 461 317 428 396 396 c 0
 464 369 559 317 537 190 c 0
 516 71 427 -10 288 -10 c 0
 173 -10 96 68 72 183 c 1
 152 226 l 1
429 855 m 5
 556 950 l 5
 598 910 l 5
 414 770 l 5
 278 910 l 5
 336 950 l 5
 429 855 l 5
EndSplineSet
EndChar

StartChar: scaron
Encoding: 353 353 333
GlifName: scaron
Width: 403
VWidth: 0
Flags: MW
LayerCount: 2
Fore
SplineSet
119 161 m 1
 121 105 164 65 221 65 c 0
 271 65 305 83 312 123 c 0
 321 173 273 194 224 215 c 0
 165 240 102 272 116 349 c 0
 129 425 212 470 286 470 c 0
 359 470 427 431 436 380 c 5
 365 339 l 5
 348 370 310 394 273 394 c 0
 233 394 201 380 195 344 c 4
 189 308 246 287 293 266 c 0
 353 239 408 197 396 130 c 0
 379 31 302 -10 203 -10 c 0
 118 -10 48 48 47 123 c 1
 119 161 l 1
311 615 m 5
 438 710 l 5
 481 670 l 5
 296 530 l 5
 161 670 l 5
 218 710 l 5
 311 615 l 5
EndSplineSet
EndChar

StartChar: Lslash
Encoding: 321 321 334
GlifName: L_slash
Width: 450
VWidth: 0
Flags: MW
LayerCount: 2
Fore
SplineSet
65 340 m 5
 55 395 l 5
 355 565 l 5
 365 510 l 5
 65 340 l 5
127 0 m 1
 141 80 l 1
 454 80 l 1
 440 0 l 1
 127 0 l 1
203 700 m 1
 288 700 l 1
 165 0 l 1
 80 0 l 1
 203 700 l 1
EndSplineSet
EndChar

StartChar: lslash
Encoding: 322 322 335
GlifName: lslash
Width: 230
VWidth: 0
Flags: MW
LayerCount: 2
Fore
SplineSet
65 340 m 1
 55 395 l 1
 331 545 l 5
 341 490 l 5
 65 340 l 1
213 780 m 1
 293 780 l 1
 155 0 l 1
 75 0 l 1
 213 780 l 1
EndSplineSet
EndChar

StartChar: uni0218
Encoding: 536 536 336
GlifName: uni0218
Width: 548
VWidth: 0
Flags: MW
LayerCount: 2
Fore
SplineSet
152 226 m 1
 177 130 220 70 307 70 c 0
 387 70 435 113 447 183 c 0
 463 273 386 309 311 338 c 0
 245 363 148 416 169 535 c 4
 188 641 289 710 403 710 c 0
 516 710 578 631 593 560 c 1
 516 514 l 1
 496 572 467 629 390 629 c 0
 320 629 268 590 257 529 c 4
 245 461 317 428 396 396 c 0
 464 369 559 317 537 190 c 0
 516 71 427 -10 288 -10 c 0
 173 -10 96 68 72 183 c 1
 152 226 l 1
282 -70 m 5
 356 -100 l 5
 202 -350 l 5
 148 -329 l 5
 282 -70 l 5
EndSplineSet
EndChar

StartChar: uni0219
Encoding: 537 537 337
GlifName: uni0219
Width: 403
VWidth: 0
Flags: MW
LayerCount: 2
Fore
SplineSet
119 161 m 1
 121 105 164 65 221 65 c 0
 271 65 305 83 312 123 c 0
 321 173 273 194 224 215 c 0
 165 240 102 272 116 349 c 0
 129 425 212 470 286 470 c 0
 359 470 427 431 436 380 c 5
 365 339 l 5
 348 370 310 394 273 394 c 0
 233 394 201 380 195 344 c 4
 189 308 246 287 293 266 c 0
 353 239 408 197 396 130 c 0
 379 31 302 -10 203 -10 c 0
 118 -10 48 48 47 123 c 1
 119 161 l 1
197 -70 m 5
 271 -100 l 5
 117 -350 l 5
 63 -329 l 5
 197 -70 l 5
EndSplineSet
EndChar

StartChar: pi
Encoding: 960 960 338
GlifName: pi
Width: 540
VWidth: 0
Flags: MW
LayerCount: 2
Fore
SplineSet
166 430 m 1
 246 430 l 1
 170 0 l 1
 90 0 l 1
 166 430 l 1
111 460 m 1
 581 460 l 1
 568 385 l 1
 98 385 l 1
 111 460 l 1
416 430 m 1
 496 430 l 1
 445 141 l 6
 433 75 456 71 486 71 c 5
 471 -9 l 5
 387 -9 342 12 361 121 c 6
 416 430 l 1
EndSplineSet
EndChar

StartChar: trademark
Encoding: 8482 8482 339
GlifName: trademark
Width: 665
VWidth: 0
Flags: MW
LayerCount: 2
Fore
SplineSet
148 660 m 1
 155 700 l 1
 378 700 l 1
 371 660 l 1
 281 660 l 1
 227 350 l 1
 184 350 l 1
 238 660 l 1
 148 660 l 1
668 602 m 1
 716 717 l 1
 694 350 l 1
 652 350 l 1
 668 602 l 1
436 717 m 1
 444 602 l 1
 372 350 l 1
 330 350 l 1
 436 717 l 1
716 717 m 1
 701 632 l 1
 517 382 l 1
 421 632 l 1
 436 717 l 1
 532 464 l 1
 716 717 l 1
EndSplineSet
EndChar

StartChar: uni2219
Encoding: 8729 8729 340
GlifName: uni2219
Width: 300
VWidth: 0
Flags: MW
LayerCount: 2
Fore
SplineSet
168 415 m 4
 173 445 203 470 233 470 c 4
 263 470 283 445 278 415 c 4
 273 385 243 360 213 360 c 4
 183 360 163 385 168 415 c 4
EndSplineSet
EndChar

StartChar: agrave.alt
Encoding: 65537 -1 341
GlifName: agrave.alt
Width: 485
VWidth: 0
Flags: MW
LayerCount: 2
Fore
SplineSet
135 135 m 4
 126 86 155 61 219 61 c 4
 299 61 362 94 377 180 c 5
 384 130 l 5
 368 41 281 -10 186 -10 c 4
 91 -10 37 41 52 125 c 4
 71 232 165 286 276 286 c 4
 364 286 407 242 418 225 c 5
 409 178 l 5
 370 210 328 225 270 225 c 4
 189 225 145 191 135 135 c 4
173 352 m 5
 145 413 l 5
 183 438 248 470 331 470 c 4
 436 470 499 419 483 330 c 6
 425 0 l 5
 345 0 l 5
 403 330 l 6
 411 376 369 400 319 400 c 4
 253 400 198 368 173 352 c 5
208 680 m 5
 290 720 l 5
 412 560 l 5
 361 530 l 5
 208 680 l 5
EndSplineSet
EndChar

StartChar: aacute.alt
Encoding: 65538 -1 342
GlifName: aacute.alt
Width: 485
VWidth: 0
Flags: MW
LayerCount: 2
Fore
SplineSet
135 135 m 0
 126 86 155 61 219 61 c 0
 299 61 362 94 377 180 c 1
 384 130 l 1
 368 41 281 -10 186 -10 c 0
 91 -10 37 41 52 125 c 0
 71 232 165 286 276 286 c 0
 364 286 407 242 418 225 c 1
 409 178 l 1
 370 210 328 225 270 225 c 0
 189 225 145 191 135 135 c 0
173 352 m 1
 145 413 l 1
 183 438 248 470 331 470 c 0
 436 470 499 419 483 330 c 2
 425 0 l 1
 345 0 l 1
 403 330 l 2
 411 376 369 400 319 400 c 0
 253 400 198 368 173 352 c 1
528 680 m 1
 321 530 l 1
 282 560 l 1
 460 720 l 1
 528 680 l 1
EndSplineSet
EndChar

StartChar: acircumflex.alt
Encoding: 65539 -1 343
GlifName: acircumflex.alt
Width: 485
VWidth: 0
Flags: MW
LayerCount: 2
Fore
SplineSet
135 135 m 4
 126 86 155 61 219 61 c 4
 299 61 362 94 377 180 c 5
 384 130 l 5
 368 41 281 -10 186 -10 c 4
 91 -10 37 41 52 125 c 4
 71 232 165 286 276 286 c 4
 364 286 407 242 418 225 c 5
 409 178 l 5
 370 210 328 225 270 225 c 4
 189 225 145 191 135 135 c 4
173 352 m 5
 145 413 l 5
 183 438 248 470 331 470 c 4
 436 470 499 419 483 330 c 6
 425 0 l 5
 345 0 l 5
 403 330 l 6
 411 376 369 400 319 400 c 4
 253 400 198 368 173 352 c 5
358 625 m 5
 231 530 l 5
 189 570 l 5
 373 710 l 5
 509 570 l 5
 451 530 l 5
 358 625 l 5
EndSplineSet
EndChar

StartChar: atilde.alt
Encoding: 65540 -1 344
GlifName: atilde.alt
Width: 485
VWidth: 0
Flags: HMW
LayerCount: 2
Fore
SplineSet
135 135 m 0
 126 86 155 61 219 61 c 0
 299 61 362 94 377 180 c 1
 384 130 l 1
 368 41 281 -10 186 -10 c 0
 91 -10 37 41 52 125 c 0
 71 232 165 286 276 286 c 0
 364 286 407 242 418 225 c 1
 409 178 l 1
 370 210 328 225 270 225 c 0
 189 225 145 191 135 135 c 0
173 352 m 1
 145 413 l 1
 183 438 248 470 331 470 c 0
 436 470 499 419 483 330 c 2
 425 0 l 1
 345 0 l 1
 403 330 l 2
 411 376 369 400 319 400 c 0
 253 400 198 368 173 352 c 1
183 567 m 1
 202 616 256 649 301 649 c 0
 366 649 363 602 417 602 c 0
 436 602 456 618 482 650 c 1
 520 607 l 1
 497 570 451 534 401 534 c 0
 346 534 333 581 288 581 c 0
 247 581 232 545 229 530 c 1
 183 567 l 1
EndSplineSet
EndChar

StartChar: adieresis.alt
Encoding: 65541 -1 345
GlifName: adieresis.alt
Width: 485
VWidth: 0
Flags: MW
LayerCount: 2
Fore
SplineSet
135 135 m 4
 126 86 155 61 219 61 c 4
 299 61 362 94 377 180 c 5
 384 130 l 5
 368 41 281 -10 186 -10 c 4
 91 -10 37 41 52 125 c 4
 71 232 165 286 276 286 c 4
 364 286 407 242 418 225 c 5
 409 178 l 5
 370 210 328 225 270 225 c 4
 189 225 145 191 135 135 c 4
173 352 m 5
 145 413 l 5
 183 438 248 470 331 470 c 4
 436 470 499 419 483 330 c 6
 425 0 l 5
 345 0 l 5
 403 330 l 6
 411 376 369 400 319 400 c 4
 253 400 198 368 173 352 c 5
396 585 m 4
 401 615 431 640 461 640 c 4
 491 640 511 615 506 585 c 4
 501 555 471 530 441 530 c 4
 411 530 391 555 396 585 c 4
196 585 m 4
 201 615 231 640 261 640 c 4
 291 640 311 615 306 585 c 4
 301 555 271 530 241 530 c 4
 211 530 191 555 196 585 c 4
EndSplineSet
EndChar

StartChar: aring.alt
Encoding: 65542 -1 346
GlifName: aring.alt
Width: 485
VWidth: 0
Flags: MW
LayerCount: 2
Fore
SplineSet
135 135 m 0
 126 86 155 61 219 61 c 0
 299 61 362 94 377 180 c 1
 384 130 l 1
 368 41 281 -10 186 -10 c 0
 91 -10 37 41 52 125 c 0
 71 232 165 286 276 286 c 0
 364 286 407 242 418 225 c 1
 409 178 l 1
 370 210 328 225 270 225 c 0
 189 225 145 191 135 135 c 0
173 352 m 1
 145 413 l 1
 183 438 248 470 331 470 c 0
 436 470 499 419 483 330 c 2
 425 0 l 1
 345 0 l 1
 403 330 l 2
 411 376 369 400 319 400 c 0
 253 400 198 368 173 352 c 1
257 630 m 0
 268 690 325 730 377 730 c 0
 429 730 472 690 461 630 c 0
 450 570 393 530 341 530 c 0
 289 530 246 570 257 630 c 0
308 630 m 0
 302 597 325 577 350 577 c 0
 375 577 404 597 410 630 c 0
 416 663 393 683 368 683 c 0
 343 683 314 663 308 630 c 0
EndSplineSet
EndChar

StartChar: amacron.alt
Encoding: 65543 -1 347
GlifName: amacron.alt
Width: 485
VWidth: 0
Flags: MW
LayerCount: 2
Fore
SplineSet
135 135 m 4
 126 86 155 61 219 61 c 4
 299 61 362 94 377 180 c 5
 384 130 l 5
 368 41 281 -10 186 -10 c 4
 91 -10 37 41 52 125 c 4
 71 232 165 286 276 286 c 4
 364 286 407 242 418 225 c 5
 409 178 l 5
 370 210 328 225 270 225 c 4
 189 225 145 191 135 135 c 4
173 352 m 5
 145 413 l 5
 183 438 248 470 331 470 c 4
 436 470 499 419 483 330 c 6
 425 0 l 5
 345 0 l 5
 403 330 l 6
 411 376 369 400 319 400 c 4
 253 400 198 368 173 352 c 5
170 550 m 5
 183 625 l 5
 533 625 l 5
 520 550 l 5
 170 550 l 5
EndSplineSet
EndChar

StartChar: abreve.alt
Encoding: 65544 -1 348
GlifName: abreve.alt
Width: 485
VWidth: 0
Flags: MW
LayerCount: 2
Fore
SplineSet
135 135 m 0
 126 86 155 61 219 61 c 0
 299 61 362 94 377 180 c 1
 384 130 l 1
 368 41 281 -10 186 -10 c 0
 91 -10 37 41 52 125 c 0
 71 232 165 286 276 286 c 0
 364 286 407 242 418 225 c 1
 409 178 l 1
 370 210 328 225 270 225 c 0
 189 225 145 191 135 135 c 0
173 352 m 1
 145 413 l 1
 183 438 248 470 331 470 c 0
 436 470 499 419 483 330 c 2
 425 0 l 1
 345 0 l 1
 403 330 l 2
 411 376 369 400 319 400 c 0
 253 400 198 368 173 352 c 1
208 670 m 1
 279 670 l 1
 274 644 283 595 353 595 c 0
 423 595 448 644 453 670 c 1
 524 670 l 1
 512 601 446 530 341 530 c 0
 236 530 196 601 208 670 c 1
EndSplineSet
EndChar

StartChar: aogonek.alt
Encoding: 65545 -1 349
GlifName: aogonek.alt
Width: 475
VWidth: 0
Flags: MW
LayerCount: 2
Fore
SplineSet
135 135 m 0
 126 86 155 61 219 61 c 0
 299 61 362 94 377 180 c 1
 384 130 l 1
 368 41 281 -10 186 -10 c 0
 91 -10 37 41 52 125 c 0
 71 232 165 286 276 286 c 0
 364 286 407 242 418 225 c 1
 409 178 l 1
 370 210 328 225 270 225 c 0
 189 225 145 191 135 135 c 0
173 352 m 1
 145 413 l 1
 183 438 248 470 331 470 c 0
 436 470 499 419 483 330 c 2
 425 0 l 1
 345 0 l 1
 403 330 l 2
 411 376 369 400 319 400 c 0
 253 400 198 368 173 352 c 1
407 -130 m 1
 431 -180 l 1
 412 -200 379 -220 336 -220 c 0
 252 -220 221 -179 231 -120 c 1
 314 -100 l 1
 308 -136 324 -150 354 -150 c 0
 380 -150 391 -143 407 -130 c 1
314 -100 m 1
 231 -120 l 1
 241 -61 312 -11 388 25 c 1
 425 0 l 1
 369 -22 321 -63 314 -100 c 1
EndSplineSet
EndChar

StartChar: dagger
Encoding: 8224 8224 350
GlifName: dagger
Width: 570
VWidth: 0
Flags: MW
LayerCount: 2
Fore
SplineSet
185 540 m 1
 575 540 l 1
 562 465 l 1
 172 465 l 1
 185 540 l 1
368 700 m 1
 448 700 l 1
 299 -150 l 5
 219 -150 l 5
 368 700 l 1
EndSplineSet
EndChar

StartChar: daggerdbl
Encoding: 8225 8225 351
GlifName: daggerdbl
Width: 570
VWidth: 0
Flags: MW
LayerCount: 2
Fore
SplineSet
111 120 m 5
 501 120 l 5
 488 45 l 5
 98 45 l 5
 111 120 l 5
185 540 m 1
 575 540 l 1
 562 465 l 1
 172 465 l 1
 185 540 l 1
368 700 m 1
 448 700 l 1
 299 -150 l 1
 219 -150 l 1
 368 700 l 1
EndSplineSet
EndChar

StartChar: ellipsis
Encoding: 8230 8230 352
GlifName: ellipsis
Width: 900
VWidth: 0
Flags: MW
LayerCount: 2
Fore
SplineSet
102 40 m 4
 107 70 137 95 167 95 c 4
 197 95 217 70 212 40 c 4
 207 10 177 -15 147 -15 c 4
 117 -15 97 10 102 40 c 4
402 40 m 4
 407 70 437 95 467 95 c 4
 497 95 517 70 512 40 c 4
 507 10 477 -15 447 -15 c 4
 417 -15 397 10 402 40 c 4
702 40 m 4
 707 70 737 95 767 95 c 4
 797 95 817 70 812 40 c 4
 807 10 777 -15 747 -15 c 4
 717 -15 697 10 702 40 c 4
EndSplineSet
EndChar

StartChar: uniFF10
Encoding: 65296 65296 353
GlifName: uniF_F_10
Width: 580
VWidth: 0
Flags: MW
LayerCount: 2
Fore
SplineSet
177 350 m 4
 148 187 194 70 302 70 c 4
 410 70 498 187 527 350 c 4
 556 513 509 630 401 630 c 4
 293 630 206 513 177 350 c 4
92 350 m 4
 129 559 261 710 415 710 c 4
 569 710 649 559 612 350 c 4
 575 141 442 -10 288 -10 c 4
 134 -10 55 141 92 350 c 4
EndSplineSet
EndChar

StartChar: uniFF11
Encoding: 65297 65297 354
GlifName: uniF_F_11
Width: 580
VWidth: 0
Flags: MW
LayerCount: 2
Fore
SplineSet
214 562 m 1
 230 650 l 1
 480 710 l 1
 355 0 l 1
 270 0 l 1
 377 608 l 1
 214 562 l 1
EndSplineSet
EndChar

StartChar: uniFF12
Encoding: 65298 65298 355
GlifName: uniF_F_12
Width: 580
VWidth: 0
Flags: MW
LayerCount: 2
Fore
SplineSet
26 0 m 1
 418 353 l 2
 473 402 509 450 519 506 c 0
 530 567 498 631 413 631 c 0
 323 631 250 566 231 460 c 1
 147 460 l 1
 173 609 282 711 427 711 c 0
 581 711 621 593 604 499 c 4
 591 427 543 363 478 307 c 2
 214 80 l 1
 534 80 l 1
 520 0 l 1
 26 0 l 1
EndSplineSet
EndChar

StartChar: uniFF13
Encoding: 65299 65299 356
GlifName: uniF_F_13
Width: 580
VWidth: 0
Flags: MW
LayerCount: 2
Fore
SplineSet
331 345 m 1
 341 400 l 1
 431 400 491 455 503 521 c 0
 515 587 487 633 417 633 c 0
 352 633 292 587 281 526 c 1
 200 526 l 1
 219 635 314 710 429 710 c 0
 549 710 607 623 590 524 c 0
 573 425 466 345 331 345 c 1
298 -10 m 4
 163 -10 91 76 110 185 c 1
 196 185 l 1
 184 119 232 70 312 70 c 4
 392 70 452 119 465 195 c 0
 480 281 417 325 327 325 c 1
 337 380 l 1
 472 380 576 324 551 185 c 0
 530 66 423 -10 298 -10 c 4
EndSplineSet
EndChar

StartChar: uniFF14
Encoding: 65300 65300 357
GlifName: uniF_F_14
Width: 580
VWidth: 0
Flags: MW
LayerCount: 2
Fore
SplineSet
43 140 m 1
 126 215 l 1
 429 215 l 0
 446 215 l 0
 589 215 l 1
 576 140 l 1
 43 140 l 1
133 140 m 1
 43 140 l 1
 529 700 l 25
 564 700 l 1
 441 0 l 1
 356 0 l 1
 387 176 l 0
 389 187 l 0
 446 511 l 1
 133 140 l 1
EndSplineSet
EndChar

StartChar: uniFF15
Encoding: 65301 65301 358
GlifName: uniF_F_15
Width: 580
VWidth: 0
Flags: MW
LayerCount: 2
Fore
SplineSet
573 230 m 0
 545 71 420 -10 285 -10 c 0
 156 -10 94 57 62 137 c 1
 143 186 l 1
 163 126 222 70 299 70 c 0
 399 70 468 134 485 230 c 0
 502 326 446 390 356 390 c 0
 289 390 246 377 166 327 c 1
 227 393 l 1
 282 443 346 466 405 466 c 0
 525 466 598 369 573 230 c 0
376 625 m 1
 287 417 l 1
 166 327 l 1
 323 700 l 1
 653 700 l 1
 640 625 l 1
 376 625 l 1
EndSplineSet
EndChar

StartChar: uniFF16
Encoding: 65302 65302 359
GlifName: uniF_F_16
Width: 580
VWidth: 0
Flags: MW
LayerCount: 2
Fore
SplineSet
174 230 m 4
 157 134 212 67 302 67 c 4
 392 67 471 134 488 230 c 4
 505 326 450 395 360 395 c 4
 270 395 191 326 174 230 c 4
455 700 m 5
 562 700 l 5
 292 411 l 5
 287 416 l 5
 320 449 357 457 402 457 c 4
 516 457 592 359 569 230 c 4
 544 86 423 -10 288 -10 c 4
 153 -10 68 86 93 230 c 4
 103 287 128 338 162 375 c 6
 455 700 l 5
EndSplineSet
EndChar

StartChar: uniFF17
Encoding: 65303 65303 360
GlifName: uniF_F_17
Width: 580
VWidth: 0
Flags: MW
LayerCount: 2
Fore
SplineSet
167 620 m 1
 181 700 l 5
 671 700 l 5
 212 0 l 1
 124 0 l 1
 529 620 l 1
 167 620 l 1
EndSplineSet
EndChar

StartChar: uniFF18
Encoding: 65304 65304 361
GlifName: uniF_F_18
Width: 580
VWidth: 0
Flags: MW
LayerCount: 2
Fore
SplineSet
191 531 m 4
 208 630 305 710 415 710 c 0
 525 710 594 630 577 531 c 4
 558 422 468 355 353 355 c 0
 238 355 172 422 191 531 c 4
270 521 m 0
 258 455 302 410 362 410 c 0
 422 410 482 455 494 521 c 0
 506 587 467 635 402 635 c 0
 337 635 282 587 270 521 c 0
106 190 m 0
 129 319 244 390 359 390 c 0
 474 390 565 319 542 190 c 0
 523 81 413 -10 288 -10 c 0
 163 -10 87 81 106 190 c 0
188 200 m 0
 173 114 231 65 301 65 c 0
 371 65 447 114 462 200 c 0
 475 276 419 335 349 335 c 0
 279 335 201 276 188 200 c 0
EndSplineSet
EndChar

StartChar: uniFF19
Encoding: 65305 65305 362
GlifName: uniF_F_19
Width: 580
VWidth: 0
Flags: MW
LayerCount: 2
Fore
SplineSet
530 470 m 4
 547 566 492 633 402 633 c 4
 312 633 233 566 216 470 c 4
 199 374 254 305 344 305 c 4
 434 305 513 374 530 470 c 4
248 0 m 5
 141 0 l 5
 411 289 l 5
 416 284 l 5
 383 251 347 243 302 243 c 4
 188 243 112 341 135 470 c 4
 160 614 280 710 415 710 c 4
 550 710 636 614 611 470 c 4
 601 413 575 362 541 325 c 6
 248 0 l 5
EndSplineSet
EndChar

StartChar: caron
Encoding: 711 711 363
GlifName: caron
Width: 480
VWidth: 0
Flags: MW
LayerCount: 2
Fore
SplineSet
355 655 m 5
 482 750 l 5
 525 710 l 5
 341 570 l 5
 205 710 l 5
 262 750 l 5
 355 655 l 5
EndSplineSet
EndChar

StartChar: napostrophe
Encoding: 329 329 364
GlifName: napostrophe
Width: 635
VWidth: 0
Flags: MW
LayerCount: 2
Fore
SplineSet
346 460 m 1
 265 0 l 1
 185 0 l 1
 266 460 l 1
 346 460 l 1
529 280 m 2
 542 356 517 395 452 395 c 0
 382 395 326 346 314 280 c 1
 278 280 l 1
 297 389 390 470 485 470 c 0
 580 470 632 409 611 290 c 2
 560 0 l 1
 480 0 l 1
 529 280 l 2
253 700 m 5
 348 700 l 5
 208 470 l 5
 153 470 l 5
 253 700 l 5
EndSplineSet
EndChar

StartChar: IJ
Encoding: 306 306 365
GlifName: I_J_
Width: 490
VWidth: 0
Flags: MW
LayerCount: 2
Fore
SplineSet
165 -104 m 5
 175 -127 201 -140 237 -140 c 4
 267 -140 309 -116 321 -50 c 6
 453 700 l 5
 533 700 l 5
 399 -60 l 6
 380 -169 312 -220 218 -220 c 4
 165 -220 120 -190 109 -170 c 5
 165 -104 l 5
203 700 m 5
 288 700 l 5
 165 0 l 5
 80 0 l 5
 203 700 l 5
EndSplineSet
EndChar

StartChar: ij
Encoding: 307 307 366
GlifName: ij
Width: 510
VWidth: 0
Flags: MW
LayerCount: 2
Fore
SplineSet
440 650 m 4
 445 680 474 705 504 705 c 4
 534 705 555 680 550 650 c 4
 545 620 515 595 485 595 c 4
 455 595 435 620 440 650 c 4
223 -114 m 5
 233 -137 251 -140 267 -140 c 4
 297 -140 319 -116 331 -50 c 6
 421 460 l 5
 501 460 l 5
 409 -60 l 6
 390 -169 332 -220 248 -220 c 4
 205 -220 178 -200 167 -180 c 5
 223 -114 l 5
190 650 m 0
 195 680 224 705 254 705 c 0
 284 705 305 680 300 650 c 0
 295 620 265 595 235 595 c 0
 205 595 185 620 190 650 c 0
171 460 m 5
 251 460 l 5
 170 0 l 5
 90 0 l 5
 171 460 l 5
EndSplineSet
EndChar

StartChar: uni0237
Encoding: 567 567 367
GlifName: uni0237
Width: 250
VWidth: 0
Flags: MW
LayerCount: 2
Fore
SplineSet
-37 -114 m 1
 -27 -137 -9 -140 7 -140 c 0
 37 -140 59 -116 71 -50 c 2
 161 460 l 1
 241 460 l 1
 149 -60 l 2
 130 -169 72 -220 -12 -220 c 0
 -55 -220 -82 -200 -93 -180 c 1
 -37 -114 l 1
EndSplineSet
EndChar

StartChar: Sacute
Encoding: 346 346 368
GlifName: S_acute
Width: 548
VWidth: 0
Flags: MW
LayerCount: 2
Fore
SplineSet
152 226 m 1
 177 130 220 70 307 70 c 0
 387 70 435 113 447 183 c 0
 463 273 386 309 311 338 c 0
 245 363 148 416 169 535 c 4
 188 641 289 710 403 710 c 0
 516 710 578 631 593 560 c 1
 516 514 l 1
 496 572 467 629 390 629 c 0
 320 629 268 590 257 529 c 4
 245 461 317 428 396 396 c 0
 464 369 559 317 537 190 c 0
 516 71 427 -10 288 -10 c 0
 173 -10 96 68 72 183 c 1
 152 226 l 1
620 920 m 5
 414 770 l 5
 374 800 l 5
 552 960 l 5
 620 920 l 5
EndSplineSet
EndChar

StartChar: sacute
Encoding: 347 347 369
GlifName: sacute
Width: 403
VWidth: 0
Flags: MW
LayerCount: 2
Fore
SplineSet
119 161 m 1
 121 105 164 65 221 65 c 0
 271 65 305 83 312 123 c 0
 321 173 273 194 224 215 c 0
 165 240 102 272 116 349 c 0
 129 425 212 470 286 470 c 0
 359 470 427 431 436 380 c 5
 365 339 l 5
 348 370 310 394 273 394 c 0
 233 394 201 380 195 344 c 4
 189 308 246 287 293 266 c 0
 353 239 408 197 396 130 c 0
 379 31 302 -10 203 -10 c 0
 118 -10 48 48 47 123 c 1
 119 161 l 1
503 680 m 5
 296 530 l 5
 257 560 l 5
 435 720 l 5
 503 680 l 5
EndSplineSet
EndChar

StartChar: Scircumflex
Encoding: 348 348 370
GlifName: S_circumflex
Width: 548
VWidth: 0
Flags: MW
LayerCount: 2
Fore
SplineSet
152 226 m 1
 177 130 220 70 307 70 c 0
 387 70 435 113 447 183 c 0
 463 273 386 309 311 338 c 0
 245 363 148 416 169 535 c 4
 188 641 289 710 403 710 c 0
 516 710 578 631 593 560 c 1
 516 514 l 1
 496 572 467 629 390 629 c 0
 320 629 268 590 257 529 c 4
 245 461 317 428 396 396 c 0
 464 369 559 317 537 190 c 0
 516 71 427 -10 288 -10 c 0
 173 -10 96 68 72 183 c 1
 152 226 l 1
431 865 m 5
 304 770 l 5
 261 810 l 5
 446 950 l 5
 581 810 l 5
 524 770 l 5
 431 865 l 5
EndSplineSet
EndChar

StartChar: scircumflex
Encoding: 349 349 371
GlifName: scircumflex
Width: 403
VWidth: 0
Flags: MW
LayerCount: 2
Fore
SplineSet
119 161 m 1
 121 105 164 65 221 65 c 0
 271 65 305 83 312 123 c 0
 321 173 273 194 224 215 c 0
 165 240 102 272 116 349 c 0
 129 425 212 470 286 470 c 0
 359 470 427 431 436 380 c 5
 365 339 l 5
 348 370 310 394 273 394 c 0
 233 394 201 380 195 344 c 4
 189 308 246 287 293 266 c 0
 353 239 408 197 396 130 c 0
 379 31 302 -10 203 -10 c 0
 118 -10 48 48 47 123 c 1
 119 161 l 1
313 625 m 5
 186 530 l 5
 144 570 l 5
 328 710 l 5
 464 570 l 5
 406 530 l 5
 313 625 l 5
EndSplineSet
EndChar
